<?xml version="1.0" encoding="UTF-8"?>
<svg version="1.1" xmlns="http://www.w3.org/2000/svg" width="2560" height="1776">
<path d="M0 0 C3.23065523 1.42129164 5.38483278 3.13555585 7.8731401 5.62589377 C8.63692375 6.38543906 9.4007074 7.14498436 10.18763602 7.92754617 C11.43908536 9.18730532 11.43908536 9.18730532 12.7158165 10.47251415 C13.60949641 11.36418597 14.50317632 12.25585779 15.42393744 13.17454997 C17.91626137 15.66155403 20.40227734 18.15478261 22.88735525 20.64902422 C25.5876261 23.35704976 28.29369143 26.05927423 30.99904275 28.76222259 C35.74377457 33.50434405 40.48477206 38.25017366 45.22337341 42.99842072 C52.26996175 50.05931263 59.32226822 57.11447227 66.37579876 64.1684284 C78.24171887 76.03537039 90.10304162 87.90689747 101.9618454 99.78095055 C113.71208507 111.5462406 125.46460217 123.30924849 137.2201004 135.06928444 C138.31593312 136.16554106 138.31593312 136.16554106 139.43390387 137.28394428 C143.14408759 140.99553252 146.85431753 144.70707456 150.56456879 148.41859529 C176.86291852 174.72604011 203.15700517 201.03774191 229.44824219 227.35229492 C231.03883211 228.94429241 232.62942212 230.53628981 234.22001222 232.12828711 C235.00810108 232.91707357 235.79618993 233.70586004 236.60816027 234.51854912 C240.59513486 238.50905242 244.58211167 242.4995535 248.5690918 246.49005127 C249.35966037 247.2813183 250.15022894 248.07258533 250.96475413 248.88783015 C269.31892381 267.25817268 287.67436958 285.62723991 306.03027344 303.99584961 C306.81634435 304.78246664 307.60241526 305.56908366 308.4123065 306.37953757 C326.35806745 324.33774386 344.30442419 342.29535448 362.25195694 360.25179005 C363.38341742 361.38381361 363.38341742 361.38381361 364.53773568 362.53870634 C371.32323903 369.32757617 378.10876642 376.11642197 384.89442042 382.90514121 C401.82337665 399.84174801 418.7508463 416.77983609 435.67466602 433.72157564 C447.47069511 445.53008476 459.26833273 457.33698452 471.06769153 469.14216652 C478.07962177 476.15768883 485.09010457 483.17465064 492.09856658 490.19363771 C496.77980374 494.8816371 501.46284917 499.5678249 506.14736477 504.25254825 C508.81668974 506.92210126 511.48520908 509.59244617 514.1515021 512.26502772 C517.02522773 515.14549971 519.90283097 518.02206682 522.78081894 520.89828014 C523.60575383 521.72641375 524.43068873 522.55454735 525.28062165 523.40777591 C529.51092753 527.62859751 533.8177058 531.69146002 538.35510202 535.58146613 C540.32510808 537.28036804 542.18552543 539.06505474 544.02124023 540.90771484 C545.05533524 541.94191559 545.05533524 541.94191559 546.11032104 542.99700928 C546.83575104 543.72760559 547.56118103 544.4582019 548.30859375 545.2109375 C549.09670441 546.00050842 549.88481506 546.79007935 550.69680786 547.60357666 C552.39478768 549.30533965 554.09161209 551.00825613 555.78738403 552.71221924 C558.47621768 555.41390271 561.16823814 558.11237453 563.86108398 560.81005859 C570.0615766 567.0229038 576.25738918 573.24040521 582.45295715 579.4581604 C588.59068199 585.61775154 594.73041842 591.77531978 600.87356567 597.92950439 C603.51665546 600.57904359 606.15669826 603.23159295 608.79663086 605.88427734 C610.42807333 607.51935473 612.05965771 609.15429055 613.69140625 610.7890625 C614.41683624 611.51965881 615.14226624 612.25025513 615.88967896 613.00299072 C619.80179964 616.91551145 623.81933951 620.62078205 628.00764465 624.23446846 C631.53464106 627.35992668 634.83737583 630.70702337 638.16015625 634.04663086 C638.93185654 634.81818512 639.70355682 635.58973938 640.49864197 636.38467407 C643.02230857 638.90903153 645.54242495 641.43690127 648.0625 643.96484375 C649.82204658 645.72625745 651.5818156 647.48744898 653.34179688 649.24842834 C657.95365638 653.86408988 662.56250375 658.48274759 667.17071533 663.10205078 C671.88124033 667.82338714 676.59517687 672.54131663 681.30859375 677.25976562 C690.54185568 686.50372401 699.77203344 695.75075555 709 705 C707.50849261 708.47037197 705.53386828 710.71578775 702.87190819 713.37698078 C702.00201079 714.25147698 701.13211339 715.12597317 700.23585546 716.02696925 C699.26477932 716.99303026 698.29360986 717.95899746 697.32235718 718.92488098 C696.29470668 719.95411944 695.26749419 720.98379539 694.2406832 722.01387137 C691.41474621 724.8462313 688.58259092 727.67230156 685.7493937 730.49739659 C682.69588588 733.54433404 679.64813753 736.59702291 676.59967041 739.64900208 C670.62432166 745.62939725 664.64363735 751.60442924 658.6611449 757.57767729 C651.69347833 764.5349639 644.73103777 771.49747053 637.76880284 778.46019193 C625.34233039 790.88716528 612.91102992 803.30929775 600.47705078 815.72875977 C588.41613876 827.77559752 576.35872098 839.8259182 564.30517578 851.88012695 C563.56347556 852.62186713 562.82177534 853.36360731 562.05759935 854.12782446 C561.31717522 854.86828895 560.57675109 855.60875344 559.81388986 856.37165624 C546.0912359 870.09500078 532.36529064 883.81504921 518.63781869 897.5335742 C513.78569157 902.3826885 508.93453813 907.23277559 504.08369064 912.08316994 C498.16668452 917.9994926 492.24778277 923.91391155 486.32653682 929.82599095 C483.30664818 932.84127421 480.28753599 935.85732361 477.27058029 938.87554169 C474.50539634 941.64182651 471.7378935 944.40576969 468.96856661 947.16790684 C467.97032046 948.16435063 466.97289828 949.16162075 465.97641413 950.15982661 C457.60879882 958.54029038 457.60879882 958.54029038 453.28695107 962.21178722 C446.49119007 968.05663353 440.29487214 974.5751986 433.96923828 980.91723633 C432.43382493 982.45292988 430.89818968 983.9884016 429.36235237 985.52367115 C425.15224126 989.73348725 420.94524805 993.94640709 416.73875523 998.1598382 C412.19792519 1002.70705008 407.65418491 1007.25135227 403.11077881 1011.79598999 C395.2408008 1019.66869004 387.3727541 1027.54331685 379.50579834 1035.41903687 C368.12334039 1046.81411451 356.7375882 1058.20589631 345.35096097 1069.5968076 C340.04249742 1074.90727718 334.73419464 1080.21790747 329.42593384 1085.52857971 C328.89458639 1086.06016818 328.36323893 1086.59175664 327.81579004 1087.13945385 C315.17618575 1099.78486608 302.53815645 1112.43185202 289.90039062 1125.07910156 C289.34761831 1125.63228753 288.79484599 1126.18547349 288.22532299 1126.75542267 C279.81682102 1135.17022085 271.40840121 1143.58510114 263 1152 C254.03324973 1160.97367939 245.06646925 1169.94732857 236.09960938 1178.92089844 C235.27090125 1179.75022845 235.27090125 1179.75022845 234.42545155 1180.5963126 C221.80909482 1193.22211989 209.192287 1205.84747596 196.57406616 1218.47142029 C196.04357099 1219.00215645 195.51307582 1219.53289262 194.96650504 1220.0797117 C189.67001325 1225.37858899 184.37344268 1230.6773875 179.0767545 1235.97606848 C167.70359543 1247.35354139 156.33181639 1258.73238871 144.96283478 1270.11403605 C136.67587982 1278.41018121 128.3871707 1286.70457013 120.09674311 1294.99724507 C115.60641682 1299.48891691 111.11692798 1303.98141778 106.62963104 1308.47611618 C102.52127195 1312.59122611 98.41061044 1316.70402145 94.29811454 1320.81499708 C92.8114729 1322.30191002 91.32568085 1323.78967298 89.84083009 1325.27837431 C76.3643119 1338.78821393 76.3643119 1338.78821393 70.56392002 1343.66258246 C67.53151934 1346.25580066 64.75266815 1349.11689726 61.94140625 1351.94506836 C61.28674881 1352.59957977 60.63209137 1353.25409119 59.95759583 1353.92843628 C57.82351433 1356.06320689 55.69298335 1358.20148275 53.5625 1360.33984375 C52.07199672 1361.83221478 50.58127052 1363.3243632 49.09033203 1364.81629944 C45.18867446 1368.72175413 41.2900308 1372.63020379 37.39202881 1376.53930664 C33.40511224 1380.53649798 29.41532264 1384.53081939 25.42578125 1388.52539062 C17.61438923 1396.34747042 9.80618147 1404.17272048 2 1412 C-1.75842038 1410.43457613 -4.14213588 1408.10727973 -7.00445056 1405.24394643 C-7.49774531 1404.75320785 -7.99104006 1404.26246927 -8.49928314 1403.75685983 C-10.16137452 1402.10092417 -11.81620741 1400.43791824 -13.47120285 1398.77489281 C-14.67435486 1397.57321942 -15.87794558 1396.37198517 -17.08193642 1395.17115223 C-20.40958421 1391.84966553 -23.7309249 1388.5219325 -27.05132739 1385.193205 C-30.65699487 1381.58068912 -34.26844224 1377.97395951 -37.87917733 1374.36651003 C-44.21332415 1368.03651827 -50.54373005 1361.70280435 -56.87173653 1355.36667442 C-66.28133928 1345.94502575 -75.69664509 1336.529092 -85.1131513 1327.11434363 C-100.95130866 1311.2788172 -116.78480478 1295.43863775 -132.61565399 1279.59580612 C-148.29595366 1263.90366632 -163.97831714 1248.21359376 -179.66345978 1232.52629471 C-180.15036537 1232.03932029 -180.63727097 1231.55234587 -181.13893128 1231.05061465 C-185.58598745 1226.60293209 -190.03306911 1222.15527504 -194.48018139 1217.70764859 C-205.53579074 1206.65076036 -216.59108015 1195.59355225 -227.6461525 1184.53612709 C-228.14960702 1184.03256593 -228.65306154 1183.52900478 -229.17177226 1183.01018419 C-253.66899338 1158.50771853 -278.16252777 1134.00156841 -302.65576172 1109.49511719 C-311.15672528 1100.98957035 -319.65770513 1092.4840398 -328.15875244 1083.97857666 C-328.6859797 1083.4510755 -329.21320696 1082.92357434 -329.75641081 1082.3800883 C-354.26047406 1057.86333966 -378.76715368 1033.34920699 -403.27450965 1008.83574986 C-404.86531401 1007.24454937 -406.45611724 1005.65334776 -408.04692024 1004.06214592 C-418.58915175 993.51727487 -429.13142839 982.97244893 -439.67373524 972.4276532 C-460.65076667 951.44566861 -481.62753295 930.46341895 -502.60411712 909.48098722 C-503.6031035 908.48172236 -504.60209006 907.4824577 -505.6010768 906.48319321 C-566.59096091 845.47634859 -627.57516674 784.4638282 -705 707 C-703.43457613 703.24157962 -701.10727973 700.85786412 -698.24394643 697.99554944 C-697.75320785 697.50225469 -697.26246927 697.00895994 -696.75685983 696.50071686 C-695.10092417 694.83862548 -693.43791824 693.18379259 -691.77489281 691.52879715 C-690.57321942 690.32564514 -689.37198517 689.12205442 -688.17115223 687.91806358 C-684.84966553 684.59041579 -681.5219325 681.2690751 -678.193205 677.94867261 C-674.58068912 674.34300513 -670.97395951 670.73155776 -667.36651003 667.12082267 C-661.03651827 660.78667585 -654.70280435 654.45626995 -648.36667442 648.12826347 C-638.94502575 638.71866072 -629.529092 629.30335491 -620.11434363 619.8868487 C-604.2788172 604.04869134 -588.43863775 588.21519522 -572.59580612 572.38434601 C-556.90366632 556.70404634 -541.21359376 541.02168286 -525.52629471 525.33654022 C-525.03932029 524.84963463 -524.55234587 524.36272903 -524.05061465 523.86106872 C-519.60293209 519.41401255 -515.15527504 514.96693089 -510.70764859 510.51981861 C-499.65076036 499.46420926 -488.59355225 488.40891985 -477.53612709 477.3538475 C-476.78078536 476.59866572 -476.78078536 476.59866572 -476.01018419 475.82822774 C-451.50771853 451.33100662 -427.00156841 426.83747223 -402.49511719 402.34423828 C-393.98957035 393.84327472 -385.4840398 385.34229487 -376.97857666 376.84124756 C-376.4510755 376.3140203 -375.92357434 375.78679304 -375.3800883 375.24358919 C-350.86333966 350.73952594 -326.34920699 326.23284632 -301.83574986 301.72549035 C-300.24454937 300.13468599 -298.65334776 298.54388276 -297.06214592 296.95307976 C-286.51727487 286.41084825 -275.97244893 275.86857161 -265.4276532 265.32626476 C-244.44566861 244.34923333 -223.46341895 223.37246705 -202.48098722 202.39588288 C-201.48172236 201.3968965 -200.4824577 200.39790994 -199.48319321 199.3989232 C-138.47634859 138.40903909 -77.4638282 77.42483326 0 0 Z " fill="#FECB00" transform="translate(1237,0)"/>
<path d="M0 0 C3.33546883 1.95474281 6.08244514 3.83481108 8.81233215 6.57855225 C9.89072609 7.65498993 9.89072609 7.65498993 10.99090576 8.75317383 C11.76452454 9.5355542 12.53814331 10.31793457 13.33520508 11.12402344 C14.16189194 11.95202454 14.9885788 12.78002563 15.84031677 13.63311768 C18.57134671 16.37063657 21.29533201 19.11506004 24.01953125 21.859375 C25.92024014 23.7675782 27.82261455 25.6741172 29.72502136 27.58062744 C34.22404661 32.09102219 38.71837614 36.60606253 43.2106635 41.12316728 C51.23959517 49.19639393 59.27401055 57.26415314 67.31380957 65.3265574 C70.5825222 68.60496161 73.84666949 71.88786911 77.1098175 75.17181396 C78.83196368 76.90079343 80.55422242 78.62966078 82.27661133 80.35839844 C83.04415741 81.13268188 83.81170349 81.90696533 84.60250854 82.70471191 C88.61402286 86.724585 92.72110004 90.54288681 97.02222729 94.24960899 C100.54590116 97.36817111 103.84238254 100.71205544 107.16015625 104.04663086 C108.31770668 105.20396225 108.31770668 105.20396225 109.49864197 106.38467407 C112.02230857 108.90903153 114.54242495 111.43690127 117.0625 113.96484375 C118.82204658 115.72625745 120.5818156 117.48744898 122.34179688 119.24842834 C126.95365638 123.86408988 131.56250375 128.48274759 136.17071533 133.10205078 C140.88124033 137.82338714 145.59517687 142.54131663 150.30859375 147.25976562 C159.54185568 156.50372401 168.77203344 165.75075555 178 175 C176.50849261 178.47037197 174.53386828 180.71578775 171.87190819 183.37698078 C171.00201079 184.25147698 170.13211339 185.12597317 169.23585546 186.02696925 C168.26477932 186.99303026 167.29360986 187.95899746 166.32235718 188.92488098 C165.29470668 189.95411944 164.26749419 190.98379539 163.2406832 192.01387137 C160.41474621 194.8462313 157.58259092 197.67230156 154.7493937 200.49739659 C151.69588588 203.54433404 148.64813753 206.59702291 145.59967041 209.64900208 C139.62432166 215.62939725 133.64363735 221.60442924 127.6611449 227.57767729 C120.69347833 234.5349639 113.73103777 241.49747053 106.76880284 248.46019193 C94.34233039 260.88716528 81.91102992 273.30929775 69.47705078 285.72875977 C57.41613876 297.77559752 45.35872098 309.8259182 33.30517578 321.88012695 C32.56347556 322.62186713 31.82177534 323.36360731 31.05759935 324.12782446 C29.94696315 325.23852119 29.94696315 325.23852119 28.81388986 326.37165624 C15.0912359 340.09500078 1.36529064 353.81504921 -12.36218131 367.5335742 C-17.21430843 372.3826885 -22.06546187 377.23277559 -26.91630936 382.08316994 C-32.83331548 387.9994926 -38.75221723 393.91391155 -44.67346318 399.82599095 C-47.69335182 402.84127421 -50.71246401 405.85732361 -53.72941971 408.87554169 C-56.49460366 411.64182651 -59.2621065 414.40576969 -62.03143339 417.16790684 C-63.02967954 418.16435063 -64.02710172 419.16162075 -65.02358587 420.15982661 C-73.39120118 428.54029038 -73.39120118 428.54029038 -77.71304893 432.21178722 C-84.50880993 438.05663353 -90.70512786 444.5751986 -97.03076172 450.91723633 C-98.56617507 452.45292988 -100.10181032 453.9884016 -101.63764763 455.52367115 C-105.84775874 459.73348725 -110.05475195 463.94640709 -114.26124477 468.1598382 C-118.80207481 472.70705008 -123.34581509 477.25135227 -127.88922119 481.79598999 C-135.7591992 489.66869004 -143.6272459 497.54331685 -151.49420166 505.41903687 C-162.87665961 516.81411451 -174.2624118 528.20589631 -185.64903903 539.5968076 C-190.95750258 544.90727718 -196.26580536 550.21790747 -201.57406616 555.52857971 C-202.10541361 556.06016818 -202.63676107 556.59175664 -203.18420996 557.13945385 C-215.82381425 569.78486608 -228.46184355 582.43185202 -241.09960938 595.07910156 C-241.92876785 595.90888051 -241.92876785 595.90888051 -242.77467701 596.75542267 C-251.18317898 605.17022085 -259.59159879 613.58510114 -268 622 C-276.96675027 630.97367939 -285.93353075 639.94732857 -294.90039062 648.92089844 C-295.72909875 649.75022845 -295.72909875 649.75022845 -296.57454845 650.5963126 C-309.19090518 663.22211989 -321.807713 675.84747596 -334.42593384 688.47142029 C-334.95642901 689.00215645 -335.48692418 689.53289262 -336.03349496 690.0797117 C-341.32998675 695.37858899 -346.62655732 700.6773875 -351.9232455 705.97606848 C-363.29640457 717.35354139 -374.66818361 728.73238871 -386.03716522 740.11403605 C-394.32412018 748.41018121 -402.6128293 756.70457013 -410.90325689 764.99724507 C-415.39358318 769.48891691 -419.88307202 773.98141778 -424.37036896 778.47611618 C-428.47872805 782.59122611 -432.58938956 786.70402145 -436.70188546 790.81499708 C-438.1885271 792.30191002 -439.67431915 793.78967298 -441.15916991 795.27837431 C-454.63489573 808.78741961 -454.63489573 808.78741961 -460.43978739 813.66628987 C-463.43866697 816.22980978 -466.18721921 819.05670949 -468.96679688 821.85327148 C-469.61170074 822.49802933 -470.25660461 823.14278717 -470.92105103 823.80708313 C-473.02266713 825.90938818 -475.1207327 828.01519777 -477.21875 830.12109375 C-478.686833 831.59104456 -480.15513897 833.06077272 -481.62365723 834.5302887 C-485.46613136 838.37655945 -489.3055914 842.22582506 -493.14440918 846.07574463 C-497.07100211 850.0126134 -501.00046906 853.94661131 -504.9296875 857.88085938 C-512.62259043 865.58444922 -520.31230887 873.29120935 -528 881 C-528.33 880.34 -528.66 879.68 -529 879 C-528.03543296 876.59367727 -527.005459 874.31023601 -525.87109375 871.984375 C-525.53057983 871.27008331 -525.19006592 870.55579163 -524.8392334 869.81985474 C-523.71239833 867.45977822 -522.57482176 865.10503841 -521.4375 862.75 C-520.6502149 861.10476369 -519.86384676 859.4590883 -519.07836914 857.81298828 C-517.87872109 855.29927767 -516.67848554 852.78586654 -515.47532654 850.27383423 C-511.91089222 842.83133932 -508.41451579 835.35863989 -504.9375 827.875 C-503.80163239 825.43449887 -502.6647197 822.99448602 -501.52734375 820.5546875 C-501.2434227 819.94560547 -500.95950165 819.33652344 -500.66697693 818.70898438 C-497.13133142 811.12991877 -493.56463363 803.56546178 -490 796 C-484.97895886 785.34306572 -479.97528148 774.67837555 -475 764 C-469.68764043 752.59815854 -464.34064149 741.21295965 -458.97949219 729.83398438 C-454.29911194 719.89883397 -449.6382027 709.95490819 -445 700 C-439.68764043 688.59815854 -434.34064149 677.21295965 -428.97949219 665.83398438 C-424.29911194 655.89883397 -419.6382027 645.95490819 -415 636 C-409.68764043 624.59815854 -404.34064149 613.21295965 -398.97949219 601.83398438 C-394.01200401 591.28938338 -389.06891117 580.73374825 -384.14651489 570.16802979 C-379.09689881 559.33076988 -374.00821908 548.51219131 -368.91110229 537.69720459 C-364.43009573 528.18748464 -359.97812332 518.66529451 -355.5625 509.125 C-350.23299177 497.61125897 -344.82341945 486.13669329 -339.39675903 474.66851807 C-334.72616791 464.79641302 -330.08546005 454.91200456 -325.5 445 C-320.19245466 433.52712422 -314.80339488 422.09425395 -309.39648438 410.66796875 C-304.72598658 400.79604623 -300.085374 390.91181854 -295.5 381 C-290.19245466 369.52712422 -284.80339488 358.09425395 -279.39648438 346.66796875 C-274.72598658 336.79604623 -270.085374 326.91181854 -265.5 317 C-260.19510347 305.53284994 -254.80893369 294.1055874 -249.40454102 282.68508911 C-244.07030323 271.41076241 -238.77779772 260.1184913 -233.54882812 248.79492188 C-232.60656387 246.75658068 -231.65180062 244.72396678 -230.68408871 242.6975832 C-229.49433878 240.15804643 -228.45671855 237.59911253 -227.47198582 234.97382641 C-221.6273716 220.21953384 -211.50962407 210.12282355 -200.35595167 199.19529545 C-197.64444092 196.52757298 -194.96250102 193.83037383 -192.27659607 191.13691711 C-187.63569075 186.49080573 -182.97704899 181.86314137 -178.30532646 177.24802589 C-171.5511581 170.57564387 -164.82526193 163.87532803 -158.10561908 157.16819843 C-147.19888508 146.2832706 -136.27007792 135.42079341 -125.3269043 124.57250977 C-114.70604453 114.04364895 -104.09589499 103.50418099 -93.49975586 92.95043945 C-92.84498134 92.29829217 -92.19020683 91.64614489 -91.51559066 90.97423557 C-88.2303583 87.70205499 -84.94533309 84.42966653 -81.66041076 81.15717471 C-54.47230582 54.07248709 -27.24816462 27.02425691 0 0 Z " fill="#000001" transform="translate(1768,530)"/>
<path d="M0 0 C3.1872079 2.84289639 6.14373735 5.82637484 9 9 C9.55945313 8.43152344 10.11890625 7.86304688 10.6953125 7.27734375 C23.8980607 -5.43719993 39.29882218 -10.51662937 57.39941406 -10.35400391 C74.7468674 -9.83291509 88.0419702 -2.25834561 100 10 C101.03253906 8.65808594 101.03253906 8.65808594 102.0859375 7.2890625 C104.83950824 3.99367882 107.99461695 1.63627026 111.625 -0.625 C112.23529053 -1.01107422 112.84558105 -1.39714844 113.47436523 -1.79492188 C127.42093885 -10.35953218 143.48779941 -12.21789634 159.42041016 -8.92382812 C171.89683035 -5.9157152 180.42285584 0.66044303 189 10 C189.639375 9.319375 190.27875 8.63875 190.9375 7.9375 C202.95319188 -3.97693605 216.80762431 -10.19479831 233.75 -10.4375 C248.34938487 -10.33748313 261.65888763 -6.76317177 272.75 3.125 C283.63119797 14.77609405 286.17456589 31.59294857 286.11352539 46.88256836 C286.11367142 47.84919403 286.11381744 48.8158197 286.1139679 49.81173706 C286.11327455 52.98779593 286.10550928 56.1637952 286.09765625 59.33984375 C286.09579002 61.54944324 286.09436708 63.75904314 286.09336853 65.96864319 C286.08955952 71.77020419 286.07974307 77.57173995 286.06866455 83.37329102 C286.0566121 90.34175342 286.05204049 97.31022429 286.04621124 104.27869415 C286.03653043 114.85248029 286.01736254 125.42621112 286 136 C265.87 136 245.74 136 225 136 C224.96261719 130.11285156 224.92523437 124.22570313 224.88671875 118.16015625 C224.8564236 114.41859116 224.82526562 110.67707275 224.79101562 106.93554688 C224.73679843 101.00384949 224.68568425 95.07224443 224.65356445 89.14038086 C224.62745251 84.3550858 224.58699467 79.5701028 224.53681374 74.78500175 C224.52019825 72.96431819 224.50865099 71.14358071 224.50238609 69.32283211 C224.4926868 66.76184921 224.46455939 64.20165518 224.43237305 61.64086914 C224.43452568 60.52523842 224.43452568 60.52523842 224.4367218 59.3870697 C224.3410507 53.96378641 223.35932911 48.92292434 221 44 C217.55360675 41.21006261 214.80532957 40.78255911 210.5 41 C205.81261738 41.74966557 203.20527011 43.41315011 200 47 C197.2515566 52.33988197 196.55595196 57.41592347 196.56762695 63.34375 C196.5574353 64.13495743 196.54724365 64.92616486 196.53674316 65.74134827 C196.5068169 68.32763944 196.49737877 70.91355905 196.48828125 73.5 C196.47141941 75.30461844 196.45326715 77.10922524 196.43388367 78.91381836 C196.38654093 83.64178836 196.35663009 88.36971116 196.33044434 93.09783936 C196.29529608 98.7824121 196.23832834 104.46680367 196.18505096 110.15122986 C196.10672157 118.76746305 196.05597661 127.38346207 196 136 C175.54 136 155.08 136 134 136 C133.96261719 130.01746094 133.92523437 124.03492188 133.88671875 117.87109375 C133.85643295 114.0748413 133.82528109 110.27863539 133.79101562 106.48242188 C133.73674322 100.46055475 133.68563104 94.43877969 133.65356445 88.41674805 C133.62750264 83.56014098 133.58707969 78.70384402 133.53681374 73.84742928 C133.52016451 71.99718147 133.50863814 70.14688006 133.50238609 68.29656792 C133.49272383 65.69925517 133.46463953 63.10273227 133.43237305 60.50561523 C133.43452568 59.36517258 133.43452568 59.36517258 133.4367218 58.20169067 C133.33571884 52.4305274 132.32403478 47.35778632 128.1171875 43.08984375 C124.21099859 41.07909337 120.26778746 41.39320557 116 42 C111.51964556 44.19944673 109.13687386 46.50131818 107 51 C105.69119003 54.87744427 105.82601932 58.84345753 105.79467773 62.88964844 C105.78477814 63.68027176 105.77487854 64.47089508 105.76467896 65.28547668 C105.73314339 67.89341254 105.70833799 70.5013666 105.68359375 73.109375 C105.66301736 74.91970284 105.64202071 76.73002595 105.62062073 78.54034424 C105.5654708 83.30125086 105.51603033 88.06220034 105.46777344 92.82318115 C105.40866626 98.53763 105.34247726 104.25200066 105.27747345 109.96638489 C105.179553 118.64420877 105.09063602 127.3220832 105 136 C84.87 136 64.74 136 44 136 C43.96261719 130.01746094 43.92523437 124.03492188 43.88671875 117.87109375 C43.85643295 114.0748413 43.82528109 110.27863539 43.79101562 106.48242188 C43.73674322 100.46055475 43.68563104 94.43877969 43.65356445 88.41674805 C43.62750264 83.56014098 43.58707969 78.70384402 43.53681374 73.84742928 C43.52016451 71.99718147 43.50863814 70.14688006 43.50238609 68.29656792 C43.49272383 65.69925517 43.46463953 63.10273227 43.43237305 60.50561523 C43.43380814 59.74532013 43.43524323 58.98502502 43.4367218 58.20169067 C43.33571884 52.4305274 42.32403478 47.35778632 38.1171875 43.08984375 C34.21099859 41.07909337 30.26778746 41.39320557 26 42 C21.51964556 44.19944673 19.13687386 46.50131818 17 51 C15.69119003 54.87744427 15.82601932 58.84345753 15.79467773 62.88964844 C15.78477814 63.68027176 15.77487854 64.47089508 15.76467896 65.28547668 C15.73314339 67.89341254 15.70833799 70.5013666 15.68359375 73.109375 C15.66301736 74.91970284 15.64202071 76.73002595 15.62062073 78.54034424 C15.5654708 83.30125086 15.51603033 88.06220034 15.46777344 92.82318115 C15.40866626 98.53763 15.34247726 104.25200066 15.27747345 109.96638489 C15.179553 118.64420877 15.09063602 127.3220832 15 136 C-5.13 136 -25.26 136 -46 136 C-46.03738281 130.01746094 -46.07476562 124.03492188 -46.11328125 117.87109375 C-46.14356705 114.0748413 -46.17471891 110.27863539 -46.20898438 106.48242188 C-46.26325678 100.46055475 -46.31436896 94.43877969 -46.34643555 88.41674805 C-46.37249736 83.56014098 -46.41292031 78.70384402 -46.46318626 73.84742928 C-46.47983549 71.99718147 -46.49136186 70.14688006 -46.49761391 68.29656792 C-46.50727617 65.69925517 -46.53536047 63.10273227 -46.56762695 60.50561523 C-46.56619186 59.74532013 -46.56475677 58.98502502 -46.5632782 58.20169067 C-46.66428116 52.4305274 -47.67596522 47.35778632 -51.8828125 43.08984375 C-55.78900141 41.07909337 -59.73221254 41.39320557 -64 42 C-68.48035444 44.19944673 -70.86312614 46.50131818 -73 51 C-74.30880997 54.87744427 -74.17398068 58.84345753 -74.20532227 62.88964844 C-74.21522186 63.68027176 -74.22512146 64.47089508 -74.23532104 65.28547668 C-74.26685661 67.89341254 -74.29166201 70.5013666 -74.31640625 73.109375 C-74.33698264 74.91970284 -74.35797929 76.73002595 -74.37937927 78.54034424 C-74.4345292 83.30125086 -74.48396967 88.06220034 -74.53222656 92.82318115 C-74.59133374 98.53763 -74.65752274 104.25200066 -74.72252655 109.96638489 C-74.820447 118.64420877 -74.90936398 127.3220832 -75 136 C-95.13 136 -115.26 136 -136 136 C-136 90.13 -136 44.26 -136 -3 C-117.52 -3 -99.04 -3 -80 -3 C-79.505 1.455 -79.505 1.455 -79 6 C-77.2675 4.6696875 -77.2675 4.6696875 -75.5 3.3125 C-53.79629722 -12.84174462 -23.06578082 -16.41425333 0 0 Z " fill="#000001" transform="translate(503,1633)"/>
<path d="M0 0 C12.96215248 11.7290939 20.78043576 28.13987919 23.48461914 45.27197266 C23.48461914 48.57197266 23.48461914 51.87197266 23.48461914 55.27197266 C1.37461914 55.27197266 -20.73538086 55.27197266 -43.51538086 55.27197266 C-46.51538086 49.27197266 -49.51538086 43.27197266 -52.51538086 37.27197266 C-54.29767022 36.12987448 -54.29767022 36.12987448 -56.51538086 35.27197266 C-57.78381836 34.49853516 -57.78381836 34.49853516 -59.07788086 33.70947266 C-66.23459062 30.71666676 -73.30298645 30.45666777 -80.52319336 33.33447266 C-89.59539657 37.60374476 -94.09126045 44.37169986 -97.65600586 53.48681641 C-100.30532475 62.07301809 -100.85198696 70.03521982 -100.82788086 79.02197266 C-100.84399414 80.20791016 -100.86010742 81.39384766 -100.87670898 82.61572266 C-100.8843905 96.68826342 -98.17938784 110.53610801 -88.51538086 121.27197266 C-81.04225804 126.46039076 -73.55192388 128.88389655 -64.51538086 127.27197266 C-56.31510781 124.63120676 -51.02952147 120.08846486 -47.07788086 112.51806641 C-45.16854573 108.44445651 -43.60891375 104.64610421 -42.51538086 100.27197266 C-20.73538086 100.27197266 1.04461914 100.27197266 23.48461914 100.27197266 C23.48461914 123.67889655 15.33251509 142.74308625 -0.64038086 159.89697266 C-19.58823079 178.12611104 -45.96224341 184.89195184 -71.66772461 184.45947266 C-102.04848026 182.97898913 -128.11901427 172.80391743 -149.04663086 150.58447266 C-165.75357075 131.36004867 -172.17951938 106.09450756 -171.95288086 81.08447266 C-171.94983948 80.36752228 -171.9467981 79.6505719 -171.94366455 78.91189575 C-171.75786159 49.16979605 -162.88273487 21.59995193 -141.51538086 0.27197266 C-129.3442015 -11.25658082 -113.73539345 -18.06357741 -97.51538086 -21.72802734 C-96.5653418 -21.95232422 -95.61530273 -22.17662109 -94.63647461 -22.40771484 C-62.13237016 -28.72675512 -25.31657199 -21.84632897 0 0 Z " fill="#000001" transform="translate(171.515380859375,1591.72802734375)"/>
<path d="M0 0 C21.78 0 43.56 0 66 0 C74.05236486 26.45777027 74.05236486 26.45777027 76.9375 39.4375 C77.24207163 40.77816925 77.54741215 42.11866405 77.85351562 43.45898438 C78.57647701 46.63771937 79.29203522 49.8178983 80 53 C81.46137873 48.76950312 82.67891536 44.53557371 83.76953125 40.1953125 C84.10469928 38.87496993 84.43998998 37.5546585 84.77539062 36.234375 C85.29021494 34.19736661 85.803713 32.16004548 86.31469727 30.12207031 C86.81650965 28.12462659 87.32402614 26.12868905 87.83203125 24.1328125 C88.12827393 22.95605957 88.4245166 21.77930664 88.72973633 20.56689453 C90.65034279 13.66186581 92.86221606 6.84090861 95 0 C113.48 0 131.96 0 151 0 C154.38211584 9.01897557 154.38211584 9.01897557 155.6484375 13.51171875 C155.92937256 14.5076001 156.21030762 15.50348145 156.49975586 16.52954102 C156.78858643 17.57166748 157.07741699 18.61379395 157.375 19.6875 C157.82854858 21.31353149 157.82854858 21.31353149 158.29125977 22.97241211 C161.12780913 33.25462238 163.61036366 43.60663375 166 54 C166.27674561 52.89712646 166.55349121 51.79425293 166.83862305 50.65795898 C167.88589535 46.49095834 168.94080267 42.32591967 169.99780273 38.16137695 C170.45067163 36.37282535 170.90158144 34.58377633 171.3503418 32.79418945 C172.00290194 30.19342742 172.66294578 27.59465246 173.32421875 24.99609375 C173.51715012 24.22043564 173.71008148 23.44477753 173.90885925 22.64561462 C175.8899919 14.9158276 178.45283814 7.64148558 181 0 C201.79 0 222.58 0 244 0 C241.74998693 10.12505883 241.74998693 10.12505883 240.5917511 13.98965454 C240.32986496 14.86910233 240.06797882 15.74855011 239.79815674 16.65464783 C239.51712097 17.58668533 239.23608521 18.51872284 238.9465332 19.47900391 C238.64537094 20.48700546 238.34420868 21.49500702 238.03392029 22.53355408 C237.04257931 25.84880846 236.04672761 29.16268901 235.05078125 32.4765625 C234.35269844 34.80748764 233.65488305 37.13849288 232.95732117 39.46957397 C231.11996194 45.60673131 229.27870548 51.74271289 227.43670654 57.878479 C225.95198317 62.82645527 224.46997633 67.77524302 222.98814106 72.72408485 C221.19742183 78.70434735 219.40554777 84.68426356 217.61328125 90.6640625 C217.28063074 91.77394154 216.94798023 92.88382057 216.6052494 94.02733231 C215.63756175 97.25488745 214.66912746 100.48221762 213.70043945 103.70947266 C213.42952484 104.61317093 213.15861023 105.5168692 212.87948608 106.44795227 C209.61774216 117.30831161 206.30172461 128.15147627 203 139 C181.88 139 160.76 139 139 139 C136.44752357 132.19339618 134.24315616 125.45825667 132.1875 118.5 C131.84074219 117.32977295 131.49398438 116.1595459 131.13671875 114.95385742 C127.7505124 103.38613459 124.79945768 91.72192275 122 80 C121.764021 80.9701001 121.52804199 81.9402002 121.28491211 82.93969727 C120.3762889 86.66723857 119.45888974 90.39258049 118.53930664 94.11743164 C118.14837402 95.70574409 117.75957929 97.29458483 117.37329102 98.8840332 C114.07414174 112.44816333 110.07566956 125.60851431 106 139 C84.55 139 63.1 139 41 139 C30.66764524 105.70685688 30.66764524 105.70685688 27.421875 94.8984375 C27.04756851 93.65601791 26.67326202 92.41359833 26.28761292 91.13352966 C25.30705571 87.87880399 24.32790004 84.62365883 23.3492775 81.36835098 C21.69993564 75.88221605 20.04922976 70.39649122 18.39826393 64.9108448 C17.98541099 63.53902038 17.57261846 62.16717777 17.15988731 60.7953167 C14.41995255 51.68931078 11.65997142 42.58963587 8.87890625 33.49609375 C8.26390444 31.48065987 7.64899224 29.46519865 7.03417969 27.44970703 C6.18261525 24.6581504 5.32935248 21.86718693 4.46984863 19.07806396 C3.70034002 16.58083109 2.93737038 14.08168849 2.17578125 11.58203125 C1.95177139 10.86220566 1.72776154 10.14238007 1.4969635 9.40074158 C0.48803442 6.06753828 0 3.52609066 0 0 Z " fill="#000001" transform="translate(1112,1630)"/>
<path d="M0 0 C19.47 0 38.94 0 59 0 C59.33 22.44 59.66 44.88 60 68 C62.97 65.36 65.94 62.72 69 60 C71.71408104 58.36999899 74.22647367 56.95465033 77.0625 55.625 C78.04573242 55.13193359 78.04573242 55.13193359 79.04882812 54.62890625 C91.57706114 48.54341253 106.72985715 47.96059418 120.05859375 51.890625 C134.1182593 57.19334082 143.76330198 63.52024384 151 77 C154.71776175 85.56170681 155.14881757 94.04250023 155.11352539 103.24975586 C155.11367142 104.25539581 155.11381744 105.26103577 155.1139679 106.29714966 C155.11327427 109.60307005 155.10550766 112.90893327 155.09765625 116.21484375 C155.09579012 118.51412424 155.09436714 120.81340513 155.09336853 123.11268616 C155.08955873 129.15098171 155.07974159 135.18925305 155.06866455 141.22753906 C155.05661425 148.47967274 155.05204087 155.73181455 155.04621124 162.98395538 C155.03652901 173.98932041 155.01736167 184.99463234 155 196 C134.87 196 114.74 196 94 196 C93.96261719 190.34101562 93.92523437 184.68203125 93.88671875 178.8515625 C93.85641739 175.25127252 93.82525538 171.65103068 93.79101562 168.05078125 C93.73683501 162.3452405 93.68571969 156.63979497 93.65356445 150.93408203 C93.6274191 146.33032455 93.58693843 141.72688961 93.53681374 137.12333298 C93.52022061 135.37325449 93.50865956 133.6231203 93.50238609 131.8729744 C94.03640764 116.50166071 94.03640764 116.50166071 87.4375 103.375 C81.57753797 101.03101519 76.47729258 100.99073265 70.625 103.375 C62.26554392 111.73445608 63.39592685 123.51112953 63.390625 134.4765625 C63.37562265 136.25590505 63.35889123 138.03523377 63.34051514 139.81454468 C63.29705979 144.46690557 63.27689124 149.11907868 63.26177979 153.77160645 C63.23866644 159.370306 63.18626222 164.96880075 63.13883972 170.56733704 C63.07027329 179.04494444 63.0386243 187.52196541 63 196 C42.21 196 21.42 196 0 196 C0 131.32 0 66.64 0 0 Z " fill="#000001" transform="translate(1858,1573)"/>
<path d="M0 0 C12.70241723 12.14899242 14.42858303 30.13217529 14.81445312 46.83789062 C14.84901505 49.02728478 14.87943716 51.21674724 14.90625 53.40625 C14.92465942 54.58860229 14.94306885 55.77095459 14.96203613 56.98913574 C15.02026656 60.742711 15.07322858 64.49633049 15.125 68.25 C15.43541691 90.5013804 15.94823173 111.68939039 19.625 133.75 C-0.505 133.75 -20.635 133.75 -41.375 133.75 C-42.035 130.45 -42.695 127.15 -43.375 123.75 C-44.23480469 124.34167969 -45.09460937 124.93335938 -45.98046875 125.54296875 C-64.29631113 137.8884681 -83.96618316 142.88191952 -105.9765625 139.0625 C-117.17068949 136.69642111 -128.32017955 132.12572744 -135.375 122.75 C-143.19758579 109.62891611 -145.14915278 95.72161111 -141.4453125 80.90625 C-139.83313583 76.15209399 -137.59945041 72.56745278 -134.375 68.75 C-133.84519531 68.07582031 -133.31539062 67.40164063 -132.76953125 66.70703125 C-119.1827406 51.20069401 -95.03370193 47.52903794 -75.84106445 44.62426758 C-62.29295667 42.97246082 -62.29295667 42.97246082 -51.375 35.75 C-50.8374537 30.9888756 -50.65997677 28.87020305 -53.25 24.8125 C-56.17664713 21.97193072 -56.94253743 21.77883084 -61.125 21.5 C-66.40124246 21.58602569 -69.82962877 23.24755575 -73.625 26.9375 C-75.96718162 30.38131718 -75.96718162 30.38131718 -77.375 37.75 C-96.515 37.75 -115.655 37.75 -135.375 37.75 C-134.0703749 26.0083741 -130.81882092 16.02904865 -123.375 6.75 C-122.47394531 5.62658203 -122.47394531 5.62658203 -121.5546875 4.48046875 C-110.27869891 -8.10319152 -91.81034887 -14.02742591 -75.2890625 -15.16015625 C-50.27503347 -15.93136626 -20.59369646 -16.5138132 0 0 Z M-61.0625 75.9375 C-62.05701172 76.22947266 -63.05152344 76.52144531 -64.07617188 76.82226562 C-69.91666013 78.62920311 -74.05629364 80.37399737 -78.375 84.75 C-79.80162219 87.60324437 -79.68533868 89.58454549 -79.375 92.75 C-77.57506226 95.44990662 -76.291227 97.2918865 -73.375 98.75 C-65.96748504 99.43567286 -60.31372296 99.45148901 -54.375 94.75 C-50.23744118 89.41472679 -49.24654302 85.7241549 -49.3125 79.0625 C-49.32152344 77.88300781 -49.33054687 76.70351562 -49.33984375 75.48828125 C-49.35144531 74.58464844 -49.36304688 73.68101563 -49.375 72.75 C-53.17469802 72.75 -57.4613623 74.83174698 -61.0625 75.9375 Z " fill="#000001" transform="translate(1654.375,1635.25)"/>
<path d="M0 0 C8.90821227 7.36412214 14.60802629 17.22823162 15.80293846 28.82405472 C15.89677543 31.63266966 15.90294579 34.42681106 15.87182617 37.23681641 C15.87226425 38.29166229 15.87270233 39.34650818 15.87315369 40.43331909 C15.87108027 43.88542843 15.84781754 47.33703904 15.82421875 50.7890625 C15.81861766 53.19615412 15.81434998 55.60324918 15.81135559 58.01034546 C15.79994732 64.31994203 15.77051472 70.62932866 15.73724365 76.93884277 C15.70103495 84.52307294 15.6873625 92.10737363 15.66988373 99.69166565 C15.64087509 111.19042273 15.58335928 122.68871994 15.53125 134.1875 C-4.92875 134.1875 -25.38875 134.1875 -46.46875 134.1875 C-46.52482422 125.08800781 -46.52482422 125.08800781 -46.58203125 115.8046875 C-46.61231232 111.95830508 -46.64346108 108.11196886 -46.67773438 104.265625 C-46.73203473 98.16245868 -46.78314579 92.05938375 -46.81518555 85.95605469 C-46.84122208 81.03461524 -46.88162721 76.11348312 -46.93193626 71.19223404 C-46.94860256 69.31603955 -46.96011832 67.4397919 -46.96636391 65.56353378 C-46.97600753 62.93249149 -47.00406977 60.302235 -47.03637695 57.67138672 C-47.03494186 56.8981456 -47.03350677 56.12490448 -47.0320282 55.32823181 C-47.11488062 50.54764721 -47.94982911 47.25540572 -50.46875 43.1875 C-54.23967192 39.75938916 -58.13934002 39.67578569 -63.03125 39.8359375 C-66.67671018 40.36172503 -68.7598035 41.74284096 -71.46875 44.1875 C-75.41283624 49.62761895 -75.62327154 54.51878864 -75.67407227 61.07714844 C-75.68397186 61.86777176 -75.69387146 62.65839508 -75.70407104 63.47297668 C-75.73560661 66.08091254 -75.76041201 68.6888666 -75.78515625 71.296875 C-75.80573264 73.10720284 -75.82672929 74.91752595 -75.84812927 76.72784424 C-75.9032792 81.48875086 -75.95271967 86.24970034 -76.00097656 91.01068115 C-76.06008374 96.72513 -76.12627274 102.43950066 -76.19127655 108.15388489 C-76.289197 116.83170877 -76.37811398 125.5095832 -76.46875 134.1875 C-96.59875 134.1875 -116.72875 134.1875 -137.46875 134.1875 C-137.46875 88.3175 -137.46875 42.4475 -137.46875 -4.8125 C-118.98875 -4.8125 -100.50875 -4.8125 -81.46875 -4.8125 C-80.32060003 -2.51620006 -80.16105191 -0.73551914 -79.90625 1.8125 C-79.82246094 2.62976562 -79.73867188 3.44703125 -79.65234375 4.2890625 C-79.59175781 4.91554688 -79.53117188 5.54203125 -79.46875 6.1875 C-78.6025 5.1975 -77.73625 4.2075 -76.84375 3.1875 C-56.15270972 -17.41977088 -22.72369257 -16.68321733 0 0 Z " fill="#000001" transform="translate(1099.46875,1634.8125)"/>
<path d="M0 0 C1.65982317 1.27363935 3.30638141 2.56480067 4.9375 3.875 C6.20980469 4.85146484 6.20980469 4.85146484 7.5078125 5.84765625 C19.2901156 15.67887057 26.36143338 31.26959106 29.9375 45.875 C30.27394531 47.18984375 30.27394531 47.18984375 30.6171875 48.53125 C32.52389836 57.20286652 31.9375 64.59366324 31.9375 73.875 C-1.0625 73.875 -34.0625 73.875 -68.0625 73.875 C-66.25759612 85.54664558 -66.25759612 85.54664558 -59.4140625 94.25390625 C-53.48043159 97.84663214 -46.77359362 97.6887201 -40.0625 96.875 C-36.92235413 96.02454383 -34.60203603 94.90125138 -32.0625 92.875 C-31.40109332 91.68783505 -30.77014821 90.48329575 -30.16723633 89.26538086 C-28.36706858 86.67948753 -27.4900976 85.97313946 -24.3777771 85.25881958 C-20.86123963 85.06310132 -17.40732565 85.08906593 -13.88671875 85.19140625 C-11.96627495 85.2062632 -11.96627495 85.2062632 -10.0070343 85.22142029 C-6.61456443 85.24805979 -3.22421607 85.31673658 0.16741943 85.39434814 C3.63280537 85.46615225 7.0985366 85.49796777 10.56445312 85.53320312 C17.35638609 85.61035736 24.14675079 85.72747579 30.9375 85.875 C29.30096084 100.73576973 20.44851425 111.43144323 9.375 121 C-0.69822366 128.72697592 -12.77659151 133.89927636 -25.0625 136.875 C-25.76020508 137.05015137 -26.45791016 137.22530273 -27.17675781 137.40576172 C-52.02034318 143.08704674 -79.67397685 139.12403701 -101.25 125.625 C-116.46511719 115.68197773 -126.56858047 100.87729918 -130.8125 83.1875 C-135.38045813 61.25097791 -133.30922273 38.21558728 -121.91796875 18.56640625 C-109.64548302 0.76484274 -92.42688281 -9.62411906 -71.26806641 -13.65771484 C-47.19402863 -17.16706049 -20.15590495 -14.45850249 0 0 Z M-63.5 29.625 C-66.74669243 33.83596892 -66.30510967 35.81587739 -67.0625 41.875 C-54.1925 41.875 -41.3225 41.875 -28.0625 41.875 C-29.50628427 33.2122944 -32.96485148 27.96679133 -40.0625 22.875 C-49.19713433 19.83012189 -57.39955155 22.24636235 -63.5 29.625 Z " fill="#000001" transform="translate(1477.0625,1636.125)"/>
<path d="M0 0 C14.03949981 10.78335076 23.87886371 26.70845643 26.69140625 44.30859375 C29.44950233 68.36338104 26.99995372 90.71770858 12.0078125 110.6484375 C-1.88211915 127.18407042 -22.18378714 135.22817263 -43.1875 137.75 C-44.79000402 137.86079707 -46.39470982 137.9422196 -48 138 C-49.04027344 138.03996094 -50.08054687 138.07992188 -51.15234375 138.12109375 C-75.84241453 138.59323234 -98.51483371 132.6639279 -116.7890625 115.3359375 C-132.95445664 98.25659881 -136.91847128 76.4897052 -136.3203125 53.8515625 C-135.48247193 34.9549424 -127.99654563 16.05886855 -114 3 C-82.21886238 -22.15320607 -33.04267441 -24.00453112 0 0 Z M-67.1875 33.5 C-71.81042317 42.42702405 -72.5299014 52.03661681 -72.4375 61.9375 C-72.42614014 63.64546753 -72.42614014 63.64546753 -72.41455078 65.38793945 C-72.20522916 76.05493874 -71.13984154 85.59718095 -63.5625 93.73046875 C-59.50899213 97.0239439 -56.18913842 97.44733952 -51 97 C-44.99983487 94.76464436 -42.32294536 91.49324318 -39.375 85.9375 C-34.0519085 72.38252382 -33.78619358 52.75041779 -39.10546875 39.1796875 C-41.14352771 34.87781535 -43.15341066 30.94905183 -47 28 C-55.29662781 25.2344574 -61.38389261 26.86730584 -67.1875 33.5 Z " fill="#000001" transform="translate(335,1638)"/>
<path d="M0 0 C16.33084551 12.85874492 24.59400124 30.42143923 27.53515625 50.6875 C29.5565053 72.24855654 25.16472521 93.15748295 12.0078125 110.6484375 C-1.88211915 127.18407042 -22.18378714 135.22817263 -43.1875 137.75 C-44.79000402 137.86079707 -46.39470982 137.9422196 -48 138 C-49.04027344 138.03996094 -50.08054687 138.07992188 -51.15234375 138.12109375 C-75.84241453 138.59323234 -98.51483371 132.6639279 -116.7890625 115.3359375 C-133.11200673 98.0901413 -136.54755696 76.34148005 -136.26953125 53.578125 C-135.73852871 35.17352464 -128.1060221 17.06454734 -115 4 C-84.46831285 -23.01539734 -32.61332689 -23.76660332 0 0 Z M-67.1875 33.5 C-71.75156325 42.31336352 -72.48426411 51.72693278 -72.375 61.5 C-72.38660156 62.53769531 -72.39820313 63.57539062 -72.41015625 64.64453125 C-72.37458428 74.16596221 -71.37841045 84.49598771 -65 92 C-61.53827214 95.0496174 -59.39052505 96.89303653 -54.75 97.25 C-49.53622904 96.90241527 -46.45481147 95.49637751 -42.8125 91.75 C-34.08745487 78.51200049 -34.33284719 59.88255435 -37.23828125 44.7578125 C-38.96112357 38.52023979 -41.74760394 32.02683698 -47 28 C-55.29662781 25.2344574 -61.38389261 26.86730584 -67.1875 33.5 Z " fill="#000001" transform="translate(930,1638)"/>
<path d="M0 0 C20.13 0 40.26 0 61 0 C61 18.81 61 37.62 61 57 C68.59 57 76.18 57 84 57 C84 69.87 84 82.74 84 96 C76.41 96 68.82 96 61 96 C61.05116358 102.40567979 61.11426312 108.8089782 61.20751953 115.21386719 C61.23565367 117.39022049 61.2569056 119.56667453 61.27099609 121.74316406 C61.29253006 124.88138118 61.33923506 128.01839663 61.390625 131.15625 C61.39185364 132.12115356 61.39308228 133.08605713 61.39434814 134.0802002 C61.52541279 140.19753222 62.51707638 144.88610248 66 150 C70.13398736 153.76922377 75.59500132 153.96748873 81 154 C82.98 153.67 84.96 153.34 87 153 C87 166.53 87 180.06 87 194 C65.45869386 201.18043538 41.84912397 205.24743741 20.4375 195.25 C11.11691997 190.0845295 6.56692578 183.98971463 3 174 C0.25882992 164.17724437 -0.41380659 154.78233433 -0.29296875 144.6328125 C-0.28735364 143.21793067 -0.28309264 141.80304289 -0.28010559 140.38815308 C-0.26880706 136.71550573 -0.2394751 133.04323066 -0.20599365 129.37072754 C-0.17496357 125.60267163 -0.16153088 121.83455388 -0.14648438 118.06640625 C-0.11458592 110.71075042 -0.06194686 103.35547539 0 96 C-6.27 96 -12.54 96 -19 96 C-19 83.13 -19 70.26 -19 57 C-12.73 57 -6.46 57 0 57 C0 38.19 0 19.38 0 0 Z " fill="#000001" transform="translate(1765,1573)"/>
<path d="M0 0 C20.13 0 40.26 0 61 0 C61 64.68 61 129.36 61 196 C40.87 196 20.74 196 0 196 C0 131.32 0 66.64 0 0 Z " fill="#000002" transform="translate(1681,1573)"/>
<path d="M0 0 C106.36238532 0 106.36238532 0 123.90234375 15.703125 C133.33700595 25.53003792 137.17529417 38.61135689 136.96875 52.03027344 C136.4072413 64.34252159 132.51120743 75.11239966 124.01171875 84.2421875 C120.37446451 87.42037082 116.25163153 89.74158808 112 92 C112.9178125 92.49628906 113.835625 92.99257812 114.78125 93.50390625 C128.47836052 101.02751338 138.78974531 109.27472173 143.4921875 124.9296875 C143.74355469 125.95449219 143.74355469 125.95449219 144 127 C144.18304687 127.73347656 144.36609375 128.46695312 144.5546875 129.22265625 C147.03376632 144.68427939 144.68990593 159.86639217 136 173 C125.70657773 187.10830904 110.59426617 192.80293954 94 196 C62.73429598 198.08438027 31.33510633 197 0 197 C0 131.99 0 66.98 0 0 Z M18 16 C18 39.1 18 62.2 18 86 C28.9725 86.061875 39.945 86.12375 51.25 86.1875 C54.69083008 86.21481201 58.13166016 86.24212402 61.67675781 86.27026367 C64.81136639 86.28030839 64.81136639 86.28030839 67.94598389 86.28633118 C69.32215298 86.29088214 70.69831154 86.30131471 72.07440186 86.31672668 C85.57764717 86.46015514 99.42963578 85.35033881 109.75 75.75 C117.67599419 67.33541712 118.39621142 58.28071895 118.19921875 47.203125 C117.86885941 38.11323767 114.82713088 32.81643228 108.53125 26.234375 C95.79491944 14.99181161 78.10086083 15.83378233 62.140625 15.90234375 C61.01253418 15.90335083 59.88444336 15.90435791 58.72216797 15.90539551 C54.5647681 15.91057197 50.40738287 15.92453256 46.25 15.9375 C36.9275 15.958125 27.605 15.97875 18 16 Z M18 103 C18 128.41 18 153.82 18 180 C29.09625 180.061875 40.1925 180.12375 51.625 180.1875 C55.0998291 180.21481201 58.5746582 180.24212402 62.15478516 180.27026367 C65.33060778 180.28031064 65.33060778 180.28031064 68.50643921 180.28633118 C69.89668682 180.29087106 71.28692431 180.30127904 72.67709351 180.31672668 C84.6240669 180.44258648 96.80828165 179.82969818 107.5625 174.0625 C108.49191406 173.57910156 109.42132812 173.09570312 110.37890625 172.59765625 C118.25603868 167.79624468 123.14220829 161.58001095 125.875 152.75 C128.62950996 141.02693677 127.62354122 129.70434828 121.4375 119.3125 C113.93382799 108.90299422 102.23307767 105.04462396 90 103 C87.60892099 102.91377319 85.21562763 102.88228436 82.82299805 102.88647461 C82.108718 102.88635407 81.39443796 102.88623354 80.65851307 102.88610935 C78.35954932 102.88685232 76.06066789 102.89445236 73.76171875 102.90234375 C72.33711791 102.90381508 70.91251653 102.90483461 69.48791504 102.90539551 C64.22110175 102.91062627 58.95430006 102.92458754 53.6875 102.9375 C41.910625 102.958125 30.13375 102.97875 18 103 Z " fill="#000001" transform="translate(2040,1573)"/>
<path d="M0 0 C7.81483526 7.05241231 12.3075905 14.4270824 13.17001343 25.10498428 C13.41068942 30.22199827 13.41931419 35.34027988 13.41069031 40.46207619 C13.4061692 43.38425246 13.42032952 46.30583689 13.43908691 49.22795105 C13.48185936 56.47599401 13.493129 63.72402089 13.50531006 70.97216797 C13.51684799 77.11986223 13.5404136 83.26728213 13.58000183 89.41486168 C13.5935409 92.28766391 13.58940908 95.16009178 13.58459473 98.03291321 C13.59393523 99.79644242 13.60410403 101.5599675 13.61523438 103.32348633 C13.60908615 104.11684891 13.60293793 104.91021149 13.59660339 105.72761536 C13.6495623 110.51309787 14.29311031 113.88262593 17 118 C21.10567968 119.27732257 24.63166913 119 29 119 C29 123.62 29 128.24 29 133 C21.50015862 135.22217522 13.99478137 136.69602416 6.625 133.3125 C1.55603272 130.41010744 -1.24219527 126.5438457 -3 121 C-3.37593066 119.0075675 -3.71979545 117.0081326 -4 115 C-4.37769531 115.556875 -4.75539063 116.11375 -5.14453125 116.6875 C-12.01551171 126.21354317 -20.80070023 132.48866839 -32 136 C-32.98613281 136.33644531 -32.98613281 136.33644531 -33.9921875 136.6796875 C-47.75417282 140.58873391 -64.92686649 138.83624876 -77.75 132.6796875 C-87.27590669 126.79036005 -92.53892182 118.75476115 -95.53271484 108.10498047 C-98.11947162 96.45241156 -96.46413536 83.39097927 -90.3125 73.25 C-76.89627206 54.58536993 -49.02505396 51.31066031 -28 47.8125 C-26.4882812 47.57124385 -24.97640224 47.33098886 -23.46435547 47.09179688 C-22.3840657 46.91543953 -22.3840657 46.91543953 -21.2819519 46.73551941 C-19.30778759 46.41411472 -17.33167616 46.10473613 -15.35546875 45.79614258 C-10.44366052 44.63073173 -7.80808073 43.21212109 -5 39 C-4.25631893 31.93985895 -3.99786248 24.13841362 -8 18 C-13.50330767 11.4445894 -20.65224017 7.6002342 -29.18945312 6.79296875 C-41.25237862 6.10253148 -52.56663841 6.32888335 -62.25390625 14.359375 C-69.09499922 20.78724758 -70.70698687 28.0827267 -73 37 C-78.61 37 -84.22 37 -90 37 C-89.27155408 22.9774161 -85.09191069 11.57050843 -74.8125 1.75 C-56.11782106 -14.02265349 -19.26249495 -15.13481746 0 0 Z M-72.19140625 77.98046875 C-78.45964347 84.72990397 -79.48136076 90.44408035 -79.30078125 99.55859375 C-78.68059184 106.65452717 -75.85478988 110.43769877 -70.8125 115.3125 C-62.14018698 122.44369116 -52.9976257 122.88698046 -42.10400391 122.21142578 C-33.10371013 121.30701009 -25.63113327 118.05897796 -19 112 C-18.39671875 111.49855469 -17.7934375 110.99710938 -17.171875 110.48046875 C-10.3641656 104.3979284 -5.48089949 95.02212626 -4 86 C-3.76843004 81.51712745 -3.81135122 77.04973882 -3.875 72.5625 C-3.88402344 71.35400391 -3.89304687 70.14550781 -3.90234375 68.90039062 C-3.92579832 65.93338722 -3.95862206 62.96679857 -4 60 C-23.92251043 60 -56.73786711 64.01443605 -72.19140625 77.98046875 Z " fill="#000001" transform="translate(2287,1635)"/>
<path d="M0 0 C5.94 0 11.88 0 18 0 C18.33 39.6 18.66 79.2 19 120 C27.63736636 111.90246904 36.1147175 103.94303352 44.4140625 95.5546875 C46.51205248 93.48205087 48.62807934 91.53061625 50.875 89.625 C55.46538438 85.72605427 59.62294256 81.40207581 63.85571289 77.12475586 C67.50045529 73.45644514 71.17198823 69.91229255 75.203125 66.6640625 C77.12668827 65.0030182 77.12668827 65.0030182 78.671875 62.5859375 C81.52278751 58.78079394 83.76591383 56.33363012 88.6484375 55.60449219 C95.44308287 55.21366908 102.21737173 55.50789563 109 56 C107.6874746 58.93714192 106.32796859 60.87899058 103.9453125 63.03125 C103.33631104 63.58868896 102.72730957 64.14612793 102.09985352 64.72045898 C101.44815186 65.30770752 100.7964502 65.89495605 100.125 66.5 C95.16008781 71.04485473 90.28444827 75.64033214 85.5625 80.4375 C81.93394194 84.11454922 78.22208592 87.59780854 74.28125 90.9375 C70.2775757 94.55726032 66.52479197 98.4376764 62.74658203 102.29052734 C62.16247559 102.8830127 61.57836914 103.47549805 60.9765625 104.0859375 C60.45143066 104.6226709 59.92629883 105.1594043 59.38525391 105.71240234 C58 107 58 107 56 108 C57.53515889 112.43566052 59.91913809 116.10228184 62.55859375 119.94140625 C63.01477585 120.61311859 63.47095795 121.28483093 63.94096375 121.97689819 C65.43537288 124.1751561 66.93639606 126.36880956 68.4375 128.5625 C69.48011065 130.09352115 70.52226073 131.62485604 71.56396484 133.15649414 C73.68437302 136.2729055 75.80723333 139.38762328 77.93212891 142.50097656 C80.72681116 146.59699107 83.51225512 150.69918056 86.29296875 154.8046875 C86.70267914 155.4093988 87.11238953 156.01411011 87.53451538 156.637146 C89.1221241 158.9804843 90.70956507 161.3239359 92.29650879 163.66772461 C96.18998567 169.41658713 100.09693696 175.15475612 104.06640625 180.8515625 C104.68306152 181.73980713 105.2997168 182.62805176 105.93505859 183.54321289 C107.0660082 185.16905143 108.20265403 186.79094933 109.34619141 188.40795898 C109.83394043 189.10993408 110.32168945 189.81190918 110.82421875 190.53515625 C111.45976685 191.43826538 111.45976685 191.43826538 112.1081543 192.35961914 C113 194 113 194 113 197 C96.35998542 199.20413585 96.35998542 199.20413585 91.20019531 195.81933594 C88.09014719 192.62272584 86.01551989 188.79884925 83.98095703 184.85888672 C82.58013524 182.20436777 80.892095 179.78013753 79.1875 177.3125 C78.54554688 176.34054687 77.90359375 175.36859375 77.2421875 174.3671875 C72.82200204 167.69820722 68.25707192 161.12527077 63.73193359 154.52734375 C61.99215466 151.98855161 60.2553468 149.44775334 58.51953125 146.90625 C53.05557904 138.90729801 47.59206835 130.91023486 42 123 C36.55110983 126.78601361 31.86512442 130.96592045 27.2734375 135.75390625 C25 138 25 138 21.90820312 139.87158203 C19.71141243 141.70686676 19.06532265 142.70763934 18.43374634 145.53434753 C18.20786763 148.80218506 18.16953029 152.02517027 18.1953125 155.30078125 C18.18160614 156.49229294 18.16789978 157.68380463 18.15377808 158.91142273 C18.11642688 162.71216411 18.12019694 166.51160087 18.125 170.3125 C18.10687707 172.89129651 18.08607567 175.4700757 18.0625 178.04882812 C18.01059984 184.36610456 17.99557312 190.68252203 18 197 C12.06 197 6.12 197 0 197 C0 131.99 0 66.98 0 0 Z " fill="#000001" transform="translate(2447,1573)"/>
<path d="M0 0 C12.39768967 12.00594111 14.85781466 28.53480128 15.27374268 45.08935547 C15.35566308 50.77980904 15.32725355 56.46939924 15.296875 62.16015625 C15.29313521 64.24479027 15.29029281 66.32942608 15.28829956 68.4140625 C15.28073911 73.84563224 15.26115771 79.27709147 15.2388916 84.70861816 C15.21826775 90.27317816 15.20926282 95.83775638 15.19921875 101.40234375 C15.17790309 112.28000377 15.14278476 123.15755344 15.1015625 134.03515625 C9.4915625 134.03515625 3.8815625 134.03515625 -1.8984375 134.03515625 C-1.9281665 129.96469971 -1.9281665 129.96469971 -1.95849609 125.81201172 C-2.0257031 116.79945965 -2.1033364 107.78701846 -2.18596458 98.77459526 C-2.23569797 93.31573859 -2.28202821 87.85689915 -2.3203125 82.39794922 C-2.35745758 77.11993187 -2.40389274 71.84206734 -2.45650101 66.56418228 C-2.47489098 64.56061638 -2.49005431 62.55701792 -2.50178146 60.55340195 C-2.00318697 34.78939609 -2.00318697 34.78939609 -13.1875 12.50390625 C-21.43889397 5.42051782 -31.47731071 5.40608964 -41.80859375 5.85595703 C-51.60424418 6.69591117 -59.5713487 12.25799828 -66.0859375 19.28515625 C-77.23562723 33.16167227 -77.35471957 49.63854605 -77.41015625 66.5546875 C-77.42703437 68.50910039 -77.44518874 70.46350263 -77.46455383 72.41789246 C-77.51171999 77.51897858 -77.54174412 82.62002153 -77.56799316 87.72125244 C-77.59796862 92.9438123 -77.64443987 98.16622381 -77.68945312 103.38867188 C-77.77510578 113.60410541 -77.84109081 123.81952457 -77.8984375 134.03515625 C-83.5084375 134.03515625 -89.1184375 134.03515625 -94.8984375 134.03515625 C-94.8984375 87.50515625 -94.8984375 40.97515625 -94.8984375 -6.96484375 C-89.2884375 -6.96484375 -83.6784375 -6.96484375 -77.8984375 -6.96484375 C-77.5684375 -1.02484375 -77.2384375 4.91515625 -76.8984375 11.03515625 C-75.4753125 9.02421875 -75.4753125 9.02421875 -74.0234375 6.97265625 C-66.24822993 -2.9329582 -55.42141402 -8.05452143 -43.2734375 -10.77734375 C-27.6494122 -11.64534516 -12.4616184 -10.370004 0 0 Z " fill="#000001" transform="translate(2417.8984375,1635.96484375)"/>
</svg>
