<?xml version="1.0" encoding="UTF-8"?>
<!DOCTYPE svg PUBLIC "-//W3C//DTD SVG 1.1//EN" "http://www.w3.org/Graphics/SVG/1.1/DTD/svg11.dtd">
<!-- Creator: CorelDRAW -->
<svg xmlns="http://www.w3.org/2000/svg" xml:space="preserve" width="8.5in" height="11in" version="1.1" style="shape-rendering:geometricPrecision; text-rendering:geometricPrecision; image-rendering:optimizeQuality; fill-rule:evenodd; clip-rule:evenodd"
viewBox="0 0 8500 11000"
 xmlns:xlink="http://www.w3.org/1999/xlink">
 <defs>
  <style type="text/css">
   <![CDATA[
    .fil1 {fill:#4198FF}
    .fil2 {fill:#ED1C24}
    .fil0 {fill:#4198FF;fill-rule:nonzero}
   ]]>
  </style>
 </defs>
 <g id="Layer_x0020_1">
  <metadata id="CorelCorpID_0Corel-Layer"/>
  <g id="Bank_x0020_Sumsel_x0020_Babel_x0020_Logo.cdr">
   <path class="fil0" d="M547 4775c-22,31 -64,38 -95,16 -31,-22 -38,-65 -16,-96 78,-108 153,-179 240,-219 89,-40 186,-44 305,-16 77,18 146,14 206,-15 62,-31 118,-88 168,-175 19,-33 60,-44 93,-25 33,19 44,61 25,93 -64,112 -139,188 -226,230 -89,44 -188,51 -297,25 -88,-21 -157,-19 -218,9 -63,28 -121,85 -185,173z"/>
   <path class="fil0" d="M240 5784c-22,31 -65,38 -95,16 -31,-22 -38,-65 -16,-96 78,-108 153,-179 240,-219 89,-40 186,-44 305,-16 77,19 146,14 205,-15 63,-31 119,-88 169,-175 18,-33 60,-44 93,-25 33,19 44,61 25,93 -64,112 -139,188 -226,230 -90,44 -189,51 -298,25 -88,-21 -157,-19 -217,9 -63,28 -121,85 -185,173z"/>
   <path class="fil0" d="M629 4963c-22,30 -65,37 -95,15 -31,-22 -38,-65 -16,-95 78,-108 153,-180 239,-219 90,-41 187,-45 306,-17 77,19 145,14 205,-15 63,-30 119,-88 168,-175 19,-32 61,-44 94,-25 33,19 44,61 25,94 -64,111 -140,187 -226,230 -90,43 -189,51 -298,25 -88,-22 -157,-19 -217,8 -63,28 -122,86 -185,174z"/>
   <path class="fil0" d="M322 5972c-22,30 -65,37 -96,15 -30,-22 -37,-65 -15,-95 77,-108 152,-180 239,-219 90,-41 187,-45 306,-17 77,19 145,14 205,-15 62,-30 118,-88 168,-174 19,-33 61,-45 94,-26 32,19 44,61 25,94 -64,111 -140,187 -227,230 -89,43 -188,51 -297,25 -88,-21 -157,-19 -217,8 -63,28 -122,86 -185,174z"/>
   <path class="fil0" d="M718 5167c-22,31 -65,38 -95,15 -31,-22 -38,-65 -16,-95 78,-108 153,-180 239,-219 90,-41 187,-45 306,-16 77,18 146,14 205,-16 63,-30 119,-88 168,-174 19,-33 61,-44 94,-26 33,19 44,61 25,94 -64,112 -140,188 -226,230 -90,43 -189,51 -298,25 -88,-21 -157,-19 -217,8 -63,29 -121,86 -185,174z"/>
   <path class="fil0" d="M411 6176c-22,31 -65,38 -96,15 -30,-22 -37,-64 -15,-95 77,-108 153,-180 239,-219 90,-41 187,-45 306,-16 77,18 145,14 205,-16 62,-30 118,-88 168,-174 19,-33 61,-44 94,-26 32,19 44,61 25,94 -64,112 -140,188 -227,230 -89,43 -188,51 -297,25 -88,-21 -157,-19 -217,8 -63,29 -122,86 -185,174z"/>
   <path class="fil0" d="M799 5352c-22,30 -65,37 -96,15 -31,-22 -38,-65 -15,-95 77,-108 152,-180 239,-219 90,-41 187,-45 306,-17 77,19 145,14 205,-15 62,-30 118,-88 168,-174 19,-33 61,-44 94,-26 32,19 44,61 25,94 -65,112 -140,187 -227,230 -89,43 -188,51 -297,25 -88,-21 -157,-19 -218,8 -63,29 -121,86 -184,174z"/>
   <path class="fil0" d="M492 6361c-23,30 -65,37 -96,15 -31,-22 -38,-65 -16,-95 78,-108 153,-180 240,-219 89,-41 186,-45 305,-17 78,19 146,14 206,-15 62,-30 118,-88 168,-174 19,-33 61,-44 93,-26 33,19 44,61 26,94 -65,112 -140,187 -227,230 -89,43 -188,51 -297,25 -88,-21 -157,-19 -218,8 -63,29 -121,86 -184,174z"/>
   <path class="fil1" d="M2888 4860c-3,19 -7,36 -15,53 -7,17 -17,32 -29,45 -11,14 -25,26 -40,37 -15,10 -32,19 -50,25 13,2 25,7 36,13 11,6 19,14 26,24 7,10 12,21 15,35 2,13 3,28 0,45 -2,15 -6,31 -12,47 -6,16 -15,32 -26,47 -11,16 -24,31 -40,45 -16,14 -35,26 -56,36 -21,11 -46,19 -72,25 -27,6 -58,10 -92,10l-170 0c-13,0 -22,-4 -27,-10 -5,-6 -5,-16 0,-30l178 -532c4,-14 11,-24 21,-30 9,-6 20,-9 31,-9l147 0c33,0 60,3 83,8 23,5 42,12 56,22 15,11 25,23 31,39 6,16 8,34 5,55zm-131 24c2,-9 1,-17 -1,-24 -3,-6 -6,-12 -12,-17 -6,-4 -13,-8 -23,-10 -9,-3 -21,-4 -36,-4l-67 0 -53 158 69 0c21,0 38,-3 53,-10 14,-6 26,-14 36,-24 10,-11 18,-22 24,-34 5,-12 9,-24 10,-35zm-56 259c3,-20 -3,-36 -16,-47 -13,-12 -36,-18 -69,-18l-82 0 -58 174 87 0c23,0 42,-3 58,-10 16,-6 30,-14 41,-24 11,-10 20,-22 27,-35 6,-13 10,-26 12,-40zm668 157c0,12 -1,21 -2,27 -1,7 -3,12 -8,15 -5,3 -12,5 -22,6 -9,1 -23,1 -39,1 -13,0 -23,0 -30,0 -8,-1 -14,-2 -18,-3 -3,-1 -6,-3 -7,-6 -2,-2 -2,-6 -2,-10l0 -123 -228 0 -80 120c-2,5 -5,8 -9,11 -3,3 -7,6 -13,7 -5,2 -13,3 -22,3 -9,1 -20,1 -34,1 -14,0 -25,0 -33,-1 -8,-1 -13,-3 -16,-7 -2,-3 -1,-8 2,-15 3,-7 8,-16 15,-27l369 -541c4,-6 8,-10 11,-13 4,-4 9,-6 15,-8 6,-2 14,-3 24,-3 10,-1 24,-1 40,-1 18,0 33,0 43,1 11,0 19,1 25,3 6,2 9,4 10,8 2,3 2,8 2,14l7 541zm-125 -447l-1 0 -171 259 172 0 0 -259zm712 450c-2,7 -6,14 -10,20 -4,5 -9,10 -15,14 -5,3 -11,6 -17,8 -6,2 -12,2 -19,2l-53 0c-11,0 -20,-1 -27,-3 -7,-2 -12,-6 -17,-12 -4,-5 -8,-13 -11,-23 -2,-9 -5,-22 -7,-37l-54 -273c-4,-21 -8,-42 -10,-63 -3,-22 -6,-43 -9,-64l0 0c-7,25 -14,49 -21,73 -7,24 -15,48 -24,73l-104 312c-1,3 -3,6 -6,8 -2,3 -6,5 -11,6 -5,2 -11,3 -19,4 -8,1 -17,1 -28,1 -11,0 -20,0 -27,-1 -7,-1 -12,-2 -15,-4 -4,-1 -6,-3 -7,-6 -1,-2 0,-5 1,-8l184 -550c5,-14 13,-26 24,-33 11,-7 23,-11 35,-11l65 0c11,0 19,1 27,4 7,2 12,6 17,11 4,5 8,12 11,20 3,8 5,18 7,30l53 275c4,18 7,35 10,53 2,17 5,34 8,52l1 0c7,-23 14,-47 21,-71 8,-24 15,-47 23,-70l97 -287c1,-4 2,-6 5,-9 3,-2 6,-4 11,-5 5,-2 11,-3 18,-4 7,-1 16,-1 27,-1 11,0 20,0 28,1 7,1 12,2 16,4 3,1 6,3 7,5 1,3 0,5 -1,9l-184 550zm752 -550c0,6 -3,11 -8,18 -5,6 -13,14 -23,24l-248 229 92 273c2,6 3,11 4,16 0,4 0,9 0,12 -1,5 -2,8 -5,11 -2,3 -6,6 -11,8 -5,2 -12,3 -21,4 -9,1 -20,1 -33,1 -13,0 -24,0 -32,-1 -8,-1 -14,-2 -19,-3 -4,-2 -8,-4 -10,-7 -1,-3 -3,-6 -3,-10l-90 -289 -97 291c-1,3 -3,6 -6,8 -2,3 -7,5 -12,6 -5,2 -12,3 -20,4 -8,1 -18,1 -30,1 -12,0 -23,0 -30,-1 -8,-1 -14,-2 -18,-4 -4,-1 -7,-3 -8,-6 -1,-2 -1,-5 0,-8l193 -578c1,-3 3,-6 6,-8 2,-3 6,-5 12,-6 5,-2 12,-3 20,-4 9,-1 19,-1 31,-1 12,0 22,0 29,1 8,1 14,2 18,4 4,1 7,3 8,6 1,2 1,5 0,8l-87 261 261 -259c4,-3 8,-7 12,-10 4,-2 9,-5 15,-6 6,-2 13,-3 21,-4 9,-1 19,-1 31,-1 13,0 23,0 31,1 7,1 13,2 18,4 4,2 7,4 8,6 1,3 2,5 1,9z"/>
   <path class="fil1" d="M2630 5596c0,3 -1,7 -3,12 -1,5 -3,10 -5,16 -2,6 -4,12 -7,18 -3,6 -5,12 -9,17 -3,5 -6,9 -9,12 -3,4 -7,5 -10,5 -4,0 -9,-2 -16,-6 -6,-4 -14,-9 -23,-13 -9,-5 -20,-10 -33,-14 -12,-4 -27,-6 -44,-6 -18,0 -33,2 -46,7 -14,5 -25,12 -34,20 -9,8 -17,17 -22,27 -6,10 -10,20 -11,30 -3,12 -1,22 3,31 4,10 11,18 19,26 9,7 19,15 30,22 11,7 23,15 35,23 11,8 23,16 33,26 11,9 21,20 29,32 7,12 13,26 16,42 3,16 3,35 -1,55 -6,31 -17,60 -34,86 -17,27 -39,50 -65,69 -27,20 -57,35 -92,46 -34,12 -71,17 -111,17 -21,0 -40,-2 -58,-5 -17,-3 -32,-8 -45,-13 -13,-5 -24,-10 -33,-15 -8,-6 -14,-11 -18,-16 -4,-5 -5,-12 -3,-22 0,-3 1,-7 3,-12 2,-5 4,-11 6,-17 2,-6 5,-12 7,-19 3,-6 6,-12 9,-17 3,-6 7,-10 10,-13 3,-4 7,-5 10,-5 6,0 12,2 18,7 7,5 16,11 26,17 11,6 23,12 38,17 15,5 34,8 56,8 19,0 37,-2 52,-7 16,-5 29,-12 40,-20 12,-9 21,-19 28,-30 7,-11 12,-23 14,-37 2,-12 1,-23 -3,-32 -4,-9 -10,-18 -19,-25 -8,-8 -18,-15 -29,-22 -11,-7 -22,-14 -34,-22 -11,-8 -22,-17 -33,-26 -10,-9 -20,-20 -27,-32 -8,-13 -13,-27 -16,-43 -3,-16 -3,-35 1,-56 5,-30 16,-57 32,-82 17,-25 37,-46 61,-64 24,-18 52,-32 83,-42 31,-10 64,-15 99,-15 16,0 32,1 46,4 14,2 27,5 39,9 11,4 21,8 29,13 8,4 13,8 16,11 2,3 4,7 5,10 1,4 1,8 0,13zm524 354c-15,40 -34,76 -57,107 -23,31 -49,56 -79,77 -29,21 -62,36 -97,47 -36,10 -74,15 -115,15 -43,0 -79,-5 -109,-16 -29,-11 -50,-26 -65,-47 -14,-22 -21,-48 -21,-80 1,-31 9,-68 24,-110l143 -378c2,-3 4,-6 7,-9 3,-3 7,-5 13,-7 5,-1 13,-2 21,-3 9,-1 20,-2 33,-2 12,0 22,1 30,2 8,1 14,2 18,3 5,2 7,4 8,7 1,3 1,6 0,9l-143 378c-10,26 -15,48 -16,66 -1,19 2,34 9,46 6,12 16,21 30,27 14,5 31,8 52,8 21,0 41,-3 60,-9 19,-7 36,-16 52,-29 16,-12 31,-27 43,-45 13,-18 24,-38 33,-61l144 -381c1,-3 3,-6 6,-9 3,-3 7,-5 13,-7 5,-1 12,-2 21,-3 9,-1 19,-2 32,-2 12,0 22,1 30,2 8,1 14,2 18,3 4,2 7,4 8,7 1,3 1,6 0,9l-146 385zm800 218c-1,3 -3,6 -6,9 -2,2 -6,4 -11,6 -5,2 -12,3 -20,4 -8,1 -19,1 -31,1 -13,0 -23,0 -31,-1 -7,-1 -13,-2 -17,-4 -4,-2 -7,-4 -7,-6 -1,-3 -1,-6 1,-9l195 -519 -1 0 -381 518c-6,9 -14,14 -26,17 -12,3 -28,4 -49,4 -21,0 -36,-2 -45,-6 -9,-3 -13,-8 -12,-14l17 -520 -1 0 -196 520c-1,3 -3,6 -5,9 -3,2 -7,4 -12,6 -5,2 -12,3 -20,4 -8,1 -18,1 -31,1 -12,0 -22,0 -30,-1 -8,-1 -14,-2 -18,-4 -4,-2 -6,-4 -7,-6 -1,-3 -1,-6 1,-9l214 -569c3,-8 7,-15 12,-22 4,-6 10,-12 16,-16 5,-5 12,-8 19,-10 7,-3 14,-4 22,-4l80 0c15,0 27,1 37,4 9,2 17,7 23,12 5,6 9,14 11,23 1,10 2,22 1,35l-6 380 2 0 287 -380c8,-13 17,-24 25,-33 8,-10 17,-17 26,-23 9,-6 19,-11 29,-14 11,-3 23,-4 36,-4l92 0c8,0 15,1 20,4 6,2 10,5 13,10 2,4 3,9 3,16 0,6 -2,14 -5,22l-214 569zm687 -572c-1,3 -2,7 -3,12 -1,5 -3,10 -5,16 -2,6 -5,12 -7,18 -3,6 -6,12 -9,17 -3,5 -6,9 -9,12 -4,4 -7,5 -10,5 -4,0 -10,-2 -16,-6 -6,-4 -14,-9 -23,-13 -9,-5 -20,-10 -33,-14 -13,-4 -27,-6 -44,-6 -18,0 -34,2 -47,7 -13,5 -24,12 -33,20 -10,8 -17,17 -23,27 -5,10 -9,20 -11,30 -2,12 -1,22 4,31 4,10 10,18 19,26 9,7 18,15 30,22 11,7 23,15 34,23 12,8 23,16 34,26 11,9 21,20 28,32 8,12 13,26 17,42 3,16 2,35 -1,55 -6,31 -17,60 -34,86 -18,27 -39,50 -66,69 -26,20 -56,35 -91,46 -34,12 -71,17 -111,17 -21,0 -40,-2 -58,-5 -17,-3 -33,-8 -46,-13 -13,-5 -23,-10 -32,-15 -8,-6 -15,-11 -18,-16 -4,-5 -5,-12 -3,-22 0,-3 1,-7 3,-12 1,-5 3,-11 6,-17 2,-6 4,-12 7,-19 3,-6 6,-12 9,-17 3,-6 7,-10 10,-13 3,-4 6,-5 10,-5 5,0 11,2 18,7 7,5 16,11 26,17 11,6 23,12 38,17 15,5 33,8 55,8 20,0 37,-2 53,-7 15,-5 29,-12 40,-20 12,-9 21,-19 28,-30 7,-11 12,-23 14,-37 2,-12 1,-23 -3,-32 -4,-9 -11,-18 -19,-25 -8,-8 -18,-15 -29,-22 -11,-7 -22,-14 -34,-22 -11,-8 -22,-17 -33,-26 -11,-9 -20,-20 -27,-32 -8,-13 -13,-27 -16,-43 -3,-16 -3,-35 1,-56 5,-30 16,-57 32,-82 16,-25 37,-46 61,-64 24,-18 51,-32 82,-42 31,-10 64,-15 99,-15 17,0 32,1 47,4 14,2 27,5 39,9 11,4 21,8 29,13 7,4 13,8 15,11 3,3 5,7 6,10 1,4 1,8 0,13zm521 -30c0,2 -1,5 -2,10 -2,5 -3,11 -6,17 -1,6 -4,12 -7,19 -3,7 -6,12 -9,18 -4,5 -7,10 -11,14 -5,3 -9,5 -12,5l-228 0 -59 155 193 0c5,0 8,2 9,5 2,4 2,8 1,14 -1,3 -1,6 -3,11 -1,4 -3,10 -5,16 -2,6 -4,12 -7,18 -3,7 -6,12 -9,18 -4,5 -7,9 -11,13 -4,3 -8,4 -12,4l-193 0 -68 180 231 0c4,0 6,2 8,5 1,4 1,9 0,15 0,3 -1,6 -2,11 -2,5 -3,11 -5,17 -3,6 -5,12 -8,18 -3,7 -6,12 -9,18 -4,5 -7,10 -11,13 -4,3 -8,5 -12,5l-321 0c-5,0 -10,-1 -14,-2 -4,-2 -7,-4 -9,-8 -2,-3 -3,-7 -3,-12 -1,-6 1,-12 3,-19l210 -556c5,-14 13,-25 23,-31 10,-7 21,-10 32,-10l317 0c8,0 12,6 9,19zm267 532c0,2 -1,6 -2,11 -2,5 -4,11 -6,17 -2,7 -5,14 -8,20 -3,7 -6,14 -10,19 -3,6 -7,11 -11,15 -4,3 -8,5 -12,5l-293 0c-5,0 -10,-1 -14,-2 -4,-2 -7,-4 -10,-8 -2,-3 -3,-7 -3,-12 0,-6 1,-12 4,-19l219 -580c0,-3 2,-6 6,-9 3,-2 7,-4 13,-6 6,-2 13,-3 21,-4 9,-1 20,-1 33,-1 12,0 22,0 30,1 8,1 14,2 19,4 4,2 7,4 8,6 0,3 0,6 -1,9l-193 514 201 0c5,0 8,2 9,5 1,4 1,9 0,15z"/>
   <path class="fil1" d="M6329 5677c-4,19 -10,38 -18,55 -8,17 -19,33 -32,47 -13,15 -27,27 -44,38 -16,11 -34,20 -53,27 13,2 26,7 37,13 11,7 19,15 26,26 7,10 12,22 14,36 2,14 2,29 -2,47 -2,16 -7,32 -15,49 -7,17 -17,34 -29,50 -12,16 -26,31 -44,46 -17,14 -37,27 -60,38 -22,11 -48,20 -76,26 -29,7 -61,10 -97,10l-177 0c-13,0 -23,-3 -27,-10 -5,-6 -5,-17 0,-31l210 -556c5,-14 13,-25 23,-31 10,-7 21,-10 33,-10l154 0c34,0 62,3 86,8 24,5 43,13 58,24 14,10 25,24 30,40 6,17 7,36 3,58zm-138 24c2,-9 2,-17 0,-24 -2,-7 -6,-13 -12,-18 -6,-5 -13,-8 -23,-11 -9,-3 -22,-4 -37,-4l-71 0 -62 166 72 0c22,0 40,-4 55,-11 16,-6 29,-15 40,-26 11,-10 19,-22 26,-35 6,-13 10,-25 12,-37zm-70 272c4,-21 -1,-38 -15,-50 -13,-13 -36,-19 -71,-19l-85 0 -69 182 92 0c23,0 43,-3 60,-10 17,-6 32,-15 44,-25 12,-11 22,-23 29,-37 8,-13 13,-27 15,-41zm691 164c0,12 -1,21 -3,28 -1,7 -4,12 -9,15 -5,4 -13,6 -23,7 -10,1 -24,1 -42,1 -13,0 -23,0 -31,-1 -8,0 -14,-1 -18,-3 -4,-1 -6,-3 -8,-5 -1,-3 -1,-7 -1,-11l6 -128 -239 0 -88 125c-3,5 -7,8 -10,11 -4,4 -8,6 -14,8 -6,1 -14,2 -23,3 -10,1 -22,1 -36,1 -15,0 -27,0 -35,-1 -8,-1 -13,-4 -16,-8 -2,-3 -1,-9 2,-16 4,-7 10,-16 18,-27l409 -566c5,-6 9,-10 12,-14 4,-3 10,-6 16,-8 7,-2 15,-3 26,-3 10,-1 24,-1 41,-1 19,0 34,0 45,1 11,0 20,1 26,3 6,2 9,5 10,8 2,4 2,9 2,15l-17 566zm-111 -468l0 0 -190 271 179 0 11 -271zm795 8c-3,19 -9,38 -18,55 -8,17 -19,33 -32,47 -13,15 -27,27 -44,38 -16,11 -34,20 -53,27 14,2 26,7 37,13 11,7 19,15 26,26 7,10 12,22 14,36 2,14 2,29 -1,47 -3,16 -8,32 -16,49 -7,17 -16,34 -28,50 -12,16 -27,31 -44,46 -18,14 -38,27 -61,38 -22,11 -48,20 -76,26 -28,7 -61,10 -97,10l-177 0c-13,0 -22,-3 -27,-10 -5,-6 -5,-17 0,-31l210 -556c5,-14 13,-25 23,-31 10,-7 21,-10 33,-10l154 0c34,0 62,3 86,8 24,5 43,13 58,24 15,10 25,24 30,40 6,17 7,36 3,58zm-138 24c2,-9 2,-17 0,-24 -2,-7 -6,-13 -12,-18 -6,-5 -13,-8 -23,-11 -9,-3 -22,-4 -37,-4l-71 0 -62 166 73 0c21,0 39,-4 54,-11 16,-6 29,-15 40,-26 11,-10 19,-22 26,-35 6,-13 10,-25 12,-37zm-70 272c4,-21 -1,-38 -14,-50 -14,-13 -37,-19 -71,-19l-86 0 -69 182 92 0c23,0 43,-3 60,-10 17,-6 32,-15 44,-25 12,-11 22,-23 29,-37 8,-13 13,-27 15,-41zm768 -407c0,2 -1,5 -2,10 -2,5 -4,11 -6,17 -2,6 -4,12 -7,19 -3,7 -6,12 -9,18 -4,5 -7,10 -11,14 -5,3 -9,5 -13,5l-227 0 -59 155 193 0c5,0 8,2 9,5 2,4 2,8 1,14 -1,3 -1,6 -3,11 -1,4 -3,10 -5,16 -2,6 -4,12 -7,18 -3,7 -6,12 -9,18 -4,5 -7,9 -11,13 -4,3 -8,4 -12,4l-193 0 -68 180 231 0c4,0 6,2 8,5 1,4 1,9 0,15 0,3 -1,6 -2,11 -2,5 -3,11 -6,17 -2,6 -4,12 -7,18 -3,7 -6,12 -9,18 -4,5 -7,10 -11,13 -4,3 -8,5 -12,5l-321 0c-5,0 -10,-1 -14,-2 -4,-2 -7,-4 -9,-8 -2,-3 -3,-7 -4,-12 0,-6 2,-12 4,-19l210 -556c5,-14 13,-25 23,-31 10,-7 21,-10 32,-10l317 0c8,0 11,6 9,19zm267 532c0,2 -1,6 -3,11 -1,5 -3,11 -5,17 -3,7 -5,14 -8,20 -3,7 -7,14 -10,19 -3,6 -7,11 -11,15 -4,3 -8,5 -12,5l-293 0c-5,0 -10,-1 -14,-2 -4,-2 -7,-4 -10,-8 -2,-3 -3,-7 -3,-12 0,-6 1,-12 4,-19l218 -580c1,-3 3,-6 7,-9 2,-2 7,-4 13,-6 5,-2 13,-3 21,-4 9,-1 20,-1 32,-1 13,0 23,0 31,1 8,1 14,2 19,4 4,2 6,4 7,6 1,3 1,6 0,9l-193 514 201 0c5,0 8,2 9,5 1,4 1,9 0,15z"/>
   <path class="fil2" d="M2045 6673l0 -310 94 0 56 212 55 -212 94 0 0 310 -58 0 0 -244 -61 244 -61 0 -60 -244 -1 244 -58 0zm361 -255l0 -55 60 0 0 55 -60 0zm0 255l0 -224 60 0 0 224 -60 0zm223 -224l0 47 -40 0 0 91c0,18 0,29 1,32 1,3 2,6 5,8 3,2 6,3 10,3 6,0 14,-2 24,-6l5 46c-14,6 -29,9 -47,9 -10,0 -20,-2 -29,-5 -8,-4 -15,-9 -18,-14 -5,-6 -7,-14 -9,-24 -1,-7 -2,-21 -2,-42l0 -98 -27 0 0 -47 27 0 0 -45 60 -35 0 80 40 0zm99 224l-60 0 0 -224 55 0 0 32c10,-16 18,-25 26,-30 7,-5 16,-7 25,-7 14,0 27,4 40,11l-19 52c-10,-7 -19,-10 -28,-10 -8,0 -15,2 -21,7 -6,5 -10,13 -14,25 -3,12 -4,37 -4,75l0 69zm155 -155l-53 -10c6,-22 16,-38 31,-48 15,-11 37,-16 66,-16 26,0 46,3 59,9 13,7 22,14 28,24 5,10 8,27 8,53l-1 70c0,19 1,34 2,43 2,10 6,20 11,30l-59 0c-1,-4 -3,-9 -6,-17 0,-4 -1,-6 -2,-7 -10,10 -21,17 -32,22 -12,5 -24,8 -37,8 -23,0 -41,-6 -54,-19 -14,-12 -20,-28 -20,-47 0,-13 3,-24 9,-34 6,-10 14,-18 25,-23 11,-5 27,-10 47,-14 28,-5 47,-10 58,-15l0 -6c0,-11 -3,-19 -8,-24 -6,-5 -17,-8 -32,-8 -11,0 -19,2 -25,7 -6,4 -11,11 -15,22zm80 48c-8,2 -20,6 -36,9 -17,4 -27,7 -32,10 -8,6 -12,13 -12,21 0,9 3,16 9,22 7,6 14,9 24,9 11,0 21,-4 31,-11 7,-5 12,-11 14,-19 1,-5 2,-15 2,-29l0 -12zm281 -48l-53 -10c6,-22 16,-38 31,-48 15,-11 37,-16 66,-16 26,0 46,3 59,9 13,7 22,14 28,24 5,10 8,27 8,53l-1 70c0,19 1,34 2,43 2,10 6,20 11,30l-59 0c-1,-4 -3,-9 -5,-17 -1,-4 -2,-6 -3,-7 -10,10 -21,17 -32,22 -12,5 -24,8 -37,8 -23,0 -41,-6 -54,-19 -14,-12 -20,-28 -20,-47 0,-13 3,-24 9,-34 6,-10 14,-18 25,-23 11,-5 27,-10 47,-14 28,-5 47,-10 58,-15l0 -6c0,-11 -3,-19 -8,-24 -6,-5 -17,-8 -32,-8 -11,0 -19,2 -25,7 -6,4 -11,11 -15,22zm80 48c-7,2 -20,6 -36,9 -17,4 -27,7 -32,10 -8,6 -12,13 -12,21 0,9 3,16 9,22 7,6 14,9 24,9 11,0 21,-4 31,-11 7,-5 12,-11 14,-19 1,-5 2,-15 2,-29l0 -12zm321 107l-59 0 0 -114c0,-24 -1,-40 -4,-47 -2,-7 -6,-13 -12,-17 -6,-4 -13,-6 -21,-6 -10,0 -20,3 -28,9 -8,5 -14,13 -17,22 -3,9 -5,27 -5,52l0 101 -59 0 0 -224 55 0 0 33c20,-26 45,-38 75,-38 13,0 25,2 36,7 11,5 19,11 24,18 6,7 10,16 12,25 2,9 3,23 3,40l0 139zm266 0l-54 0 0 -33c-10,13 -21,23 -33,29 -13,7 -25,10 -38,10 -26,0 -48,-10 -66,-31 -19,-21 -28,-50 -28,-87 0,-39 9,-68 27,-87 18,-20 41,-30 68,-30 25,0 47,10 65,31l0 -112 59 0 0 310zm-158 -116c0,24 3,41 10,52 10,15 23,23 40,23 14,0 25,-6 35,-17 9,-12 14,-29 14,-53 0,-26 -4,-44 -14,-56 -9,-11 -21,-17 -35,-17 -14,0 -26,6 -36,17 -9,11 -14,28 -14,51zm261 -39l-54 -10c6,-22 17,-38 32,-48 14,-11 36,-16 66,-16 26,0 46,3 59,9 13,7 22,14 27,24 5,10 8,27 8,53l-1 70c0,19 1,34 3,43 2,10 5,20 11,30l-59 0c-2,-4 -4,-9 -6,-17 -1,-4 -2,-6 -2,-7 -10,10 -21,17 -32,22 -12,5 -24,8 -37,8 -23,0 -42,-6 -55,-19 -13,-12 -20,-28 -20,-47 0,-13 3,-24 9,-34 6,-10 15,-18 26,-23 11,-5 26,-10 47,-14 28,-5 47,-10 58,-15l0 -6c0,-11 -3,-19 -9,-24 -5,-5 -16,-8 -32,-8 -10,0 -19,2 -25,7 -6,4 -10,11 -14,22zm80 48c-8,2 -20,6 -36,9 -17,4 -28,7 -33,10 -8,6 -11,13 -11,21 0,9 3,16 9,22 6,6 14,9 24,9 10,0 20,-4 30,-11 7,-5 12,-11 14,-19 2,-5 3,-15 3,-29l0 -12zm233 -117l54 0 0 30c20,-23 43,-35 70,-35 14,0 27,3 37,9 11,6 20,15 26,27 10,-12 21,-21 32,-27 12,-6 24,-9 37,-9 16,0 30,3 42,10 11,7 20,16 25,29 4,10 6,25 6,47l0 143 -59 0 0 -128c0,-22 -2,-37 -6,-43 -6,-8 -14,-13 -25,-13 -9,0 -17,3 -24,8 -7,5 -13,12 -16,22 -3,10 -5,25 -5,47l0 107 -59 0 0 -123c0,-21 -1,-36 -3,-42 -2,-6 -5,-11 -10,-14 -4,-3 -10,-5 -18,-5 -9,0 -17,3 -25,8 -7,5 -12,12 -15,21 -4,9 -5,25 -5,46l0 109 -59 0 0 -224zm519 153l59 10c-8,22 -20,39 -36,50 -17,11 -37,17 -62,17 -39,0 -68,-13 -86,-38 -15,-21 -23,-47 -23,-78 0,-37 10,-66 30,-87 19,-22 44,-32 73,-32 34,0 60,11 79,33 20,22 29,56 28,102l-149 0c1,17 6,31 15,41 9,9 20,14 34,14 9,0 17,-2 23,-7 7,-5 11,-13 15,-25zm3 -60c0,-17 -5,-30 -13,-39 -9,-9 -19,-14 -31,-14 -13,0 -24,5 -32,15 -8,9 -13,22 -12,38l88 0zm103 -93l55 0 0 30c19,-23 43,-35 70,-35 14,0 26,3 37,9 11,6 19,15 26,27 10,-12 21,-21 32,-27 11,-6 24,-9 37,-9 16,0 30,3 41,10 12,7 20,16 26,29 4,10 6,25 6,47l0 143 -59 0 0 -128c0,-22 -2,-37 -6,-43 -6,-8 -14,-13 -26,-13 -8,0 -16,3 -23,8 -8,5 -13,12 -16,22 -3,10 -5,25 -5,47l0 107 -59 0 0 -123c0,-21 -1,-36 -4,-42 -2,-6 -5,-11 -9,-14 -5,-3 -11,-5 -18,-5 -10,0 -18,3 -25,8 -7,5 -13,12 -16,21 -3,9 -5,25 -5,46l0 109 -59 0 0 -224zm387 224l0 -310 59 0 0 112c18,-21 40,-31 65,-31 28,0 50,10 68,30 18,19 27,48 27,85 0,38 -9,68 -28,89 -18,21 -40,31 -66,31 -13,0 -26,-3 -38,-10 -12,-7 -23,-16 -32,-29l0 33 -55 0zm58 -116c0,23 4,40 11,51 11,16 24,24 41,24 13,0 25,-5 34,-17 9,-11 14,-29 14,-53 0,-26 -5,-44 -14,-56 -10,-11 -21,-17 -36,-17 -14,0 -26,6 -36,17 -9,11 -14,28 -14,51zm253 -39l-54 -10c6,-22 17,-38 32,-48 14,-11 36,-16 66,-16 26,0 46,3 59,9 13,7 22,14 27,24 5,10 8,27 8,53l-1 70c0,19 1,34 3,43 2,10 5,20 11,30l-59 0c-2,-4 -4,-9 -6,-17 -1,-4 -2,-6 -2,-7 -10,10 -21,17 -33,22 -11,5 -23,8 -36,8 -23,0 -42,-6 -55,-19 -13,-12 -20,-28 -20,-47 0,-13 3,-24 9,-34 6,-10 15,-18 26,-23 11,-5 26,-10 47,-14 28,-5 47,-10 58,-15l0 -6c0,-11 -3,-19 -9,-24 -6,-5 -16,-8 -32,-8 -10,0 -19,2 -25,7 -6,4 -10,11 -14,22zm80 48c-8,2 -20,6 -37,9 -16,4 -27,7 -32,10 -8,6 -11,13 -11,21 0,9 3,16 9,22 6,6 14,9 23,9 11,0 21,-4 31,-11 7,-5 12,-11 14,-19 2,-5 3,-15 3,-29l0 -12zm321 107l-59 0 0 -114c0,-24 -2,-40 -4,-47 -3,-7 -7,-13 -13,-17 -6,-4 -12,-6 -21,-6 -10,0 -19,3 -27,9 -9,5 -14,13 -17,22 -4,9 -5,27 -5,52l0 101 -59 0 0 -224 55 0 0 33c19,-26 44,-38 74,-38 13,0 25,2 36,7 11,5 19,11 25,18 5,7 9,16 12,25 2,9 3,23 3,40l0 139zm54 15l68 8c1,8 4,13 8,16 6,5 15,7 27,7 15,0 27,-3 35,-7 5,-3 9,-8 12,-15 1,-5 2,-14 2,-28l1 -32c-18,24 -41,36 -68,36 -30,0 -54,-12 -72,-38 -14,-20 -20,-45 -20,-75 0,-38 9,-66 27,-86 18,-20 40,-30 67,-30 28,0 51,12 69,36l0 -31 56 0 0 201c0,27 -3,46 -7,59 -4,14 -10,24 -18,31 -8,8 -19,14 -32,18 -13,4 -30,6 -50,6 -38,0 -65,-6 -81,-19 -16,-14 -24,-30 -24,-50 0,-2 0,-5 0,-7zm54 -132c0,24 4,42 13,53 10,11 21,16 34,16 15,0 27,-5 37,-17 10,-11 15,-28 15,-50 0,-23 -5,-41 -14,-52 -10,-11 -22,-17 -37,-17 -14,0 -25,6 -35,17 -9,11 -13,28 -13,50zm365 117l0 -33c-8,12 -19,21 -32,28 -14,7 -28,11 -43,11 -15,0 -28,-3 -40,-10 -12,-7 -21,-16 -26,-28 -6,-12 -9,-29 -9,-50l0 -142 60 0 0 103c0,32 1,51 3,58 2,7 6,13 12,17 6,4 13,6 22,6 10,0 19,-2 28,-8 8,-5 13,-12 16,-21 3,-8 5,-28 5,-60l0 -95 59 0 0 224 -55 0zm320 0l-59 0 0 -114c0,-24 -2,-40 -4,-47 -3,-7 -7,-13 -13,-17 -5,-4 -12,-6 -20,-6 -11,0 -20,3 -28,9 -9,5 -14,13 -17,22 -3,9 -5,27 -5,52l0 101 -59 0 0 -224 55 0 0 33c20,-26 44,-38 74,-38 13,0 25,2 36,7 11,5 20,11 25,18 6,7 10,16 12,25 2,9 3,23 3,40l0 139zm386 0l-54 0 0 -33c-10,13 -21,23 -33,29 -13,7 -25,10 -38,10 -26,0 -48,-10 -66,-31 -19,-21 -28,-50 -28,-87 0,-39 9,-68 27,-87 18,-20 41,-30 68,-30 25,0 47,10 65,31l0 -112 59 0 0 310zm-158 -116c0,24 3,41 10,52 10,15 23,23 40,23 14,0 25,-6 35,-17 9,-12 14,-29 14,-53 0,-26 -4,-44 -14,-56 -9,-11 -21,-17 -35,-17 -14,0 -26,6 -36,17 -9,11 -14,28 -14,51zm261 -39l-54 -10c6,-22 17,-38 32,-48 14,-11 36,-16 66,-16 26,0 46,3 59,9 13,7 22,14 27,24 5,10 8,27 8,53l-1 70c0,19 1,34 3,43 2,10 5,20 11,30l-59 0c-2,-4 -4,-9 -6,-17 -1,-4 -2,-6 -2,-7 -10,10 -21,17 -32,22 -12,5 -24,8 -37,8 -23,0 -42,-6 -55,-19 -13,-12 -20,-28 -20,-47 0,-13 3,-24 9,-34 6,-10 15,-18 26,-23 11,-5 26,-10 47,-14 28,-5 47,-10 58,-15l0 -6c0,-11 -3,-19 -9,-24 -5,-5 -16,-8 -32,-8 -10,0 -19,2 -25,7 -6,4 -10,11 -14,22zm80 48c-8,2 -20,6 -36,9 -17,4 -28,7 -33,10 -8,6 -11,13 -11,21 0,9 3,16 9,22 6,6 14,9 24,9 10,0 20,-4 30,-11 7,-5 12,-11 14,-19 2,-5 3,-15 3,-29l0 -12zm246 36l60 10c-8,22 -20,39 -36,50 -17,11 -37,17 -62,17 -39,0 -68,-13 -86,-38 -15,-21 -23,-47 -23,-78 0,-37 10,-66 29,-87 20,-22 44,-32 74,-32 33,0 60,11 79,33 19,22 29,56 28,102l-149 0c1,17 6,31 15,41 9,9 20,14 34,14 9,0 17,-2 23,-7 6,-5 11,-13 14,-25zm4 -60c-1,-17 -5,-30 -13,-39 -9,-9 -19,-14 -31,-14 -13,0 -24,5 -32,15 -9,9 -13,22 -13,38l89 0zm164 131l-59 0 0 -224 55 0 0 32c9,-16 18,-25 25,-30 8,-5 16,-7 26,-7 14,0 27,4 39,11l-18 52c-10,-7 -20,-10 -28,-10 -8,0 -16,2 -21,7 -6,5 -11,13 -14,25 -3,12 -5,37 -5,75l0 69zm156 -155l-54 -10c6,-22 17,-38 32,-48 14,-11 36,-16 66,-16 26,0 46,3 59,9 13,7 22,14 27,24 5,10 8,27 8,53l-1 70c0,19 1,34 3,43 2,10 5,20 11,30l-59 0c-2,-4 -4,-9 -6,-17 -1,-4 -2,-6 -2,-7 -10,10 -21,17 -33,22 -11,5 -23,8 -36,8 -23,0 -42,-6 -55,-19 -13,-12 -20,-28 -20,-47 0,-13 3,-24 9,-34 6,-10 15,-18 26,-23 11,-5 26,-10 47,-14 28,-5 47,-10 58,-15l0 -6c0,-11 -3,-19 -9,-24 -6,-5 -16,-8 -32,-8 -10,0 -19,2 -25,7 -6,4 -10,11 -14,22zm80 48c-8,2 -20,6 -37,9 -16,4 -27,7 -32,10 -8,6 -11,13 -11,21 0,9 3,16 9,22 6,6 14,9 23,9 11,0 21,-4 31,-11 7,-5 12,-11 14,-19 2,-5 3,-15 3,-29l0 -12zm175 -203l0 115c19,-23 42,-34 69,-34 14,0 26,2 37,7 11,6 20,12 25,20 6,8 10,17 12,26 2,10 3,25 3,45l0 131 -59 0 0 -118c0,-24 -2,-39 -4,-45 -2,-6 -6,-11 -12,-15 -6,-4 -13,-6 -22,-6 -10,0 -18,3 -26,8 -8,4 -14,12 -18,21 -3,10 -5,24 -5,43l0 112 -59 0 0 -310 59 0z"/>
  </g>
 </g>
</svg>
