<svg xmlns="http://www.w3.org/2000/svg" version="1.1" viewBox="211.63 403.39 1576.7 1191.83">
<path d="M0 0 C2.43420414 1.88285127 4.67832222 3.8437665 6.91015625 5.9609375 C7.68488281 6.65832031 8.45960937 7.35570312 9.2578125 8.07421875 C22.20536858 20.24362455 30.26371669 37.50689473 31.1953125 55.29296875 C32.21636444 89.27474021 13.68936669 118.43388275 -8.08984375 142.9609375 C-8.66992188 143.61449219 -9.25 144.26804687 -9.84765625 144.94140625 C-36.51370452 173.14845731 -76.3974454 189.49159963 -114.08984375 194.9609375 C-114.79222168 195.07518066 -115.49459961 195.18942383 -116.21826172 195.30712891 C-184.44910623 206.24935272 -254.6621479 186.99500991 -318.4296875 164.9765625 C-319.1668399 164.72209854 -319.90399231 164.46763458 -320.66348267 164.20545959 C-324.19303654 162.98215698 -327.71423022 161.74037491 -331.22314453 160.45898438 C-331.86788223 160.22435486 -332.51261993 159.98972534 -333.17689514 159.74798584 C-334.90938928 159.11484646 -336.63948314 158.47514979 -338.36938477 157.83496094 C-341.08964327 156.80799791 -341.08964327 156.80799791 -344.08984375 156.9609375 C-344.70859375 158.75724609 -344.70859375 158.75724609 -345.33984375 160.58984375 C-352.51483445 180.99622512 -362.11238574 197.13757655 -377.08984375 212.9609375 C-378.28480469 214.25257813 -378.28480469 214.25257813 -379.50390625 215.5703125 C-391.56652676 228.17957744 -405.57290178 238.07409284 -421.08984375 245.9609375 C-421.80833496 246.3317041 -422.52682617 246.7024707 -423.26708984 247.08447266 C-436.1107041 253.65321588 -449.36017927 258.57882697 -463.08984375 262.9609375 C-463.95834961 263.24066406 -464.82685547 263.52039063 -465.72167969 263.80859375 C-495.74972343 273.33838302 -527.34779358 277.18380778 -558.77734375 277.2109375 C-559.8580867 277.21194962 -559.8580867 277.21194962 -560.96066284 277.21298218 C-630.85122278 277.11119935 -698.66332493 258.42535458 -765.35784912 239.39511108 C-791.51986064 231.93036935 -817.73440715 224.71699653 -844.08984375 217.9609375 C-844.97385864 217.73359924 -845.85787354 217.50626099 -846.76867676 217.27203369 C-867.55912554 211.93176827 -888.42002242 207.13210891 -909.46484375 202.8984375 C-910.42596069 202.70399048 -911.38707764 202.50954346 -912.37731934 202.3092041 C-926.63055856 199.409135 -926.63055856 199.409135 -941.08984375 197.9609375 C-941.34564209 198.76499023 -941.60144043 199.56904297 -941.86499023 200.39746094 C-953.86875452 237.88749776 -970.0586682 272.48769501 -997.01953125 301.703125 C-998.87413241 303.72569004 -1000.64019536 305.79577734 -1002.40234375 307.8984375 C-1022.63571088 331.01564086 -1055.31131902 354.376939 -1086.40234375 357.7734375 C-1101.99498295 358.64174798 -1115.68474581 354.3636759 -1128.08984375 344.9609375 C-1128.76660156 344.46078125 -1129.44335938 343.960625 -1130.140625 343.4453125 C-1142.44478406 333.60198525 -1148.85581182 318.31250598 -1150.80859375 302.953125 C-1153.56337996 269.73676055 -1147.20868939 237.23252401 -1125.67578125 211.0078125 C-1096.33880299 176.44158433 -1057.22606039 155.306616 -1013.08984375 145.9609375 C-1011.89633301 145.70787842 -1011.89633301 145.70787842 -1010.67871094 145.44970703 C-992.80239951 141.85042369 -974.25723522 141.76328741 -956.08984375 140.9609375 C-957.25598269 124.85577597 -964.17463429 110.03095044 -976.08984375 98.9609375 C-994.94814174 84.71690391 -1019.25948507 79.72150698 -1042.4831543 82.7722168 C-1059.93864007 85.2915484 -1075.23741997 90.26522678 -1091.08984375 97.9609375 C-1091.85022949 98.32815918 -1092.61061523 98.69538086 -1093.39404297 99.07373047 C-1111.57334419 107.96607149 -1128.35512307 119.26464564 -1144.08984375 131.9609375 C-1144.99347656 132.68410156 -1145.89710938 133.40726563 -1146.828125 134.15234375 C-1149.60333908 136.39741563 -1152.35127491 138.67131437 -1155.08984375 140.9609375 C-1155.87198242 141.61352539 -1155.87198242 141.61352539 -1156.66992188 142.27929688 C-1170.21983194 153.62154745 -1182.97090501 165.76178299 -1195.50930786 178.20516968 C-1196.50328126 179.19111024 -1197.49873093 180.17556525 -1198.49581909 181.15835571 C-1205.17739781 187.75397675 -1211.23224318 194.63064878 -1217.08984375 201.9609375 C-1218.02480856 203.06260844 -1218.96614493 204.15895554 -1219.91796875 205.24609375 C-1262.15099978 253.67784385 -1294.48463597 316.62021605 -1291.08984375 381.9609375 C-1289.76013298 393.77443276 -1285.2559642 406.04763531 -1275.85546875 413.8046875 C-1255.95456739 426.9071443 -1231.4257669 427.40543521 -1208.3878479 427.07244873 C-1202.24575804 426.98760346 -1196.10353452 426.9622211 -1189.9609375 426.94140625 C-1188.71757126 426.93703552 -1187.47420502 426.93266479 -1186.19316101 426.92816162 C-1173.74894113 426.91215365 -1161.33358681 427.29721693 -1148.90234375 427.8359375 C-1147.94138794 427.87550568 -1146.98043213 427.91507385 -1145.99035645 427.95584106 C-1135.90371268 428.37874722 -1125.85011462 428.99502794 -1115.796875 429.92578125 C-1114.53506157 430.04099625 -1114.53506157 430.04099625 -1113.24775696 430.15853882 C-1088.43508591 432.59572065 -1062.90603073 440.9521431 -1045.08984375 458.9609375 C-1044.46722656 459.55003906 -1043.84460937 460.13914062 -1043.203125 460.74609375 C-1023.06981095 481.33184182 -1019.44302013 518.148992 -1019.6875 545.15722656 C-1019.91794423 555.31510334 -1020.75473188 565.06843913 -1023.08984375 574.9609375 C-1023.28320312 575.78287598 -1023.4765625 576.60481445 -1023.67578125 577.45166016 C-1030.12550567 603.86268445 -1042.32592129 628.87210382 -1058.08984375 650.9609375 C-1058.81816406 651.98445313 -1059.54648438 653.00796875 -1060.296875 654.0625 C-1073.87795857 672.611079 -1089.5637627 689.31346122 -1108.08984375 702.9609375 C-1108.64994141 703.38181641 -1109.21003906 703.80269531 -1109.78710938 704.23632812 C-1136.75373098 724.48462186 -1168.96601595 740.19370386 -1202.08984375 746.9609375 C-1203.18554688 747.18523438 -1204.28125 747.40953125 -1205.41015625 747.640625 C-1230.98775142 752.05472535 -1260.39819273 749.1633727 -1282.08984375 733.9609375 C-1285.62405137 731.14271159 -1288.88910191 728.15050747 -1292.08984375 724.9609375 C-1292.71503906 724.35894531 -1293.34023437 723.75695313 -1293.984375 723.13671875 C-1308.97450821 707.53750563 -1313.58148697 684.81073856 -1313.3046875 663.94921875 C-1312.13717751 626.16105395 -1288.50713029 588.77392363 -1261.8828125 563.34375 C-1244.59488004 547.51438683 -1218.09836036 529.77062468 -1194.08984375 527.9609375 C-1193.35121094 527.89261719 -1192.61257813 527.82429687 -1191.8515625 527.75390625 C-1181.39215014 527.25230033 -1171.35532048 530.62932447 -1163.08984375 536.9609375 C-1156.42464758 543.02485878 -1151.62021397 551.11952739 -1150.9128418 560.24414062 C-1150.25707276 586.9765261 -1160.70064499 605.05632005 -1178.08984375 624.9609375 C-1182.13919999 628.98116168 -1185.43110994 632.08225257 -1191.27734375 632.2734375 C-1196.32505773 632.21653895 -1199.00970369 630.89863834 -1203.08984375 627.9609375 C-1206.9209877 623.87438395 -1207.37547581 619.91790913 -1207.3425293 614.40527344 C-1206.82156579 609.36576944 -1204.87928329 604.69323253 -1203.15234375 599.9609375 C-1202.55413818 598.26843872 -1202.55413818 598.26843872 -1201.94384766 596.54174805 C-1199.86909141 590.71466084 -1197.7049758 584.92884888 -1195.453125 579.16796875 C-1195.03603271 578.09224609 -1194.61894043 577.01652344 -1194.18920898 575.90820312 C-1193.39040978 573.86302232 -1192.57676009 571.82356172 -1191.74633789 569.79101562 C-1189.62107367 564.36977881 -1188.36720646 560.63285243 -1190.08984375 554.9609375 C-1194.12505191 551.75346434 -1198.26958819 551.43770117 -1203.2578125 551.6171875 C-1219.70230702 553.6132089 -1232.24937649 563.16420533 -1244.08984375 573.9609375 C-1244.97800781 574.7653125 -1245.86617187 575.5696875 -1246.78125 576.3984375 C-1261.96249126 590.84318662 -1272.5243865 609.85981542 -1278.08984375 629.9609375 C-1278.40824219 631.07597656 -1278.72664063 632.19101563 -1279.0546875 633.33984375 C-1283.7016112 651.82046659 -1281.78227671 669.43564031 -1272.08984375 685.9609375 C-1268.01242001 692.38596885 -1262.08297218 695.19788676 -1255.08984375 697.9609375 C-1222.2248896 705.30357867 -1185.33665384 686.95313771 -1158.4230957 670.10449219 C-1156.29891697 668.74209629 -1154.1909687 667.35860426 -1152.08984375 665.9609375 C-1151.36861328 665.48156738 -1150.64738281 665.00219727 -1149.90429688 664.50830078 C-1138.47178557 656.83008847 -1127.42338538 648.52316116 -1117.8203125 638.609375 C-1115.08984375 635.9609375 -1115.08984375 635.9609375 -1113.08984375 635.9609375 C-1112.84105469 635.38085938 -1112.59226562 634.80078125 -1112.3359375 634.203125 C-1110.91067307 631.63854262 -1109.30010551 630.08222962 -1107.15234375 628.0859375 C-1079.74025345 601.1555293 -1055.63828923 558.94136927 -1054.08984375 519.9609375 C-1054.04988281 519.14238281 -1054.00992187 518.32382812 -1053.96875 517.48046875 C-1053.56109064 501.24603428 -1055.70737253 483.5608211 -1066.8359375 470.98828125 C-1093.28080315 445.9728678 -1140.71546931 450.11401224 -1174.08984375 450.9609375 C-1183.39323326 451.25600666 -1192.6914333 451.68112639 -1201.98989868 452.10003662 C-1215.52542199 452.70625917 -1229.04720786 453.19648905 -1242.59750366 453.26049805 C-1244.26292335 453.26893287 -1245.92832753 453.28236165 -1247.59365845 453.30151367 C-1272.08898633 453.55737593 -1295.32867706 447.56236447 -1313.65087891 430.39550781 C-1335.05917696 409.0525897 -1342.03740628 378.14254268 -1342.28076172 348.82080078 C-1342.22500782 302.17071579 -1324.95912941 262.34706986 -1301.08984375 222.9609375 C-1300.63754395 222.20731934 -1300.18524414 221.45370117 -1299.71923828 220.67724609 C-1289.68810377 203.99524613 -1278.44712081 188.00161296 -1266.08984375 172.9609375 C-1265.64044434 172.4138916 -1265.19104492 171.8668457 -1264.72802734 171.30322266 C-1258.9087808 164.25778511 -1252.86731488 157.44369431 -1246.65234375 150.74609375 C-1244.35569125 148.24988455 -1242.12313976 145.7118954 -1239.90234375 143.1484375 C-1236.92420193 139.77922655 -1233.77671256 136.8603562 -1230.34375 133.96484375 C-1227.52761258 131.46106819 -1224.91179486 128.77697586 -1222.27734375 126.0859375 C-1217.72428559 121.46500856 -1212.99794224 117.25954627 -1207.91015625 113.22265625 C-1205.42485987 111.22960001 -1203.01199865 109.17338023 -1200.60986328 107.08154297 C-1180.5918119 89.74409458 -1157.63400034 74.06480337 -1134.08984375 61.9609375 C-1133.20570801 61.50050049 -1133.20570801 61.50050049 -1132.30371094 61.03076172 C-1094.77296607 41.73129002 -1049.78318656 37.01306511 -1009.33984375 49.51953125 C-992.98445775 54.90767238 -979.59212025 63.02794154 -967.08984375 74.9609375 C-966.48785156 75.48816406 -965.88585937 76.01539063 -965.265625 76.55859375 C-948.24411237 92.07237332 -939.86504035 116.0478151 -937.875 138.38671875 C-937.3188289 141.09462023 -937.3188289 141.09462023 -935.06420898 142.5390625 C-931.34638625 144.31634228 -927.7585492 144.81411148 -923.71484375 145.28515625 C-922.00929108 145.50631491 -920.30380904 145.72801877 -918.59838867 145.95019531 C-917.70155365 146.0631897 -916.80471863 146.17618408 -915.88070679 146.29260254 C-888.75821433 149.75071959 -862.34399333 155.31463511 -835.9765625 162.5 C-835.19684963 162.71153088 -834.41713676 162.92306175 -833.61379623 163.14100266 C-815.13591034 168.15774032 -796.74466859 173.47029455 -778.36014938 178.81720352 C-773.8224149 180.13588316 -769.2833054 181.44981448 -764.74438477 182.7644043 C-748.80676091 187.38221467 -732.87413823 192.01663705 -716.953125 196.69140625 C-572.49814539 240.01398175 -572.49814539 240.01398175 -423.29492188 210.19140625 C-413.06633954 204.48369423 -404.3931475 197.14442446 -396.08984375 188.9609375 C-395.37183594 188.25582031 -394.65382813 187.55070313 -393.9140625 186.82421875 C-384.73755298 177.16957446 -372.08984375 159.81799816 -372.08984375 145.9609375 C-387.91706084 139.49278888 -403.91095931 133.52781051 -419.96484375 127.6484375 C-422.52791846 126.7081393 -425.09074226 125.76715808 -427.65356445 124.82617188 C-431.42818559 123.44045071 -435.20299527 122.05525039 -438.97828674 120.6713562 C-445.37029205 118.32820212 -451.75928364 115.97750789 -458.140625 113.60546875 C-471.02193128 108.82518749 -483.95564817 104.21191918 -496.94302368 99.72851562 C-498.64449353 99.14085824 -500.34533806 98.55138671 -502.04550171 97.95996094 C-504.41091827 97.13852973 -506.77915393 96.32582475 -509.1484375 95.515625 C-509.84809631 95.27141815 -510.54775513 95.0272113 -511.26861572 94.77560425 C-519.43279581 92.01005411 -524.76702154 91.68465892 -532.7734375 94.43359375 C-533.60845795 94.70729294 -534.44347839 94.98099213 -535.30380249 95.26298523 C-538.05026492 96.16801598 -540.78873665 97.09493157 -543.52734375 98.0234375 C-545.4648161 98.66976064 -547.40256485 99.31525572 -549.34057617 99.95996094 C-554.31322101 101.62009797 -559.27830332 103.30168777 -564.24084473 104.99176025 C-566.91923755 105.9029004 -569.59939035 106.80862028 -572.28027344 107.71240234 C-591.84696153 114.32021486 -611.14217164 121.47327651 -630.33984375 129.0859375 C-698.53138156 156.11050415 -698.53138156 156.11050415 -731.68554688 156.20117188 C-733.82071302 156.21085078 -735.95490364 156.24192547 -738.08984375 156.2734375 C-753.97064825 156.3965472 -767.12541207 152.51126064 -778.83203125 141.41015625 C-787.74039397 131.74658631 -792.24073751 119.02163059 -792.08984375 105.9609375 C-790.56564135 87.50636379 -780.88751262 73.87792804 -767.08984375 61.9609375 C-747.92615792 47.9521161 -723.90082817 43.88128748 -700.5625 43.7578125 C-699.2215905 43.74735901 -699.2215905 43.74735901 -697.85359192 43.73669434 C-694.95312781 43.71929603 -692.05285803 43.71296421 -689.15234375 43.7109375 C-688.15519348 43.70993042 -687.15804321 43.70892334 -686.13067627 43.70788574 C-667.63317603 43.72045474 -649.44951737 44.74507365 -631.08984375 46.9609375 C-629.91405762 47.10015625 -628.73827148 47.239375 -627.52685547 47.3828125 C-605.60127475 50.0710063 -584.05529691 54.75558961 -562.83984375 60.859375 C-561.96761169 61.10975021 -561.09537964 61.36012543 -560.19671631 61.61808777 C-555.90593906 62.85466697 -551.62306537 64.11259425 -547.34863281 65.40454102 C-533.67994519 69.47547938 -524.02044674 69.65768222 -510.15234375 65.7109375 C-507.76282689 65.06231002 -505.37218709 64.41780593 -502.98046875 63.77734375 C-501.81193359 63.4642627 -500.64339844 63.15118164 -499.43945312 62.82861328 C-494.7870416 61.62346237 -490.11466237 60.58911036 -485.40234375 59.6484375 C-484.68763916 59.50180664 -483.97293457 59.35517578 -483.23657227 59.20410156 C-469.28695938 56.49654182 -455.57473474 55.58370638 -441.40234375 55.6484375 C-440.57112 55.65026031 -439.73989624 55.65208313 -438.88348389 55.65396118 C-409.82822526 55.76104102 -383.81244233 59.68466282 -361.74609375 80.1328125 C-347.4063849 94.7671729 -343.90403505 113.18943672 -342.33935547 132.84545898 C-342.2570166 133.54356689 -342.17467773 134.2416748 -342.08984375 134.9609375 C-342.05503906 135.65703125 -342.02023437 136.353125 -341.984375 137.0703125 C-341.17724313 139.28832933 -341.17724313 139.28832933 -338.22705078 140.34204102 C-336.9395485 140.77508636 -335.64573954 141.18963111 -334.34765625 141.58984375 C-333.64553009 141.82064133 -332.94340393 142.0514389 -332.22000122 142.28923035 C-329.88992404 143.05040541 -327.55291521 143.78721834 -325.21484375 144.5234375 C-323.57871591 145.0505623 -321.94297834 145.57889986 -320.30761719 146.10839844 C-316.91619449 147.20287373 -313.52155093 148.28644591 -310.12402344 149.36181641 C-306.15511233 150.61895176 -302.19433601 151.89916066 -298.23681641 153.19165039 C-225.62082323 176.88968409 -141.23391376 190.29501583 -69.81445312 154.94335938 C-44.91603675 142.19051196 -25.53093846 123.11536285 -15.08984375 96.9609375 C-14.75082031 96.15785156 -14.41179687 95.35476563 -14.0625 94.52734375 C-10.71437243 85.37785228 -10.34105637 73.41453813 -13.83984375 64.2734375 C-14.55016682 62.81592339 -15.29585857 61.37461843 -16.08984375 59.9609375 C-16.92515625 58.4140625 -16.92515625 58.4140625 -17.77734375 56.8359375 C-29.69421582 42.02036682 -47.35178732 37.38551162 -65.625 35.2734375 C-78.7334319 34.0911663 -90.40327421 36.35249888 -102.71484375 40.8984375 C-113.97929097 44.97877154 -113.97929097 44.97877154 -119.4765625 46.71875 C-120.24186279 46.96125488 -121.00716309 47.20375977 -121.7956543 47.45361328 C-127.25744831 48.66140385 -132.8357772 47.86197795 -137.83984375 45.3984375 C-142.80449481 42.17082747 -145.99148204 37.30743752 -148.46484375 32.0234375 C-150.39436173 22.56879939 -148.57312519 14.45874345 -143.39453125 6.28515625 C-112.63999117 -34.74164924 -37.94066959 -25.037964 0 0 Z M-745.83203125 107.36328125 C-749.82913216 111.96202192 -752.20628548 116.00246494 -752.52734375 122.1484375 C-752.07376918 126.10101586 -751.66140464 127.96078313 -749.08984375 130.9609375 C-735.77532748 139.94823598 -714.27338644 136.66001994 -699.48608398 133.79516602 C-667.18295966 127.1153464 -636.94009196 114.68905092 -606.62811279 102.02111816 C-602.39954664 100.25493657 -598.1683553 98.49506415 -593.9375 96.734375 C-589.21952452 94.77061338 -584.50202455 92.80576413 -579.78759766 90.83349609 C-572.57764067 87.81835416 -565.36114692 84.82602181 -558.08984375 81.9609375 C-558.08984375 81.3009375 -558.08984375 80.6409375 -558.08984375 79.9609375 C-622.73901027 64.3971 -694.97212987 54.64988492 -745.83203125 107.36328125 Z M-474.3046875 82.85546875 C-475.15905899 82.93270676 -476.01343048 83.00994476 -476.89369202 83.08952332 C-481.46193873 83.42405227 -481.46193873 83.42405227 -485.08984375 85.9609375 C-484.57891174 86.15455872 -484.06797974 86.34817993 -483.54156494 86.54766846 C-476.80692674 89.10016551 -470.07319011 91.65503473 -463.33984375 94.2109375 C-462.23515747 94.63022522 -461.13047119 95.04951294 -459.99230957 95.48150635 C-446.87887879 100.46042144 -433.77297376 105.45816142 -420.68359375 110.5 C-419.51753601 110.94911743 -418.35147827 111.39823486 -417.15008545 111.86096191 C-411.52501809 114.02837575 -405.90106252 116.19863203 -400.27832031 118.37207031 C-389.92687721 122.36833467 -379.57356981 126.32311673 -369.08984375 129.9609375 C-368.58215484 116.63771118 -371.03484842 105.95379927 -380.05859375 95.73046875 C-395.27034082 81.04231443 -419.06035365 81.43973854 -438.94702148 81.62475586 C-441.6557389 81.64846722 -444.36346935 81.64526262 -447.07226562 81.63867188 C-456.18943112 81.65275506 -465.22553785 82.00045394 -474.3046875 82.85546875 Z M-1105.6484375 222.55078125 C-1123.09447397 239.61858386 -1132.79313193 263.70342931 -1133.11279297 287.95117188 C-1132.92306781 304.5662515 -1127.94912274 320.26447229 -1115.9609375 332.0546875 C-1107.3318281 339.34080492 -1098.16975596 341.76036396 -1086.97265625 341.3984375 C-1063.37665524 338.73973316 -1040.7902191 321.77266903 -1024.08984375 305.9609375 C-1022.72019116 304.76727379 -1021.34539109 303.57948378 -1019.96484375 302.3984375 C-1012.15776605 295.56137747 -1005.56017536 288.06311641 -999.08984375 279.9609375 C-998.43113281 279.16945313 -997.77242187 278.37796875 -997.09375 277.5625 C-979.15721706 255.83655869 -962.89993829 227.74253898 -957.08984375 199.9609375 C-957.34719087 196.62823243 -957.34719087 196.62823243 -959.08984375 193.9609375 C-1007.2544251 186.54357866 -1067.88114438 187.10168515 -1105.6484375 222.55078125 Z " fill="#FFFFFF" transform="translate(1757.08984375,425.0390625)"/>
<path d="M0 0 C6.14881077 4.567688 10.45264733 9.74568483 14.34765625 16.3046875 C14.85941406 17.16320312 15.37117188 18.02171875 15.8984375 18.90625 C29.25297966 43.40683122 34.07130067 75.68559208 33.34765625 103.3046875 C33.96769531 102.79421875 34.58773437 102.28375 35.2265625 101.7578125 C37.68710753 99.73780173 40.15470485 97.72666401 42.62353516 95.71679688 C44.38781162 94.27179899 46.13928771 92.81220357 47.890625 91.3515625 C64.44627171 77.66432655 83.37079968 66.58363154 104.34765625 61.3046875 C105.18683594 61.08039063 106.02601563 60.85609375 106.890625 60.625 C124.0872498 56.73243067 142.01824769 58.52391328 157.3046875 67.30859375 C167.62757285 74.0800885 174.0490678 83.67471925 177.22265625 95.58984375 C181.78142 120.6313863 170.80751344 148.36744101 156.68334961 168.83520508 C154.63226616 171.7059353 152.49760595 174.50772547 150.34765625 177.3046875 C149.70957031 178.16707031 149.07148437 179.02945312 148.4140625 179.91796875 C137.68405385 193.80005237 124.37280326 206.77667244 110.34765625 217.3046875 C108.89125711 218.4379416 107.43560113 219.57215105 105.98046875 220.70703125 C44.20031402 268.44484197 -34.75799254 288.66149248 -111.65234375 294.3046875 C-112.85133301 294.39967529 -114.05032227 294.49466309 -115.28564453 294.5925293 C-128.88654155 295.54705264 -142.50176215 295.50103876 -156.13023758 295.49316406 C-158.31020595 295.49217255 -160.49016733 295.49318213 -162.6701355 295.49438477 C-188.52947649 295.49963603 -214.36501567 294.96317349 -240.21484375 294.3046875 C-266.41051858 293.64027917 -292.59487342 293.08403292 -318.7999382 293.05792236 C-320.85347323 293.05476269 -322.90695915 293.04772476 -324.96047974 293.03955078 C-351.12941368 292.95807268 -376.78905946 294.95839527 -402.73608398 298.28149414 C-406.37571859 298.74677363 -410.01679073 299.19925725 -413.65820312 299.65039062 C-419.3406862 300.36093574 -425.01691249 301.10830316 -430.68939209 301.89471436 C-432.57262013 302.15528996 -434.45670849 302.40977607 -436.34185791 302.65606689 C-438.62387574 302.95994108 -440.89719141 303.29828001 -443.171875 303.65234375 C-444.97748901 303.91736694 -444.97748901 303.91736694 -446.81958008 304.18774414 C-449.84224824 305.07450631 -449.84224824 305.07450631 -451.39477539 307.84179688 C-452.89593231 311.97544272 -454.13439108 316.11206073 -455.25390625 320.36328125 C-455.49149658 321.246707 -455.72908691 322.13013275 -455.97387695 323.04032898 C-456.74990193 325.93883711 -457.51471093 328.84012868 -458.27734375 331.7421875 C-458.54278992 332.74674988 -458.80823608 333.75131226 -459.08172607 334.78631592 C-479.90711558 412.5625184 -479.90711558 412.5625184 -488.65234375 492.3046875 C-488.69230469 493.58730469 -488.73226563 494.86992188 -488.7734375 496.19140625 C-489.41758375 526.66391601 -487.19948176 565.91907365 -465.08984375 589.3671875 C-459.68151081 594.27610231 -454.72964532 597.02759164 -447.31640625 597.453125 C-437.03160391 596.8800715 -429.27011769 590.69130606 -421.65234375 584.3046875 C-421.01683594 583.77230469 -420.38132812 583.23992188 -419.7265625 582.69140625 C-395.12075209 559.96479854 -382.21754758 523.33664385 -370.92993164 492.68164062 C-370.14703881 490.61227818 -369.31986579 488.55820897 -368.41967773 486.53710938 C-365.16097625 478.93562069 -365.27557871 471.7052706 -365.52362061 463.60202026 C-365.63602349 459.70267627 -365.66519808 455.8031082 -365.6875 451.90234375 C-365.69189087 451.14429947 -365.69628174 450.38625519 -365.70080566 449.60523987 C-365.73786522 420.27642946 -353.51217145 393.86975399 -333.73046875 372.59375 C-332.30210634 371.02040344 -330.93150065 369.39327669 -329.61328125 367.7265625 C-320.79459547 356.83495855 -306.65224017 347.32803019 -292.65234375 345.3046875 C-279.55484601 344.51832199 -265.99253921 344.6180342 -255.3671875 353.46875 C-247.3111544 362.09366015 -244.22894985 373.06696904 -244.4453125 384.671875 C-245.71008003 400.75589975 -252.12766222 414.11165149 -263.65234375 425.3046875 C-264.2040625 425.87703125 -264.75578125 426.449375 -265.32421875 427.0390625 C-274.08029939 435.44836767 -285.90876052 438.34735518 -297.5703125 439.7890625 C-298.25432129 439.87510742 -298.93833008 439.96115234 -299.64306641 440.04980469 C-301.63533623 440.294906 -303.63015768 440.51898836 -305.625 440.7421875 C-306.62402344 440.9278125 -307.62304688 441.1134375 -308.65234375 441.3046875 C-313.55860416 451.11720831 -309.74597278 467.87079547 -306.5559082 477.80957031 C-301.63316566 491.75434228 -294.60533233 505.30984933 -284.65234375 516.3046875 C-284.02328125 517.12195312 -283.39421875 517.93921875 -282.74609375 518.78125 C-267.51700068 537.13571665 -239.94996705 548.7920428 -216.65234375 551.3046875 C-187.06229451 553.56566155 -161.73005283 543.71419887 -139.296875 524.6640625 C-118.47669227 506.08889209 -100.59873747 480.1032516 -98.4375 451.45703125 C-97.99124406 437.6230971 -102.34830413 423.74509837 -111.65234375 413.3046875 C-116.30888226 409.95389999 -120.92141361 408.41540524 -126.65234375 409.3046875 C-134.18744171 412.06024112 -140.45096234 416.34465249 -144.83984375 423.14453125 C-146.00106619 426.23181975 -146.1110787 427.98946011 -145.65234375 431.3046875 C-143.65296946 435.59165137 -141.11794493 439.57996048 -138.65039062 443.609375 C-135.25442162 449.41581612 -133.35236695 454.48889885 -133.65234375 461.3046875 C-135.20495642 465.06364448 -137.6006295 467.63443753 -140.65234375 470.3046875 C-147.61092252 472.62421376 -154.08532343 471.97035897 -160.71484375 468.9296875 C-173.01487793 462.07863219 -180.68125399 451.6010503 -184.55859375 438.1640625 C-187.18158216 424.98009443 -184.91334446 412.37836142 -177.46484375 401.1796875 C-167.89019207 388.37282857 -156.45892386 380.54239896 -140.65234375 377.3046875 C-127.42310142 375.87843255 -117.66527156 379.04434639 -107.21875 387.11328125 C-93.53498589 398.79759125 -86.36693263 414.03850312 -84.77734375 431.8671875 C-83.08311152 465.83508667 -95.88069168 495.22376444 -118.17578125 520.31640625 C-142.86141845 547.51722181 -176.62990044 569.5018312 -214.37939453 571.44506836 C-258.38464188 572.87575623 -300.60640024 562.35496475 -333.65234375 532.3046875 C-334.31492187 531.72460938 -334.9775 531.14453125 -335.66015625 530.546875 C-343.33038227 523.4474565 -348.91407154 513.97145725 -354.65234375 505.3046875 C-354.92796143 506.03244385 -355.2035791 506.7602002 -355.48754883 507.51000977 C-366.32712753 535.9842937 -378.13690524 563.57281684 -397.65234375 587.3046875 C-398.11753418 587.88202637 -398.58272461 588.45936523 -399.06201172 589.05419922 C-412.03544001 605.1138557 -428.43395506 620.07054563 -449.65234375 623.3046875 C-469.25942334 624.71975802 -486.35297516 620.34207287 -501.44165039 607.42749023 C-527.7343523 583.73076595 -537.62487666 546.55065066 -539.65234375 512.3046875 C-540.12154569 501.97571002 -540.40833808 491.64120414 -540.65234375 481.3046875 C-541.38235596 482.40232422 -542.11236816 483.49996094 -542.86450195 484.63085938 C-545.62726117 488.78419067 -548.39165581 492.93643143 -551.15649414 497.08837891 C-552.34279852 498.87031796 -553.52868525 500.65253514 -554.71411133 502.43505859 C-562.26642778 513.79072288 -569.88049664 525.09796846 -577.65234375 536.3046875 C-578.10101807 536.95252701 -578.54969238 537.60036652 -579.01196289 538.26783752 C-579.45991211 538.91381393 -579.90786133 539.55979034 -580.36938477 540.2253418 C-580.7713356 540.8050322 -581.17328644 541.3847226 -581.5874176 541.98197937 C-592.08886174 556.9647471 -606.6659907 573.67649758 -625.65234375 577.3046875 C-638.83882727 578.32936966 -648.53432947 575.79394214 -659.01953125 567.68359375 C-680.17929539 548.56445968 -684.7337528 516.2907746 -686.65234375 489.3046875 C-686.76792368 485.80972034 -686.77041952 482.32077703 -686.75 478.82421875 C-686.74858505 477.88535324 -686.7471701 476.94648773 -686.74571228 475.97917175 C-686.74018273 473.02514246 -686.7276442 470.07119329 -686.71484375 467.1171875 C-686.70981962 465.09570423 -686.70525833 463.07421976 -686.70117188 461.05273438 C-686.69023652 456.1366886 -686.67302199 451.22070156 -686.65234375 446.3046875 C-688.24788706 448.05554418 -689.8428544 449.80691976 -691.4375 451.55859375 C-692.32574463 452.5338501 -693.21398926 453.50910645 -694.12915039 454.51391602 C-696.13988096 456.73787936 -698.12774741 458.97547347 -700.08984375 461.2421875 C-704.36228563 466.15499538 -708.78534535 470.92940589 -713.1953125 475.71826172 C-714.6542772 477.30679265 -716.10730152 478.90055246 -717.55859375 480.49609375 C-720.24232452 483.44558581 -722.94381955 486.37794097 -725.65234375 489.3046875 C-726.23113281 489.93890625 -726.80992187 490.573125 -727.40625 491.2265625 C-738.57197633 502.97995864 -755.26084508 517.17251408 -771.90625 518.36328125 C-780.93535674 518.17062606 -788.05042597 515.34809163 -794.65234375 509.3046875 C-795.25691406 508.80195312 -795.86148438 508.29921875 -796.484375 507.78125 C-805.72723109 499.52510404 -809.93666959 486.96531887 -810.83251953 474.87255859 C-812.34264333 445.49821504 -802.81903053 418.79092702 -783.24121094 396.71337891 C-768.13944344 380.18334255 -748.18596961 367.82983 -725.49609375 366.14453125 C-710.90987603 365.59991598 -697.35054696 370.27986033 -686.578125 380.16015625 C-682.7087641 384.46903887 -679.68710594 389.3893413 -676.65234375 394.3046875 C-676.23984375 393.44746094 -675.82734375 392.59023437 -675.40234375 391.70703125 C-670.99201895 382.97498193 -666.6679402 376.02016541 -657.21484375 372.3046875 C-650.28492242 370.38764741 -643.82857433 371.4976473 -637.5703125 374.9453125 C-630.6420102 379.85579967 -626.67128614 386.39523778 -624.96484375 394.6171875 C-624.0667728 405.21442466 -625.32262278 415.52670684 -626.55078125 426.04296875 C-626.74831768 427.77192568 -626.9452978 429.50094625 -627.14175415 431.23002625 C-627.65897 435.77132347 -628.18253 440.31186489 -628.70782471 444.85223389 C-629.64196486 452.9358028 -630.56558175 461.02058706 -631.48828125 469.10546875 C-631.58649233 469.96555857 -631.68470341 470.82564838 -631.78589058 471.71180153 C-632.88974013 481.39314894 -633.98626781 491.07406224 -634.921875 500.7734375 C-634.99695282 501.54218704 -635.07203064 502.31093658 -635.14938354 503.10298157 C-636.20708758 514.56754225 -636.15027729 525.73450648 -634.33984375 537.1171875 C-634.16352417 538.23806763 -634.16352417 538.23806763 -633.98364258 539.3815918 C-633.22920944 543.58761678 -632.22339227 546.87027453 -629.65234375 550.3046875 C-626.36227949 552.49806368 -624.85198271 552.64322375 -621.01171875 552.01953125 C-590.59870659 542.8049928 -568.57184618 499.21516429 -553.68310547 474.03515625 C-551.951544 471.12816721 -550.17719298 468.2478722 -548.40234375 465.3671875 C-547.75136719 464.30242187 -547.10039063 463.23765625 -546.4296875 462.140625 C-545.39867605 460.4955386 -544.34112126 458.86541434 -543.21875 457.28125 C-535.5610468 446.35530587 -533.64982442 431.36246523 -531.22753906 418.51602173 C-527.38619109 398.20146455 -523.0563672 377.99603823 -518.63090134 357.80264282 C-518.15205976 355.61589058 -517.67461476 353.4288376 -517.19754028 351.24169922 C-516.44244671 347.7812171 -515.68426524 344.32142699 -514.92335701 340.86221886 C-514.50423037 338.95499423 -514.08723046 337.04730265 -513.67027283 335.13960266 C-513.41878983 334.00210068 -513.16730682 332.86459869 -512.90820312 331.69262695 C-512.68886108 330.69584427 -512.46951904 329.69906158 -512.24353027 328.67207336 C-511.65234375 326.3046875 -511.65234375 326.3046875 -510.65234375 324.3046875 C-523.90059031 328.76233281 -537.63232148 336.86456883 -547.29296875 347.03125 C-548.65234375 348.3046875 -548.65234375 348.3046875 -550.65234375 348.3046875 C-550.91402344 348.87445312 -551.17570312 349.44421875 -551.4453125 350.03125 C-552.74176714 352.47311603 -554.27940889 354.48974332 -555.96484375 356.6796875 C-562.94328932 366.60102661 -567.16530257 379.34002767 -565.3125 391.54296875 C-563.99768565 395.83115412 -561.49938976 398.82363501 -558.65234375 402.2421875 C-554.34364842 407.44919016 -551.59751342 411.91140729 -551.68359375 418.80859375 C-552.58874577 425.54580481 -555.54750589 429.91557948 -560.65234375 434.3046875 C-567.17305702 438.65182968 -575.06958586 438.14633393 -582.65234375 437.3046875 C-586.40164853 436.14265132 -589.42698627 434.52359219 -592.65234375 432.3046875 C-593.296875 431.87027344 -593.94140625 431.43585938 -594.60546875 430.98828125 C-602.77982064 424.75089535 -606.95584399 415.23131418 -608.65234375 405.3046875 C-610.8427785 387.45670065 -602.24868755 367.74784613 -591.60546875 353.8828125 C-570.45374997 327.62450592 -540.51809022 311.45221871 -508.49438477 302.09350586 C-506.17420782 301.09993506 -505.18515166 300.33743878 -503.65234375 298.3046875 C-502.66870242 295.80386112 -501.81244888 293.36377968 -501.015625 290.8046875 C-500.5199218 289.27113783 -500.02415099 287.73761002 -499.52832031 286.20410156 C-499.27312622 285.40331177 -499.01793213 284.60252197 -498.75500488 283.77746582 C-494.35269539 270.00061068 -489.79039598 256.42087148 -483.65234375 243.3046875 C-483.33346191 242.60553223 -483.01458008 241.90637695 -482.68603516 241.18603516 C-476.60763885 227.9331383 -469.16371225 214.50369969 -456.21484375 206.8671875 C-450.76071877 205.66994055 -446.33936915 205.4611748 -441.27734375 207.9921875 C-438.16321779 210.73558418 -436.0047087 213.02372312 -435.35058594 217.25805664 C-435.20652889 219.6779483 -435.18621505 222.06806351 -435.21484375 224.4921875 C-435.22620361 225.86564331 -435.22620361 225.86564331 -435.23779297 227.2668457 C-435.71311111 247.96400159 -440.71393248 268.29867871 -445.65234375 288.3046875 C-444.21181641 288.10105591 -444.21181641 288.10105591 -442.7421875 287.89331055 C-422.04441952 285.0008233 -401.39300254 282.79536281 -380.52734375 281.5546875 C-379.54411133 281.49606537 -378.56087891 281.43744324 -377.54785156 281.37704468 C-372.05209601 281.05464709 -366.55587103 280.7412111 -361.05702209 280.47622681 C-358.50527055 280.34766086 -355.95679614 280.2018119 -353.40672302 280.04598999 C-336.47413119 279.07718633 -319.54697077 279.21807605 -302.5944767 279.29065323 C-297.00010422 279.31427795 -291.40573454 279.32719053 -285.81132507 279.33834839 C-269.91445105 279.3712984 -254.01763158 279.41215388 -238.12084961 279.47607422 C-199.12395868 279.62956973 -160.16059468 279.75064875 -121.1953125 277.984375 C-120.52354737 277.9547198 -119.85178223 277.92506459 -119.15966058 277.89451075 C-94.56676032 276.80705236 -69.93211309 275.05595786 -45.77734375 270.1171875 C-45.0356192 269.96917694 -44.29389465 269.82116638 -43.5296936 269.66867065 C16.26570265 257.71117152 73.44352544 234.81186488 117.79443359 191.80664062 C119.39909117 190.25495037 121.02336199 188.72558003 122.6484375 187.1953125 C130.60489186 179.5932036 137.1837159 171.40917429 143.34765625 162.3046875 C143.94320312 161.44359375 144.53875 160.5825 145.15234375 159.6953125 C152.62026434 148.16453356 159.38192068 131.24316602 157.34765625 117.3046875 C155.60205336 111.99239331 153.12043842 108.36416325 148.34765625 105.3046875 C139.8036598 102.45668868 131.72830945 104.98994295 123.53515625 107.8671875 C121.94586304 108.41463623 121.94586304 108.41463623 120.32446289 108.97314453 C106.68369976 113.79689539 95.20055208 121.15751769 83.34765625 129.3046875 C82.11476862 130.14610488 80.88169638 130.98725185 79.6484375 131.828125 C73.70248055 135.89320227 67.78321831 139.9946234 61.890625 144.13671875 C52.70738638 150.58284659 43.50793469 156.97637667 34.03515625 162.9921875 C33.30192139 163.46068115 32.56868652 163.9291748 31.81323242 164.41186523 C15.91900383 174.37316664 15.91900383 174.37316664 8.38671875 172.94921875 C4.18672906 171.6216358 1.39972939 169.46196796 -1.52734375 166.2421875 C-4.68231939 158.00419555 -2.26904067 150.34901962 0.16015625 142.2421875 C8.17544737 115.28595792 9.36741163 86.69594352 2.34765625 59.3046875 C2.15510254 58.54752441 1.96254883 57.79036133 1.76416016 57.01025391 C-1.06669267 46.27098683 -4.57757864 33.30667523 -14.65234375 27.3046875 C-17.29387063 27.63782534 -17.29387063 27.63782534 -19.65234375 28.3046875 C-22.57331535 36.76832242 -24.99605887 45.20060092 -26.63305664 54.00976562 C-26.80309487 54.91579277 -26.97313311 55.82181992 -27.14832401 56.75530243 C-28.83161672 65.93759593 -30.12236848 75.16227748 -31.32998466 84.41743469 C-31.72503086 87.44390759 -32.12781308 90.46927416 -32.53224182 93.49450684 C-33.39130017 99.93037675 -34.24122517 106.36743388 -35.08984375 112.8046875 C-39.50412859 146.28115652 -43.90033503 179.6024718 -51.3996582 212.56079102 C-52.10587151 215.68816433 -52.78218385 218.82122368 -53.45898438 221.95507812 C-53.91617376 223.98478015 -54.37508936 226.01409432 -54.8359375 228.04296875 C-55.02989609 228.96064529 -55.22385468 229.87832184 -55.4236908 230.82380676 C-56.88130941 237.02822827 -59.24168608 241.64953205 -63.65234375 246.3046875 C-67.12497648 248.04100386 -70.86427388 247.90659152 -74.65234375 247.3046875 C-77.40803822 245.12309605 -79.08823122 243.43291256 -80.65234375 240.3046875 C-80.7221069 223.35674351 -78.24448858 206.53712819 -76.05004883 189.76855469 C-75.24232115 183.58151974 -74.45219859 177.39218399 -73.66015625 171.203125 C-73.57414406 170.5318734 -73.48813187 169.8606218 -73.39951324 169.16902924 C-70.21202349 144.25682134 -67.70356904 119.63553393 -67.26473999 94.51782227 C-65.96465665 23.82509486 -65.96465665 23.82509486 -45.93359375 3.56640625 C-33.16849026 -8.12526809 -14.54406441 -9.29620612 0 0 Z M-273.21484375 389.6171875 C-273.83109619 390.06433105 -274.44734863 390.51147461 -275.08227539 390.97216797 C-281.20504133 395.52846105 -286.47159638 400.69709341 -291.65234375 406.3046875 C-292.37808594 407.08585937 -293.10382812 407.86703125 -293.8515625 408.671875 C-297.43716602 412.56824164 -297.43716602 412.56824164 -299.65234375 417.3046875 C-294.54772144 419.85699866 -288.40652353 418.47870925 -283.21484375 416.8046875 C-273.31692955 412.84552182 -265.66672862 405.70474231 -260.65234375 396.3046875 C-259.53858112 392.56964514 -259.48637414 391.68713921 -261.08984375 387.9921875 C-261.60546875 387.1053125 -262.12109375 386.2184375 -262.65234375 385.3046875 C-267.4138291 385.3046875 -269.54197492 386.91897801 -273.21484375 389.6171875 Z M-744.8046875 428.015625 C-757.91946632 442.72586488 -769.02512746 462.50119526 -768.953125 482.421875 C-768.65122611 485.31539942 -768.42615649 487.00033863 -766.65234375 489.3046875 C-762.54963875 490.88373547 -759.95962883 490.00055169 -756.02734375 488.3046875 C-736.70121127 479.65506479 -721.69138214 464.62903792 -708.65234375 448.3046875 C-707.6539349 447.06226765 -706.65522293 445.82009134 -705.65625 444.578125 C-703.58571203 442.00306745 -701.52778545 439.41858354 -699.4765625 436.828125 C-697.78969966 434.70384352 -696.07745935 432.64304608 -694.296875 430.59375 C-691.34810623 427.14469111 -689.76707135 425.25528758 -689.21484375 420.6796875 C-691.58074525 415.12496224 -695.56648912 411.752941 -701.0078125 409.19921875 C-718.35665526 403.00943063 -733.51763515 415.98072578 -744.8046875 428.015625 Z " fill="#FFFFFF" transform="translate(1593.65234375,895.6953125)"/>
<path d="M0 0 C6.94916704 5.51248532 10.6366507 11.78966105 12.73828125 20.37890625 C13.30153064 25.89075531 13.318467 31.3436982 13.23828125 36.87890625 C13.2317453 37.64989655 13.22520935 38.42088684 13.21847534 39.21524048 C13.07384484 53.87119402 11.6506714 67.99680063 8.73828125 82.37890625 C8.59263733 83.09822327 8.44699341 83.81754028 8.29693604 84.55865479 C-4.08741978 145.31352378 -22.93832087 207.23501716 -51.796875 262.30859375 C-52.30089844 263.28054688 -52.80492187 264.2525 -53.32421875 265.25390625 C-54.08412109 266.70410156 -54.08412109 266.70410156 -54.859375 268.18359375 C-58.58674995 276.67660965 -58.62392496 284.72125232 -58.57421875 293.87890625 C-58.57239594 294.57497986 -58.57057312 295.27105347 -58.56869507 295.98822021 C-58.41149009 332.09620763 -52.32266808 367.49425132 -43.26171875 402.37890625 C-42.98070312 403.49201172 -42.6996875 404.60511719 -42.41015625 405.75195312 C-38.71137068 420.34832888 -34.10688699 433.94752554 -27.26171875 447.37890625 C-26.94170898 448.01199707 -26.62169922 448.64508789 -26.29199219 449.29736328 C-20.88200918 459.80198804 -14.49453123 466.09612848 -3.328125 470.06640625 C8.82791538 473.58847831 20.22640706 470.32167872 31.30078125 464.81640625 C52.95846708 452.23792496 65.06154636 428.72396873 71.73828125 405.37890625 C74.45451395 393.93938778 74.76410594 383.94346796 70.36328125 372.94140625 C68.99753842 370.23511354 68.99753842 370.23511354 66.55078125 369.50390625 C65.65359375 369.44203125 65.65359375 369.44203125 64.73828125 369.37890625 C61.80082076 373.52405928 59.7812734 377.42701575 57.92578125 382.19140625 C54.62992953 390.23353928 50.04915835 398.77229921 41.73828125 402.37890625 C36.06407864 403.2030921 30.61494468 403.50114349 25.67578125 400.25390625 C22.6033116 397.86160163 21.18256799 394.96023355 19.73828125 391.37890625 C19.42495821 388.54770795 19.26085967 386.01253104 19.30078125 383.19140625 C19.31214111 382.06702148 19.31214111 382.06702148 19.32373047 380.91992188 C19.64525211 370.0022674 23.93677375 360.62668356 31.36328125 352.62890625 C39.15100414 345.41805172 48.20571731 343.04183126 58.57421875 343.16796875 C67.93924666 343.79230394 75.06164798 347.34503016 81.42578125 354.1953125 C90.4025123 365.30401717 91.79640922 378.5434397 90.73828125 392.37890625 C87.06273547 421.78958785 73.87347558 446.97163286 53.73828125 468.37890625 C53.12726563 469.06597656 52.51625 469.75304688 51.88671875 470.4609375 C38.90099556 484.46894102 18.91654341 493.57022835 -0.07421875 494.58203125 C-27.00612746 495.09272576 -49.02054743 483.75649255 -68.26171875 465.37890625 C-96.00649409 436.78849915 -101.67935587 394.67335742 -110.26171875 357.37890625 C-113.32323212 360.41097898 -116.18513498 363.4098037 -118.82421875 366.81640625 C-137.37553334 390.28663001 -159.15268534 413.05391755 -189.76171875 419.06640625 C-206.02509893 420.51849377 -220.38601319 416.76240888 -233.10546875 406.3046875 C-249.71053651 391.47443676 -254.22655533 371.47900421 -256.9362793 350.2355957 C-257.18556139 348.29282298 -257.18556139 348.29282298 -258.26171875 346.37890625 C-262.20953733 350.23443816 -266.07801803 354.09522663 -269.63671875 358.31640625 C-285.26422765 376.32658467 -309.01881396 392.75706903 -333.19921875 395.31640625 C-345.05573985 395.82566211 -355.02396743 392.93016021 -364.26171875 385.37890625 C-373.01848536 376.74984249 -375.1608518 364.75570025 -375.57421875 352.94140625 C-375.40072066 334.80121699 -368.50288484 319.49675928 -355.6875 306.77636719 C-355.21699219 306.31520508 -354.74648438 305.85404297 -354.26171875 305.37890625 C-353.37484375 304.50492188 -352.48796875 303.6309375 -351.57421875 302.73046875 C-347.11253901 298.52723997 -343.25187306 294.96121116 -337.26171875 293.37890625 C-330.95137392 293.68925108 -330.95137392 293.68925108 -328.26171875 296.37890625 C-328.2058284 300.95073719 -329.06937298 303.57142867 -332.17578125 306.80859375 C-333.4002467 307.97036417 -334.63788495 309.11837101 -335.88671875 310.25390625 C-337.16969409 311.48513433 -338.44967014 312.71949572 -339.7265625 313.95703125 C-340.33999512 314.54677734 -340.95342773 315.13652344 -341.58544922 315.74414062 C-349.30874743 323.27621241 -352.94434485 330.55365605 -353.38671875 341.4609375 C-353.09702869 348.51308001 -351.49667861 354.64729827 -347.26171875 360.37890625 C-344.04648702 362.98329134 -344.04648702 362.98329134 -340.26171875 363.37890625 C-317.13209248 359.08556386 -297.75447051 341.01506308 -283.26171875 323.37890625 C-282.47023438 322.47527344 -281.67875 321.57164062 -280.86328125 320.640625 C-263.29937797 300.54003497 -249.09662249 277.60592627 -234.82421875 255.12890625 C-220.52375427 232.67334897 -205.03406314 212.66297547 -180.13671875 201.56640625 C-179.4921875 201.27636719 -178.84765625 200.98632812 -178.18359375 200.6875 C-164.41876721 194.78032748 -147.35014874 193.91703398 -133.2265625 199.04296875 C-125.55268074 202.50076527 -118.47566342 206.6827903 -112.26171875 212.37890625 C-110.85774125 206.45751602 -109.78214331 200.5761496 -109 194.54296875 C-108.7703724 192.83950802 -108.54003661 191.13614265 -108.30908203 189.43286133 C-108.18986389 188.54821198 -108.07064575 187.66356262 -107.94781494 186.75210571 C-88.7977157 45.88264916 -88.7977157 45.88264916 -40.32421875 7.00390625 C-29.27053776 -0.70849643 -12.87307938 -7.91129289 0 0 Z M-9.26171875 26.37890625 C-13.14139599 32.68680501 -15.90463105 39.34524299 -18.69921875 46.19140625 C-19.16392578 47.29677734 -19.62863281 48.40214844 -20.10742188 49.54101562 C-26.72801115 65.70928873 -30.44085994 82.77930538 -34.38671875 99.75390625 C-34.61827667 100.74725983 -34.84983459 101.7406134 -35.08840942 102.7640686 C-47.17433827 153.70358093 -47.17433827 153.70358093 -55.26171875 205.37890625 C-55.48412629 207.2669564 -55.70677683 209.15497794 -55.9296875 211.04296875 C-56.40563518 215.15207275 -56.84796013 219.26309678 -57.26171875 223.37890625 C-53.39397702 220.80041177 -52.59886508 217.82296267 -51.0390625 213.63671875 C-50.7374823 212.85018921 -50.4359021 212.06365967 -50.12518311 211.2532959 C-49.13962321 208.67392899 -48.16883906 206.08930331 -47.19921875 203.50390625 C-46.52034082 201.71127324 -45.84105737 199.91879375 -45.16137695 198.12646484 C-43.48115685 193.68395357 -41.81565446 189.23611723 -40.15795898 184.78515625 C-39.35550215 182.63069846 -38.55020322 180.47732919 -37.74414062 178.32421875 C-23.59139061 140.33634242 -12.91690831 101.37555502 -6.26171875 61.37890625 C-6.05804687 60.20714844 -5.854375 59.03539062 -5.64453125 57.828125 C-5.10711497 52.98589466 -5.07747517 48.18474777 -5.07421875 43.31640625 C-5.05584961 41.86524414 -5.05584961 41.86524414 -5.03710938 40.38476562 C-5.02669121 35.31111895 -5.23552225 31.12805458 -7.26171875 26.37890625 C-7.92171875 26.37890625 -8.58171875 26.37890625 -9.26171875 26.37890625 Z M-173.34765625 261.125 C-195.42702921 289.75468797 -206.59977403 325.68091764 -202.51171875 361.81640625 C-201.01589093 372.0884546 -199.10201704 382.18971444 -190.44921875 388.75390625 C-182.23448332 391.10097352 -175.55329268 388.1731222 -168.26171875 384.37890625 C-159.3193149 378.89440077 -151.79160516 371.61175572 -144.26171875 364.37890625 C-143.43414063 363.59257813 -142.6065625 362.80625 -141.75390625 361.99609375 C-133.54024797 354.01138762 -126.66169655 344.98835266 -119.76171875 335.87890625 C-118.96834106 334.83657837 -118.96834106 334.83657837 -118.15893555 333.77319336 C-117.6669165 333.11714111 -117.17489746 332.46108887 -116.66796875 331.78515625 C-116.22775391 331.20056641 -115.78753906 330.61597656 -115.33398438 330.01367188 C-112.66973067 325.95177688 -113.11006709 321.59843353 -113.13671875 316.94140625 C-113.13937744 316.11189453 -113.14203613 315.28238281 -113.14477539 314.42773438 C-113.19179175 308.07159911 -113.39780507 301.72779563 -113.69921875 295.37890625 C-113.75795166 294.09802124 -113.75795166 294.09802124 -113.81787109 292.79125977 C-113.85992676 291.99518311 -113.90198242 291.19910645 -113.9453125 290.37890625 C-113.98197021 289.67765625 -114.01862793 288.97640625 -114.05639648 288.25390625 C-114.21967819 286.15322758 -114.21967819 286.15322758 -115.26171875 283.37890625 C-114.60171875 283.37890625 -113.94171875 283.37890625 -113.26171875 283.37890625 C-113.18734299 277.93460043 -113.13301009 272.49059296 -113.09692383 267.04589844 C-113.08187404 265.19526006 -113.06142942 263.34465714 -113.03540039 261.49414062 C-112.99884895 258.8280358 -112.98195421 256.16240417 -112.96875 253.49609375 C-112.95326614 252.67398407 -112.93778229 251.85187439 -112.92182922 251.00485229 C-112.92038837 246.04273296 -113.5234136 242.68579121 -116.26171875 238.37890625 C-120.71076805 234.60946306 -126.28937005 231.46088233 -132.2109375 231.15234375 C-149.07378907 233.01528735 -163.32964361 248.66653379 -173.34765625 261.125 Z " fill="#FFFFFF" transform="translate(785.26171875,1100.62109375)"/>
<path d="M0 0 C0.75925781 -0.06058594 1.51851562 -0.12117187 2.30078125 -0.18359375 C6.91605733 1.01743554 9.37532807 5.90594015 11.67285156 9.81811523 C12.31503661 11.04040717 12.94984372 12.26659717 13.578125 13.49609375 C14.10149445 14.49540672 14.10149445 14.49540672 14.63543701 15.51490784 C15.7430294 17.63142423 16.84106391 19.75268573 17.9375 21.875 C22.28402858 30.26123184 26.67183496 38.59136326 31.5234375 46.69921875 C31.89051819 47.31397568 32.25759888 47.9287326 32.63580322 48.56211853 C37.26349934 56.57018365 37.26349934 56.57018365 44.6875 61.4375 C46.93545426 59.98948961 46.93545426 59.98948961 49.3125 57.8125 C50.29347656 56.98363281 51.27445313 56.15476562 52.28515625 55.30078125 C53.09944092 54.61169678 53.09944092 54.61169678 53.93017578 53.90869141 C77.47051308 34.2012626 104.90291933 17.84347058 136.6875 20.4375 C148.6548545 22.00356602 159.25601514 26.35815767 166.9609375 35.91796875 C173.91699662 46.068779 175.15208269 56.4403865 173.6875 68.4375 C170.68095207 81.66936321 162.29690123 91.03395527 151.2265625 98.3203125 C136.96750544 107.1704914 121.49906246 107.85163532 105.25 107.8125 C104.40467712 107.81195618 103.55935425 107.81141235 102.68841553 107.81085205 C85.73673294 107.76063853 70.4842729 106.05126849 54.79345703 99.28076172 C52.16136372 98.16905698 49.96347182 97.44207182 47.09375 97.39453125 C43.5611249 98.92571778 41.50259421 101.51871629 39.125 104.4375 C38.60470215 105.06414551 38.0844043 105.69079102 37.54833984 106.33642578 C1.17852114 150.80545178 -18.10513463 206.4389368 -38.3125 259.4375 C-38.66072815 260.3502771 -39.0089563 261.2630542 -39.36773682 262.20349121 C-45.52419818 278.35257111 -51.61300874 294.52075873 -57.328125 310.83203125 C-57.66285828 311.78383774 -57.99759155 312.73564423 -58.34246826 313.71629333 C-59.95413957 318.30075763 -61.55356548 322.88867183 -63.12792969 327.48608398 C-71.8974163 352.77360897 -71.8974163 352.77360897 -81.9296875 358.50390625 C-87.15951733 360.55297072 -91.63039341 360.31681339 -96.921875 358.58203125 C-109.79928362 352.86524227 -115.30681936 340.53089821 -120.25097656 328.07275391 C-131.50314059 298.14921822 -135.87559722 266.14930069 -138.3125 234.4375 C-138.9725 234.4375 -139.6325 234.4375 -140.3125 234.4375 C-140.58255859 235.16783447 -140.85261719 235.89816895 -141.13085938 236.65063477 C-142.27859799 239.35754309 -143.58469299 241.58936152 -145.21875 244.02734375 C-145.79278564 244.88730957 -146.36682129 245.74727539 -146.95825195 246.63330078 C-147.57015381 247.53806152 -148.18205566 248.44282227 -148.8125 249.375 C-149.7564563 250.77854736 -149.7564563 250.77854736 -150.71948242 252.21044922 C-155.78658672 259.71722261 -160.90765677 267.16955381 -166.3125 274.4375 C-167.04726563 275.43265625 -167.78203125 276.4278125 -168.5390625 277.453125 C-173.67993381 284.10174302 -179.21819093 288.94408517 -186.3125 293.4375 C-187.00214844 293.89253906 -187.69179688 294.34757812 -188.40234375 294.81640625 C-193.80687813 297.98839269 -199.17241698 298.51528053 -205.3125 297.4375 C-219.98088758 292.08353853 -228.24398222 282.27862913 -234.9375 268.5 C-245.86912589 244.940723 -247.43651883 217.84919993 -245.6706543 192.32470703 C-245.29176391 186.68709117 -245.2048149 181.08498513 -245.3125 175.4375 C-251.39788733 183.45424253 -257.41540865 191.50387757 -263.1875 199.75 C-269.18433114 208.31040727 -275.35987419 216.73103669 -281.59423828 225.11962891 C-283.27767137 227.39051747 -284.95028752 229.66903028 -286.62109375 231.94921875 C-287.66376259 233.36220053 -288.70671741 234.77497133 -289.75 236.1875 C-290.20955078 236.81857666 -290.66910156 237.44965332 -291.14257812 238.09985352 C-299.75126219 249.68834723 -310.89835259 258.50257119 -325.3125 261.4375 C-335.69722132 262.48898013 -344.43607622 261.87588654 -352.8984375 255.484375 C-366.97563705 243.39404746 -373.46141609 229.36580019 -375.0625 211.0625 C-377.11503113 177.03475354 -363.24573619 141.62981496 -340.875 116.3125 C-339.36323062 114.67906425 -337.84245841 113.05391154 -336.3125 111.4375 C-335.5803125 110.65246094 -334.848125 109.86742187 -334.09375 109.05859375 C-320.10162133 94.49988241 -300.12376207 83.74270877 -279.625 83 C-266.6486599 83.60309827 -253.80478466 87.68536119 -244.86328125 97.48046875 C-238.61041941 105.37135989 -235.39461998 113.97293687 -232.3125 123.4375 C-230.03613993 121.16113993 -228.99208008 118.76818898 -227.64770508 115.87548828 C-224.01956849 108.11340662 -221.08476289 102.20662611 -213 98.328125 C-206.78423544 96.26824954 -198.97684188 96.26647991 -192.9375 98.9375 C-187.43595513 102.20112831 -182.7853173 107.53903671 -180.3125 113.4375 C-176.65346654 129.25396721 -181.72191405 147.7412739 -185.02487183 163.23657227 C-198.5763448 219.72033766 -198.5763448 219.72033766 -194.3125 276.4375 C-191.79952007 277.38269741 -190.72779087 277.62406864 -188.234375 276.50390625 C-187.15929687 275.75947266 -187.15929687 275.75947266 -186.0625 275 C-185.35609375 274.52691406 -184.6496875 274.05382812 -183.921875 273.56640625 C-177.14116658 268.03424145 -171.93521894 261.96553339 -167.3125 254.5625 C-166.50824585 253.29937988 -166.50824585 253.29937988 -165.68774414 252.01074219 C-163.88195321 249.16157682 -162.09573806 246.30083129 -160.3125 243.4375 C-159.62397949 242.33696289 -158.93545898 241.23642578 -158.22607422 240.10253906 C-156.05879838 236.63616101 -153.90242495 233.1631147 -151.75 229.6875 C-151.07130859 228.59324707 -150.39261719 227.49899414 -149.69335938 226.37158203 C-149.05076172 225.32599121 -148.40816406 224.28040039 -147.74609375 223.203125 C-146.89615845 221.82302246 -146.89615845 221.82302246 -146.02905273 220.41503906 C-145.46259033 219.43245117 -144.89612793 218.44986328 -144.3125 217.4375 C-143.95707626 216.83996414 -143.60165253 216.24242828 -143.23545837 215.62678528 C-140.3313268 210.39445999 -139.66567436 206.03767327 -139.57421875 200.10546875 C-139.54591476 199.13989548 -139.51761078 198.1743222 -139.4884491 197.17948914 C-139.39913097 193.59874539 -139.35175079 190.01914884 -139.3125 186.4375 C-139.30414375 185.70749031 -139.29578751 184.97748062 -139.28717804 184.22534943 C-139.15877077 172.64935642 -139.12609522 161.07394145 -139.12719727 149.49731445 C-139.12727847 145.67467512 -139.12033085 141.85215579 -139.10668945 138.02954102 C-138.99687904 111.05206383 -138.99687904 111.05206383 -140.13671875 84.10546875 C-140.2407476 82.42714714 -140.2407476 82.42714714 -140.34687805 80.71492004 C-140.76757578 75.33894854 -141.28180304 71.06068529 -144.3125 66.4375 C-146.4498257 64.55881226 -146.4498257 64.55881226 -148.875 63.1875 C-155.00470725 59.44324533 -155.00470725 59.44324533 -155.8671875 56.625 C-156.9498724 49.23105435 -155.20608304 43.44871035 -150.8359375 37.390625 C-145.65274797 31.64244325 -139.60054246 28.97036342 -131.98046875 28.0234375 C-120.89079822 27.55882065 -112.42130403 30.48340974 -103.9375 37.625 C-85.20524357 55.78688324 -83.88565332 86.87431524 -83.3125 111.4375 C-83.27077984 116.57316273 -83.28817502 121.70809574 -83.3203125 126.84375 C-83.324687 127.54698647 -83.32906151 128.25022293 -83.33356857 128.97476959 C-83.35263898 131.94387524 -83.37267687 134.91297344 -83.39330864 137.88206863 C-83.60281009 168.84717261 -83.09494416 199.74355225 -81.9375 230.6875 C-81.88969265 231.98087784 -81.88969265 231.98087784 -81.84091949 233.30038452 C-80.90107352 258.69165786 -79.67007941 284.06538826 -78.3125 309.4375 C-74.34457225 297.81444247 -70.59852655 286.15641508 -67.125 274.375 C-55.81858936 236.24616879 -42.75091674 198.66982467 -26.3125 162.4375 C-25.8057373 161.31939941 -25.29897461 160.20129883 -24.77685547 159.04931641 C-12.18095518 131.49911705 3.08154942 104.04345058 24.6875 82.4375 C24.52539179 78.19407908 21.3445026 75.34115451 18.75 72.25 C8.77994282 59.92962442 1.41584788 46.18011106 -4.3125 31.4375 C-4.5693457 30.77943359 -4.82619141 30.12136719 -5.09082031 29.44335938 C-7.93923424 21.99141125 -10.7750253 14.51250669 -9.3125 6.4375 C-7.10907944 1.52988149 -5.25350536 0.29137089 0 0 Z M72.6875 75.4375 C72.6875 76.0975 72.6875 76.7575 72.6875 77.4375 C91.38048406 81.83584919 109.77703587 82.24290884 127.13671875 73.03515625 C131.070374 70.57135074 134.09949612 68.31950582 136.6875 64.4375 C137.15905961 60.26052759 137.15905961 60.26052759 135.375 56.625 C118.46036668 44.72210988 86.48769578 66.23736948 72.6875 75.4375 Z M-297.3125 145.4375 C-313.16013362 164.32395821 -321.98176716 190.31840013 -325.3125 214.4375 C-325.44140625 215.3140625 -325.5703125 216.190625 -325.703125 217.09375 C-327.18340492 226.68791172 -327.18340492 226.68791172 -324.3125 235.4375 C-319.19695292 234.98546344 -316.61918549 233.51180731 -312.75 230.1875 C-311.84121094 229.41921875 -310.93242188 228.6509375 -309.99609375 227.859375 C-300.55269297 219.33694635 -292.19929937 209.77241504 -284.43896484 199.72094727 C-281.32997941 195.70154413 -278.12011413 191.79471946 -274.8125 187.9375 C-270.58089232 182.99174758 -266.50752374 177.94508818 -262.51000977 172.80859375 C-260.13335891 169.754886 -257.7409116 166.71744171 -255.3046875 163.7109375 C-248.65090998 155.49706649 -242.35396196 147.11207702 -236.3125 138.4375 C-242.47193391 130.5515581 -249.2657991 124.49373681 -259.3125 122.4375 C-274.78781648 121.40087593 -287.81166552 134.90753274 -297.3125 145.4375 Z " fill="#FFFFFF" transform="translate(1127.3125,715.5625)"/>
<path d="M0 0 C4.4191753 3.26548026 8.23825987 7.00737462 12 11 C12.73734375 11.77988281 13.4746875 12.55976562 14.234375 13.36328125 C30.80445504 32.47025339 37.38306208 60.31053859 35.65625 85.03808594 C30.52189929 142.82245259 -1.79007131 191.61660082 -41.54544067 231.71966553 C-42.95581156 233.14290827 -44.36260878 234.5696896 -45.76928711 235.99658203 C-51.86924507 242.10362979 -58.25955382 247.61646741 -65 253 C-66.07495894 253.90968364 -67.14526515 254.824952 -68.20703125 255.75 C-107.27243347 289.4856397 -162.07769428 304.62643078 -213 302 C-237.26824898 300.11197327 -259.0894963 292.43774144 -278 277 C-278.6290625 276.53464844 -279.258125 276.06929687 -279.90625 275.58984375 C-298.02337293 261.61743998 -307.71714959 237.76723642 -311.3125 215.875 C-314.32796752 190.3885005 -309.22964828 164.20339009 -293.953125 143.18359375 C-292.01736936 140.74206737 -290.03315388 138.3606703 -288 136 C-286.99851553 134.79289673 -285.99826759 133.58476496 -285 132.375 C-284.01 131.199375 -284.01 131.199375 -283 130 C-284.12640537 126.72318437 -285.60413593 123.99955497 -287.5 121.125 C-292.8415298 112.61636846 -293.46868735 102.75420292 -291.34765625 93 C-285.13187474 74.21926959 -269.66046017 63.93939527 -253 55.1875 C-236.35160891 47.11612029 -217.80028921 44.0246379 -200 50 C-191.78399431 53.67677603 -183.71050083 57.9921486 -179 66 C-177.90389552 70.63736513 -177.55988687 73.81694892 -180 78 C-181.8125 79.9375 -181.8125 79.9375 -184 81 C-188.21851965 79.85381058 -189.91875827 78.20076308 -192.3125 74.625 C-195.74137417 70.10412769 -198.36236273 67.27057198 -204 66 C-215.95232914 64.85305933 -227.25189935 65.70154606 -237.375 72.8125 C-238.61067027 73.84307977 -239.82072538 74.90533701 -241 76 C-241.55429688 76.51304687 -242.10859375 77.02609375 -242.6796875 77.5546875 C-248.09847165 83.18914465 -250.5117141 90.21578429 -251.5 97.875 C-250.89243723 101.67226729 -249.73981329 103.33846709 -247 106 C-243.917685 107.02743833 -241.95699091 107.07560381 -238.73828125 106.9921875 C-237.70123047 106.97542969 -236.66417969 106.95867187 -235.59570312 106.94140625 C-233.42625084 106.89752679 -231.25694488 106.84559023 -229.08789062 106.78515625 C-221.21074163 106.67811655 -215.27641683 107.21156015 -209.0625 112.5 C-206.04837027 116.15349058 -205.8429793 119.12646102 -205.57421875 123.76953125 C-206.65340269 129.42287097 -211.29821498 133.54781446 -215.25 137.4375 C-215.73525146 137.91630615 -216.22050293 138.3951123 -216.72045898 138.88842773 C-219.42685421 141.53762986 -222.190788 144.09434835 -225.0625 146.5625 C-240.09996549 159.54382225 -254.73130809 176.75371941 -256.25 197.3984375 C-256.66013153 210.03561538 -253.83798198 220.05314395 -246 230 C-245.04480469 231.21816406 -245.04480469 231.21816406 -244.0703125 232.4609375 C-225.76449926 254.25357231 -196.67016088 261.942456 -169.42163086 264.80371094 C-126.45650024 268.28631654 -86.90849338 251.86834773 -54.3125 224.5625 C-38.40509187 210.90238563 -25.71878983 194.98480134 -15 177 C-14.4112207 176.01773438 -14.4112207 176.01773438 -13.81054688 175.015625 C0.85697802 150.28306321 12.03173586 122.59886914 16 94 C16.12890625 93.08734375 16.2578125 92.1746875 16.390625 91.234375 C18.77217076 71.30459736 16.11249415 48.58755357 4 32 C3.47664063 31.28328125 2.95328125 30.5665625 2.4140625 29.828125 C-3.97508398 21.8491909 -12.92821722 16.72618373 -23 15 C-35.79783821 13.7804413 -46.4698189 16.29908383 -56.7578125 24.10546875 C-66.5401543 32.37103629 -73.69559358 44.80742889 -75.3359375 57.625 C-75.34882812 58.40875 -75.36171875 59.1925 -75.375 60 C-75.40335938 60.78375 -75.43171875 61.5675 -75.4609375 62.375 C-74.22561761 69.4100421 -69.82621223 73.53862073 -64.375 77.625 C-63.75616943 78.099375 -63.13733887 78.57375 -62.49975586 79.0625 C-57.00342628 83.18243541 -51.32405962 86.28839307 -44.9375 88.81640625 C-41.23348154 90.29029693 -38.78549395 91.32398305 -37 95 C-36.40606608 98.90299432 -36.82904133 100.67707807 -38.6875 104.1875 C-42.39539545 108.69710258 -46.26805174 110.62244881 -52.0078125 111.203125 C-70.81801339 111.61958701 -88.22556129 97.67927902 -101.61328125 85.65234375 C-110.70581101 76.21734583 -113.72266803 63.79823992 -114 51 C-113.2479607 33.30827557 -105.2466376 16.97104167 -92.3359375 4.90234375 C-66.23776823 -16.35151651 -28.38568617 -18.58288983 0 0 Z " fill="#FFFFFF" transform="translate(1453,796)"/>
<path d="M0 0 C11.48591441 10.11387686 14.1263273 26.51203326 15.2890625 41.015625 C16.35612092 74.48657063 3.57791154 129.39518406 -19.40063477 154.89038086 C-21.09794965 156.38638692 -22.88222704 157.68369021 -24.7109375 159.015625 C-25.51015625 159.71945312 -26.309375 160.42328125 -27.1328125 161.1484375 C-33.62512466 166.79478171 -33.62512466 166.79478171 -38.3984375 167.765625 C-52.18418881 164.64432282 -63.587156 150.5652676 -73.43798828 141.17529297 C-75.7063244 139.02000818 -77.98560983 136.8770361 -80.26953125 134.73828125 C-93.78174731 122.08456802 -93.78174731 122.08456802 -99.55859375 116.10546875 C-101.42508833 114.29317365 -103.33220442 112.59717284 -105.30078125 110.8984375 C-134.10579774 85.83104429 -134.10579774 85.83104429 -139.7109375 69.015625 C-140.91470816 51.2748083 -140.91470816 51.2748083 -135.7109375 45.015625 C-128.90306477 37.59304593 -120.71318163 33.56748145 -110.6875 32.77734375 C-94.9470964 32.42878003 -82.64668178 37.62322769 -68.74658203 44.39379883 C-67.74997559 44.87357178 -66.75336914 45.35334473 -65.7265625 45.84765625 C-64.83227539 46.28827393 -63.93798828 46.7288916 -63.01660156 47.18286133 C-60.60284072 48.3238668 -60.60284072 48.3238668 -57.7109375 47.015625 C-56.46925511 44.70891982 -56.46925511 44.70891982 -55.4765625 41.8359375 C-55.06664062 40.76085938 -54.65671875 39.68578125 -54.234375 38.578125 C-53.40002674 36.32589656 -52.56665705 34.0733053 -51.734375 31.8203125 C-45.75100843 16.13720262 -37.57146772 5.07171642 -22.7109375 -2.984375 C-14.69932447 -5.64454166 -6.94624104 -4.7190336 0 0 Z M-9.7109375 22.015625 C-12.87937156 26.21872421 -15.0729279 30.68532101 -17.171875 35.50390625 C-17.8149732 36.94732398 -18.45820665 38.39068146 -19.1015625 39.83398438 C-20.09363149 42.0771463 -21.0830048 44.3214478 -22.06933594 46.56713867 C-28.78891204 61.82715504 -28.78891204 61.82715504 -33.66650391 68.43823242 C-34.89496308 69.97825163 -34.89496308 69.97825163 -34.7109375 72.015625 C-40.63903843 75.08945511 -45.79730081 77.54089972 -52.5859375 75.43359375 C-56.86053305 73.54622193 -59.86972986 71.00609271 -63.2109375 67.765625 C-71.55864503 59.97185485 -83.19959573 53.89086751 -94.7109375 53.015625 C-96.08185547 52.89574219 -96.08185547 52.89574219 -97.48046875 52.7734375 C-103.68252013 52.48496999 -108.68669551 53.16124328 -113.7109375 57.015625 C-115.72213496 59.57962274 -115.72213496 59.57962274 -116.7109375 62.015625 C-111.98868511 70.22823785 -104.33629194 75.55995198 -96.9609375 81.265625 C-90.38312056 86.35872962 -84.29932302 91.85559204 -78.25927734 97.56884766 C-75.8454075 99.82438104 -73.36368695 102.00402934 -70.8984375 104.203125 C-59.42887455 114.7004336 -49.09522445 126.45811333 -38.7109375 138.015625 C-28.40811055 133.93928912 -22.70019804 115.8916254 -18.46191406 106.14257812 C-6.30434225 77.46271164 -0.08541268 52.72197939 -7.7109375 22.015625 C-8.3709375 22.015625 -9.0309375 22.015625 -9.7109375 22.015625 Z " fill="#DB9038" transform="translate(415.7109375,1165.984375)"/>
<path d="M0 0 C6.12816001 4.90025411 9.03325109 10.00591535 10.3203125 17.71875 C13.86658728 53.0619604 -5.13557886 87.4912555 -26.34082031 114.29248047 C-34.99303414 124.79874012 -44.23346456 133.08819838 -56.20703125 139.55859375 C-57.0784375 140.11417969 -57.94984375 140.66976562 -58.84765625 141.2421875 C-62.0996198 143.05661087 -64.54502331 142.89766856 -68.20703125 142.55859375 C-69.69203125 141.56859375 -69.69203125 141.56859375 -71.20703125 140.55859375 C-69.98503886 133.88066353 -66.94027723 130.63989624 -62.08203125 126.05859375 C-61.06206055 125.06859375 -61.06206055 125.06859375 -60.02148438 124.05859375 C-56.08030107 120.25695473 -52.06002923 116.56243719 -47.890625 113.01171875 C-28.93589111 96.65171641 -6.90233695 67.38136128 -4.20703125 41.55859375 C-3.51589612 32.27092116 -3.51589612 32.27092116 -6.20703125 23.55859375 C-7.19703125 23.22859375 -8.18703125 22.89859375 -9.20703125 22.55859375 C-14.40883656 25.72491002 -17.71520945 30.86189607 -21.26953125 35.68359375 C-21.92421387 36.56289551 -22.57889648 37.44219727 -23.25341797 38.34814453 C-28.1422921 44.97143604 -32.79221682 51.73244314 -37.26196289 58.64501953 C-42.44022068 66.62029926 -46.9711503 72.23989035 -56.20703125 75.55859375 C-61.1739205 76.5822358 -65.28214007 75.66333029 -69.56494141 72.86303711 C-77.10715117 66.87165638 -79.96086321 58.71748806 -83.41796875 50.0078125 C-86.85808557 41.64854775 -90.61931948 35.05301898 -99.10546875 31.203125 C-102.56685846 30.14154637 -105.61121036 30.3017494 -109.20703125 30.55859375 C-111.87689403 35.36867042 -111.99797432 39.1537483 -111.20703125 44.55859375 C-110.28486172 47.16120041 -109.31810734 49.65319012 -108.23046875 52.18359375 C-107.92068588 52.91942184 -107.61090302 53.65524994 -107.29173279 54.41337585 C-103.08666229 64.32216799 -98.59087718 74.10463864 -94.11645508 83.89379883 C-89.83335159 93.27587834 -85.66754345 102.6841504 -81.828125 112.2578125 C-81.50667007 113.05822464 -81.18521515 113.85863678 -80.85401917 114.68330383 C-74.77771714 130.0357017 -74.77771714 130.0357017 -74.83203125 136.93359375 C-74.82042969 138.43019531 -74.82042969 138.43019531 -74.80859375 139.95703125 C-75.20703125 142.55859375 -75.20703125 142.55859375 -76.51953125 144.35546875 C-79.3182248 146.3508336 -81.82728631 146.44205082 -85.20703125 146.55859375 C-91.13289016 144.37435154 -93.20812144 138.86809397 -96.01953125 133.62109375 C-97.17472104 131.52155173 -98.33101991 129.42261965 -99.48828125 127.32421875 C-100.09414062 126.21755859 -100.7 125.11089844 -101.32421875 123.97070312 C-104.16625564 118.82024831 -107.09055599 113.71779377 -110.01870728 108.61593628 C-111.02424307 106.86287914 -112.02750873 105.10854276 -113.0300293 103.35375977 C-116.17078804 97.85675823 -119.31744047 92.36323525 -122.47654724 86.87675476 C-123.91760786 84.37320821 -125.3561769 81.86823428 -126.79452515 79.36312866 C-127.79523144 77.62259967 -128.79952558 75.88413501 -129.80395508 74.14575195 C-147.94400991 42.54261447 -147.94400991 42.54261447 -143.3984375 24.31640625 C-140.14776028 15.47546405 -134.46262705 8.56362318 -126.08203125 4.12109375 C-124.80270053 3.5706548 -123.51118694 3.04731462 -122.20703125 2.55859375 C-121.11390625 2.14609375 -120.02078125 1.73359375 -118.89453125 1.30859375 C-106.55708554 -1.20071724 -94.48122596 1.7018408 -83.890625 8.44921875 C-78.3592379 12.79703394 -73.54028167 17.9327764 -68.68847656 23.01269531 C-66.88949039 24.88994983 -65.05459808 26.72922955 -63.20703125 28.55859375 C-62.75900146 28.080271 -62.31097168 27.60194824 -61.84936523 27.10913086 C-59.78228466 24.90365942 -57.71341932 22.69986967 -55.64453125 20.49609375 C-54.94005859 19.74392578 -54.23558594 18.99175781 -53.50976562 18.21679688 C-39.89203423 3.72050217 -20.59262539 -13.44898897 0 0 Z " fill="#DB9038" transform="translate(1772.20703125,718.44140625)"/>
<path d="M0 0 C9.40127445 11.06182565 9.86152405 27.22518766 9 41 C5.99893106 72.46773014 -7.05724093 102.77278418 -27 127 C-27.55558594 127.74507812 -28.11117187 128.49015625 -28.68359375 129.2578125 C-33.40212369 135.43333894 -40.35682607 138.8739967 -48 140 C-59.99137593 140.85552507 -59.99137593 140.85552507 -65.375 138.5625 C-73.29853406 130.82762151 -79.79172086 122.1342907 -86.34082031 113.24169922 C-88.03399873 110.9540647 -89.7455623 108.68118261 -91.4609375 106.41015625 C-103.20882573 90.78585498 -113.78702396 74.77169274 -122 57 C-122.44214844 56.08992187 -122.88429687 55.17984375 -123.33984375 54.2421875 C-127.3709158 45.31931627 -128.37711273 35.49746964 -124.99609375 26.2109375 C-121.52588201 18.5084283 -116.64488422 14.598941 -109 11 C-99.01983951 7.24235754 -89.43062713 9.27959367 -79.9765625 13.5546875 C-78.99429688 14.03164063 -78.01203125 14.50859375 -77 15 C-76.05898438 15.45632813 -75.11796875 15.91265625 -74.1484375 16.3828125 C-67.4254244 19.84847841 -61.78543438 24.16333561 -56 29 C-54.67350008 30.00904695 -53.34245115 31.01227398 -52 32 C-51.77570313 31.35546875 -51.55140625 30.7109375 -51.3203125 30.046875 C-46.30408379 18.47096258 -38.10228383 3.09000529 -26.375 -2.5 C-17.60525631 -5.77742981 -7.51010379 -6.47746452 0 0 Z M-14 18 C-23.82485191 23.40366855 -29.14430975 33.51104051 -34.41113281 43.0222168 C-36.85354235 47.36233661 -39.30604534 50.65055925 -43 54 C-43.33 54.33 -43.66 54.66 -44 55 C-48.8299645 55.55485468 -52.8336133 55.56076284 -57.25 53.4375 C-59.89844508 51.09001458 -62.00191696 48.66344877 -64.234375 45.9375 C-70.02807989 39.57980614 -77.44563269 33.75474201 -86 32 C-87.58211573 31.93451508 -89.16670081 31.91421619 -90.75 31.9375 C-91.94882812 31.95103516 -91.94882812 31.95103516 -93.171875 31.96484375 C-93.77515625 31.97644531 -94.3784375 31.98804688 -95 32 C-95.33 32.66 -95.66 33.32 -96 34 C-95.6596875 34.44988281 -95.319375 34.89976562 -94.96875 35.36328125 C-80.16387379 55.01124197 -66.63582669 75.34483103 -54.34960938 96.65917969 C-53.12087058 98.79035689 -51.88356932 100.91614807 -50.640625 103.0390625 C-49.08866542 105.68980947 -47.54143499 108.3431266 -46 111 C-42.035601 109.67853367 -40.75856838 107.22719268 -38.5625 103.875 C-38.13291992 103.22120361 -37.70333984 102.56740723 -37.26074219 101.89379883 C-22.63525757 79.06957489 -12.11014828 54.9248808 -11.8125 27.5625 C-11.79944824 26.85150146 -11.78639648 26.14050293 -11.77294922 25.40795898 C-11.76990995 23.60372048 -11.87722143 21.80005868 -12 20 C-12.99 19.01 -12.99 19.01 -14 18 Z " fill="#DB9038" transform="translate(368,903)"/>
<path d="M0 0 C3.38031836 2.28399889 4.55424431 4.8022564 5.60083008 8.68676758 C6.50400586 13.92076792 6.242658 19.26905541 6.1875 24.5625 C6.18105469 25.83633545 6.17460938 27.1101709 6.16796875 28.42260742 C6.07828457 39.63102795 5.64529666 50.81101691 5 62 C8.77146518 61.52572253 12.54204552 61.04474135 16.3125 60.5625 C17.38435547 60.42779297 18.45621094 60.29308594 19.56054688 60.15429688 C20.58857422 60.02216797 21.61660156 59.89003906 22.67578125 59.75390625 C24.0975769 59.57323608 24.0975769 59.57323608 25.5480957 59.38891602 C28.12801191 59.04827548 28.12801191 59.04827548 31 58 C31.83923869 50.36161665 32.0905981 42.8666194 32 35.1875 C31.98936757 31.12497375 31.99294209 27.06253051 32 23 C31.9990332 22.22462891 31.99806641 21.44925781 31.99707031 20.65039062 C32.05523778 9.42935668 32.05523778 9.42935668 35.6875 4.6875 C37.75981735 2.75333714 39.30324119 1.86450925 41.9375 0.6875 C45.78596008 1.08020001 47.52987056 2.39120194 50.484375 4.7734375 C55.9554065 12.81077758 54.30736142 24.67382828 54.25 34 C54.2478952 34.83960266 54.24579041 35.67920532 54.24362183 36.54425049 C54.19783267 52.11738241 53.54536668 67.59712434 51.4609375 83.046875 C50.92311465 87.65938964 50.73591168 92.23745106 50.5625 96.875 C49.75249305 115.24750695 49.75249305 115.24750695 46 119 C43.06546739 118.63318342 42.13562754 118.13562754 40 116 C39.42163086 113.26611328 39.42163086 113.26611328 38.96484375 109.8203125 C38.71057617 107.96212891 38.71057617 107.96212891 38.45117188 106.06640625 C38.1969043 104.11541016 38.1969043 104.11541016 37.9375 102.125 C37.59419239 99.56486963 37.24921225 97.00496284 36.90234375 94.4453125 C36.67792603 92.73625732 36.67792603 92.73625732 36.44897461 90.99267578 C36.08969562 88.59787323 35.64700213 86.32949253 35 84 C18.38195649 83.31876101 18.38195649 83.31876101 4 87 C3.86608993 88.7233152 3.79643999 90.45170079 3.75390625 92.1796875 C3.72103516 93.25476562 3.68816406 94.32984375 3.65429688 95.4375 C3.5941441 97.69002958 3.53675116 99.94263494 3.48242188 102.1953125 C2.88848911 121.11151089 2.88848911 121.11151089 -1 125 C-3.8125 125.4375 -3.8125 125.4375 -7 125 C-11.43375243 121.63464684 -12.68394987 118.80283761 -13.47160339 113.51855469 C-13.56991959 112.68743164 -13.66823578 111.85630859 -13.76953125 111 C-13.88633743 110.11989258 -14.00314362 109.23978516 -14.12348938 108.33300781 C-15.32740323 98.57500908 -15.57101007 88.82088053 -15.6875 79 C-15.7185244 77.06558353 -15.75011201 75.13117602 -15.78222656 73.19677734 C-15.86046297 68.15974701 -15.91736555 63.12270772 -15.96746826 58.08532715 C-16.00027643 54.97378324 -16.04057485 51.86240972 -16.08251953 48.75097656 C-16.14898779 43.6771414 -16.19661502 38.60346069 -16.22915649 33.52929688 C-16.24295198 31.60705807 -16.26125675 29.68484585 -16.28427124 27.76269531 C-16.31399546 25.08381818 -16.32376552 22.40558566 -16.328125 19.7265625 C-16.34041641 18.94310455 -16.35270782 18.15964661 -16.3653717 17.35244751 C-16.34467064 12.17434962 -15.44128721 8.59311369 -13 4 C-8.77517635 0.25526994 -5.61196043 -0.83140155 0 0 Z " fill="#DC9139" transform="translate(920,1076)"/>
<path d="M0 0 C0.72614502 -0.02602295 1.45229004 -0.0520459 2.20043945 -0.07885742 C7.29851427 -0.09623654 10.15753042 1.15092675 14.0625 4.375 C16.53592266 8.08513399 16.44753486 9.98560262 16.0625 14.375 C15 16.4921875 15 16.4921875 13.0625 18.375 C10.54394243 19.14696025 8.32710595 19.66431401 5.75 20.0625 C5.04810547 20.18278564 4.34621094 20.30307129 3.62304688 20.42700195 C-3.21038753 21.54058162 -10.0223995 22.01483852 -16.9375 22.375 C-17.2675 30.295 -17.5975 38.215 -17.9375 46.375 C-10.30841151 46.17798211 -10.30841151 46.17798211 -2.68115234 45.92456055 C6.14338608 45.80971559 6.14338608 45.80971559 9.79296875 48.58203125 C12.84946994 52.3434742 12.86900539 54.32749703 12.59765625 58.99609375 C11.78883379 62.59151623 9.96639542 64.23164862 7.0625 66.375 C4.49038678 67.66105661 2.49343034 67.58543941 -0.3828125 67.69140625 C-1.45917969 67.73330078 -2.53554687 67.77519531 -3.64453125 67.81835938 C-4.77246094 67.85767578 -5.90039062 67.89699219 -7.0625 67.9375 C-8.19816406 67.98068359 -9.33382813 68.02386719 -10.50390625 68.06835938 C-13.31497768 68.1746604 -16.12613945 68.27669405 -18.9375 68.375 C-19.13395093 71.49950532 -19.31813489 74.62461445 -19.5 77.75 C-19.55607422 78.63945313 -19.61214844 79.52890625 -19.66992188 80.4453125 C-19.71826172 81.29609375 -19.76660156 82.146875 -19.81640625 83.0234375 C-19.88710327 84.20172119 -19.88710327 84.20172119 -19.95922852 85.40380859 C-20.08032506 87.45378964 -20.08032506 87.45378964 -18.9375 89.375 C-16.4713811 89.71982322 -14.09332783 89.93862655 -11.61328125 90.0859375 C-10.09436906 90.19748205 -8.57548981 90.30947582 -7.05664062 90.421875 C-4.65864553 90.58835143 -2.26052763 90.74933281 0.13842773 90.90136719 C2.45172816 91.05167786 4.76264295 91.22382718 7.07421875 91.3984375 C7.78382248 91.43713959 8.49342621 91.47584167 9.22453308 91.51571655 C15.21108739 91.98706092 19.10005185 94.09602795 23 98.625 C24.49195501 102.48653062 24.19999738 105.4338119 23.0625 109.375 C20.51908236 114.24066853 16.77537889 115.74442346 11.81640625 117.52734375 C-2.80151657 122.02676113 -19.9615865 122.47999351 -33.9375 115.625 C-37.86149642 112.68200268 -40.42992738 109.24106715 -41.2918911 104.37388992 C-41.41983949 102.1510631 -41.42159864 99.96284827 -41.37573242 97.73681641 C-41.37471024 96.90169022 -41.37368805 96.06656403 -41.37263489 95.20613098 C-41.36479082 92.46248877 -41.32883569 89.7199689 -41.29296875 86.9765625 C-41.28295518 85.0575753 -41.27487323 83.13857715 -41.26863098 81.21957397 C-41.24773955 76.17583595 -41.20371256 71.13257533 -41.15386963 66.08905029 C-41.07850396 58.02492388 -41.04036033 49.96051507 -40.99837685 41.89616013 C-40.98079156 39.09056386 -40.95463105 36.28515603 -40.92680359 33.47964478 C-40.91357156 31.74375494 -40.90044844 30.00786427 -40.88745117 28.27197266 C-40.87757172 27.5018132 -40.86769226 26.73165375 -40.85751343 25.93815613 C-40.82975435 21.31190838 -41.17093451 16.88821331 -41.8669939 12.31172752 C-41.9375 10.375 -41.9375 10.375 -40.4375 7.5 C-34.6535959 2.58368152 -28.44608956 1.77318716 -21.125 1.1875 C-19.75589478 1.07124268 -19.75589478 1.07124268 -18.35913086 0.95263672 C-12.24565968 0.47101099 -6.13149217 0.12007425 0 0 Z " fill="#DC9139" transform="translate(1039.9375,1075.625)"/>
<path d="M0 0 C0.94367432 0.21840042 1.88734863 0.43680084 2.85961914 0.66181946 C13.28558261 3.13990883 23.4815235 6.29140456 33.6875 9.54296875 C35.65354534 10.16381116 37.6196926 10.7843309 39.5859375 11.40454102 C44.40620724 12.92858376 49.22215708 14.46578465 54.03662109 16.00805664 C56.50868515 16.79830663 58.98241415 17.58302183 61.45703125 18.36523438 C65.53971064 19.65678293 69.6143818 20.97156732 73.6875 22.29296875 C74.83476563 22.65672607 75.98203125 23.0204834 77.1640625 23.39526367 C87.2239879 26.71831033 98.6872527 30.64080326 104.6875 39.85546875 C106.26205739 43.00458354 106.03549118 45.37555691 105.6875 48.85546875 C103.24598453 52.89922875 101.44074952 54.94269324 96.875 56.23046875 C87.45939858 58.27821149 78.01947172 55.80187729 68.8125 53.85546875 C68.02191193 53.6901767 67.23132385 53.52488464 66.41677856 53.35458374 C50.14155453 49.91593602 34.09352617 45.62182758 18.06276703 41.20202637 C16.13934197 40.67192146 14.21533318 40.14393606 12.2913208 39.6159668 C8.62785462 38.60708546 4.96765853 37.5872187 1.30859375 36.5625 C0.22749832 36.26366409 -0.85359711 35.96482819 -1.967453 35.65693665 C-27.67915601 28.37110874 -27.67915601 28.37110874 -34.3125 19.04296875 C-35.64775699 14.7868371 -36.34315544 11.25243766 -35.3125 6.85546875 C-32.72338044 2.38751907 -29.70701595 -0.47409089 -25.0625 -2.70703125 C-16.62098361 -3.69187483 -8.20677608 -1.92361714 0 0 Z " fill="#DC9139" transform="translate(1607.3125,1363.14453125)"/>
<path d="M0 0 C2.84629158 2.75734497 3.25773771 4.62985992 3.5 8.5 C3.42186283 13.91490563 1.7084459 16.88466099 -1.8203125 20.90234375 C-12.67803108 31.04010608 -27.51209301 33.7682467 -41.625 36.4375 C-42.40169037 36.58646729 -43.17838074 36.73543457 -43.97860718 36.88891602 C-55.5434226 39.09446048 -67.13260392 40.95947266 -78.8125 42.4375 C-80.11977051 42.60958984 -81.42704102 42.78167969 -82.77392578 42.95898438 C-96.0850556 44.52238929 -112.23897437 45.19411538 -124.125 38.0625 C-127.14886681 34.63545095 -127.88187536 32.02030917 -128.375 27.5 C-127.92157117 23.19242613 -126.77283283 21.23492282 -124 17.9375 C-120.26464596 15.33384809 -116.72093861 14.13984665 -112.32421875 13.02734375 C-111.66211899 12.85880386 -111.00001923 12.69026398 -110.31785583 12.51661682 C-108.11012157 11.95933438 -105.89920593 11.41629074 -103.6875 10.875 C-102.92298523 10.68518555 -102.15847046 10.49537109 -101.37078857 10.29980469 C-82.63340619 5.65815667 -63.7304857 1.7703351 -44.8203125 -2.09375 C-43.46310341 -2.37127357 -43.46310341 -2.37127357 -42.07847595 -2.65440369 C-28.30380837 -5.44670903 -12.30726352 -8.46124367 0 0 Z " fill="#DC9139" transform="translate(340,731.0625)"/>
<path d="M0 0 C2.44474604 2.59626296 3.8485352 4.0912112 4.4375 7.625 C3.91050637 10.48582254 3.20216822 11.1622081 1 13 C-0.90112305 13.79956055 -0.90112305 13.79956055 -3.01171875 14.38671875 C-3.76904297 14.60263672 -4.52636719 14.81855469 -5.30664062 15.04101562 C-6.09232422 15.25435547 -6.87800781 15.46769531 -7.6875 15.6875 C-8.48478516 15.91244141 -9.28207031 16.13738281 -10.10351562 16.36914062 C-12.06654159 16.92160901 -14.03296261 17.46198869 -16 18 C-17.01498262 25.52857339 -17.23407497 33.02525716 -17.38442612 40.61143684 C-17.43069897 42.89762989 -17.48357095 45.18358521 -17.5383606 47.46958923 C-17.69364566 53.9638174 -17.84381601 60.45809863 -17.97412109 66.95288086 C-18.05468594 70.94473631 -18.14837242 74.93611459 -18.24994278 78.92748833 C-18.28577418 80.42971701 -18.31697019 81.93206516 -18.34298325 83.43449593 C-18.80620666 109.85459591 -18.80620666 109.85459591 -23.86056519 116.41493225 C-26.47953721 118.35528027 -28.68388511 118.52013131 -31.90234375 118.62890625 C-35.2804109 117.61611517 -36.81413122 115.7075383 -39 113 C-44.59683877 93.50925444 -42.13489023 69.92297672 -42.06866455 49.88165283 C-42.05825576 46.38790507 -42.05383015 42.89414957 -42.04882812 39.40039062 C-42.03824714 32.60024209 -42.02128341 25.80012327 -42 19 C-42.60145844 18.97428925 -43.20291687 18.94857849 -43.82260132 18.92208862 C-46.57718655 18.80262932 -49.33155334 18.67869302 -52.0859375 18.5546875 C-53.03202881 18.51432373 -53.97812012 18.47395996 -54.95288086 18.43237305 C-71.90847184 17.65797676 -71.90847184 17.65797676 -75.71484375 14.640625 C-77.87937893 11.87738859 -77.94067937 9.44059666 -78 6 C-76.625 3.1875 -76.625 3.1875 -74 1 C-66.10861557 -1.21269925 -57.94359333 -1.99666359 -49.8190918 -2.91479492 C-47.4654715 -3.18429711 -45.11484372 -3.47368662 -42.76367188 -3.76367188 C-28.73030851 -5.41176397 -13.03181163 -6.4778011 0 0 Z " fill="#DC9139" transform="translate(884,1079)"/>
<path d="M0 0 C9.80231379 2.48739849 18.44708807 10.52053641 26.33984375 16.5546875 C29.91545227 19.28605512 33.54396219 21.92982109 37.21484375 24.53125 C38.35157908 25.33851832 39.48829742 26.14581057 40.625 26.953125 C41.50889404 27.58057617 41.50889404 27.58057617 42.41064453 28.22070312 C81.39166611 55.96421937 81.39166611 55.96421937 83.78515625 69.0234375 C84.05262018 74.31922333 82.8592894 77.48773007 79.33984375 81.59375 C76.04930725 84.65029279 73.66579657 85.05084925 69.21484375 85.09375 C68.16039062 85.1246875 67.1059375 85.155625 66.01953125 85.1875 C55.73961668 83.52874521 49.01450783 76.97114436 41.984375 69.76171875 C41.02998 68.80051125 40.07452862 67.84035163 39.11808777 66.88117981 C36.62211206 64.37190508 34.14189812 61.84759614 31.66448975 59.32000732 C29.65306612 57.27318589 27.63052498 55.23755467 25.60730457 53.20240307 C8.80904657 36.30154454 8.80904657 36.30154454 2.79455566 29.26026917 C-0.10657873 25.93672721 -3.3463487 22.94607947 -6.5234375 19.890625 C-10.13475456 16.00862421 -11.20292363 12.9690764 -11.03125 7.56640625 C-10.66015625 5.59375 -10.66015625 5.59375 -8.66015625 2.59375 C-5.63438422 0.57656864 -3.65922852 -0.27256823 0 0 Z " fill="#DC9139" transform="translate(306.66015625,570.40625)"/>
<path d="M0 0 C1.89512342 3.15853903 2.06261145 5.55775321 2.2265625 9.18359375 C0.60062038 14.36737696 -4.82961411 16.77438521 -9.34375 19.19140625 C-11.22571945 20.15519866 -13.1113558 21.11185396 -15 22.0625 C-17.08687586 23.13098176 -19.17279238 24.201339 -21.2578125 25.2734375 C-22.3087207 25.81323242 -23.35962891 26.35302734 -24.44238281 26.90917969 C-28.96171174 29.26050093 -33.41695093 31.72259538 -37.875 34.1875 C-46.74338368 39.05675711 -55.67670899 43.79852787 -64.65216064 48.46694946 C-66.12012772 49.23172811 -67.58659388 49.99939548 -69.05145264 50.77011108 C-71.12113841 51.85786314 -73.19641419 52.93415146 -75.2734375 54.0078125 C-75.88413086 54.3312413 -76.49482422 54.6546701 -77.12402344 54.98789978 C-84.05998179 58.53787758 -91.68936743 60.64779905 -99.5 59.5 C-102.85177219 58.26379505 -105.69813097 56.76469277 -107.6640625 53.6640625 C-108.61229192 51.20930035 -108.86788816 49.2538707 -108.9375 46.625 C-108.97746094 45.80257813 -109.01742188 44.98015625 -109.05859375 44.1328125 C-108.05363378 39.39614802 -105.1800863 36.69508715 -101.36791992 33.98339844 C-98.74461103 32.34117082 -96.08238543 30.81217245 -93.375 29.3125 C-92.36002441 28.74789063 -91.34504883 28.18328125 -90.29931641 27.6015625 C-72.29932111 17.84071204 -52.94137984 11.18569166 -33.6875 4.375 C-32.87392029 4.08665283 -32.06034058 3.79830566 -31.22210693 3.5012207 C-28.8937601 2.67925006 -26.56277787 1.8653386 -24.23046875 1.0546875 C-23.53782425 0.81044037 -22.84517975 0.56619324 -22.13154602 0.31454468 C-14.78973586 -2.21208642 -7.07271393 -4.24362836 0 0 Z " fill="#DC9139" transform="translate(1675.5,1231.5)"/>
<path d="M0 0 C1.49958628 0.25731216 2.99921583 0.5143723 4.49888611 0.77119446 C7.63737545 1.31047511 10.77488557 1.85508529 13.91186523 2.40307617 C17.88762122 3.0968275 21.86601513 3.77385812 25.84542179 4.44630718 C28.94510576 4.97270319 32.04282839 5.51001806 35.14013481 6.05021095 C36.60357713 6.30381693 38.06765069 6.55381308 39.53239632 6.79977989 C69.30482752 11.8184478 69.30482752 11.8184478 78.65234375 22.55078125 C79.89518156 26.27929467 80.18041635 29.67824886 79.65234375 33.55078125 C77.4149314 37.94273883 75.24447047 40.6943896 70.65234375 42.55078125 C55.41969519 46.27791866 38.16084962 37.86886543 23.96484375 32.80078125 C22.18886273 32.17105288 20.41282061 31.54149682 18.63671875 30.91210938 C14.38223271 29.40115121 10.13194456 27.87878682 5.88336182 26.35131836 C3.88903915 25.63571263 1.89265234 24.92586549 -0.10400391 24.21679688 C-3.0246276 23.17721545 -5.93772599 22.11985779 -8.84765625 21.05078125 C-9.62713623 20.77395508 -10.40661621 20.49712891 -11.2097168 20.21191406 C-16.47005992 18.22973863 -21.3771838 15.59832687 -25.34765625 11.55078125 C-26.99265646 7.69759893 -28.0431645 4.35655038 -26.49609375 0.33984375 C-22.10944082 -6.49378565 -6.73607495 -1.17227758 0 0 Z " fill="#DC9139" transform="translate(269.34765625,650.44921875)"/>
<path d="M0 0 C1.13653519 -0.01805695 2.27307037 -0.03611389 3.44404602 -0.05471802 C9.78414689 -0.05369489 14.65001591 0.46116151 20.36328125 3.3046875 C22.36328125 6.3046875 22.36328125 6.3046875 22.23828125 8.8046875 C21.13634618 11.95307341 20.19510137 12.56827001 17.36328125 14.3046875 C14.93105738 15.09340257 12.59716558 15.75488761 10.11694336 16.33325195 C9.41154136 16.50295911 8.70613935 16.67266626 7.97936153 16.84751606 C0.48473164 18.59706293 -7.07953861 19.76868013 -14.6953125 20.84765625 C-16.17879019 21.06323642 -17.66219209 21.27933862 -19.14552307 21.4959259 C-22.22624579 21.94388858 -25.30771708 22.38612266 -28.38989258 22.82397461 C-32.28819297 23.37815872 -36.18434142 23.94607817 -40.08003139 24.51829052 C-43.13467421 24.96549371 -46.19030683 25.40561789 -49.2462635 25.84374428 C-50.68108391 26.05019459 -52.11562353 26.25860867 -53.5498333 26.46925926 C-61.29464536 27.60231457 -69.00763806 28.4932665 -76.82055664 28.97387695 C-77.87704611 29.04025124 -77.87704611 29.04025124 -78.95487881 29.10796642 C-84.7792934 29.42028356 -90.43425111 29.69322631 -95.28125 26.078125 C-97.88442982 23.39606095 -98.62985571 21.36155269 -99.07421875 17.6796875 C-98.45424361 12.89702212 -97.80889758 11.27673823 -94.07421875 8.1796875 C-85.88014823 3.71019449 -76.43108659 3.77226872 -67.3046875 3.234375 C-65.9048683 3.14793492 -64.5050732 3.06110371 -63.1053009 2.97390747 C-60.16967013 2.79276302 -57.2337809 2.61694024 -54.29760742 2.44482422 C-51.34887983 2.27158216 -48.40072882 2.09142221 -45.45288086 1.90380859 C-30.30879472 0.9401912 -15.17723584 0.12804394 0 0 Z " fill="#DC9139" transform="translate(1676.63671875,1304.6953125)"/>
</svg>